<svg width="945" height="649" viewBox="0 0 945 649" fill="none" xmlns="http://www.w3.org/2000/svg">
<path d="M311 334C128.6 311.6 8.66667 105.333 2 0V622C192.5 420.5 372 579 499.5 630C627 681 708.5 625 706 505C703.5 385 818.5 341.5 874 327.5C929.5 313.5 1000.02 257.034 874 245C685.5 227 539 362 311 334Z" fill="#E78542"/>
<path d="M300.518 353.423C130.208 332.537 8.22488 152.713 2.00012 54.5L2 586.541C179.873 398.661 347.474 536.447 466.523 584C585.572 631.553 671.669 624.753 669.335 512.865C667.001 400.976 774.378 330.416 826.199 317.363C890 301.291 944.054 261.392 826.199 270.439C623.5 286 513.405 379.531 300.518 353.423Z" fill="#FD9852"/>
<path d="M300.518 383.423C130.208 362.537 8.22488 193.213 2.00012 95L2 568C179.873 380.12 331.474 506.447 450.523 554C569.572 601.553 655.669 594.753 653.335 482.865C651.001 370.976 744.686 318.658 797.5 310.5C859 301 914.531 269.98 797.5 286.577C586.5 316.5 513.405 409.531 300.518 383.423Z" fill="#FFD7E9"/>
<path d="M302 402C138.537 380.093 32 259.333 0 192V530C158 378 342 466 474 516C606 566 622.197 533.847 606 448C586 342 496 428 302 402Z" fill="#FFF2E9"/>
<path d="M665.898 292.197C676.709 292.131 681.357 284.724 680.395 278.429C679.449 272.124 672.805 266.366 662.438 269.375C659.049 270.358 655.689 272.226 652.71 274.293C655.117 271.586 657.36 268.501 658.731 265.265C662.96 255.395 657.95 248.196 651.75 246.535C645.551 244.874 637.626 248.607 636.314 259.259C635.884 262.746 636.283 266.539 637.015 270.088C635.468 266.808 633.492 263.51 631.048 260.964C623.588 253.178 614.969 254.847 610.997 259.834C607.012 264.817 607.338 273.542 616.668 279.005C620.436 281.211 625.132 282.47 629.445 283.166C625.358 283.824 621.01 284.982 617.457 286.993C608.071 292.309 607.68 301.038 611.613 306.084C615.546 311.13 624.159 312.937 631.694 305.274C635.241 301.662 637.826 296.513 639.578 292.016C638.846 296.786 638.498 302.535 639.777 307.44C642.47 317.844 650.833 320.585 656.762 318.182C662.691 315.778 666.704 308.02 661.243 298.739C659.172 295.221 655.972 292.041 652.775 289.431C656.836 290.965 661.531 292.223 665.898 292.197Z" fill="#3C2211"/>
<path d="M659.437 288.923C667.241 288.875 670.596 283.529 669.901 278.985C669.218 274.434 664.423 270.277 656.94 272.449C654.493 273.159 652.067 274.507 649.917 276C651.655 274.045 653.274 271.818 654.264 269.483C657.316 262.358 653.7 257.162 649.225 255.963C644.75 254.764 639.029 257.458 638.082 265.147C637.771 267.665 638.06 270.403 638.588 272.964C637.472 270.596 636.045 268.216 634.281 266.378C628.896 260.758 622.674 261.962 619.807 265.562C616.931 269.159 617.166 275.458 623.901 279.401C626.621 280.993 630.01 281.902 633.124 282.405C630.173 282.879 627.035 283.715 624.471 285.167C617.695 289.004 617.413 295.305 620.252 298.947C623.091 302.59 629.308 303.894 634.747 298.363C637.307 295.756 639.174 292.038 640.438 288.792C639.91 292.236 639.658 296.385 640.581 299.926C642.526 307.436 648.563 309.415 652.842 307.68C657.122 305.945 660.019 300.345 656.077 293.646C654.581 291.106 652.272 288.811 649.964 286.927C652.895 288.034 656.285 288.942 659.437 288.923Z" fill="#644A39"/>
<path d="M639.824 290.922C645.458 292.432 651.24 289.123 652.738 283.532C654.236 277.941 650.883 272.185 645.249 270.676C639.614 269.166 633.832 272.474 632.334 278.065C630.836 283.656 634.189 289.413 639.824 290.922Z" fill="white"/>
</svg>
