<svg width="350" height="110" viewBox="0 0 350 110" fill="none" xmlns="http://www.w3.org/2000/svg">
<path d="M63.3123 48.6062C57.173 80.838 18.546 102.965 0 110H349.177C295.458 110 282.028 29.4207 234.064 48.6062C186.1 67.7918 186.1 29.4207 143.892 8.31655C101.683 -12.7876 70.9866 8.31655 63.3123 48.6062Z" fill="#E78542"/>
<path d="M79.8222 64.4912C74.5936 88.3833 41.697 104.785 25.9023 110H323.279C277.528 110 266.091 50.2697 225.242 64.4912C184.394 78.7127 184.394 50.2697 148.447 34.6261C112.501 18.9825 86.3579 34.6261 79.8222 64.4912Z" fill="#FD9852"/>
<path d="M93.2726 78.4116C88.7861 94.9955 60.5587 106.38 47.0059 110H302.174C262.917 110 253.103 68.5402 218.052 78.4116C183.002 88.2829 183.002 68.5402 152.157 57.6817C121.313 46.8231 98.8807 57.6817 93.2726 78.4116Z" fill="#FFD7E9"/>
<path d="M109.779 89.6549C106.203 100.336 83.7058 107.669 72.9043 110H276.271C244.984 110 237.162 83.2971 209.227 89.6549C181.292 96.0127 181.292 83.2971 156.709 76.3034C132.127 69.3098 114.248 76.3034 109.779 89.6549Z" fill="#FFC1DD"/>
</svg>
