<svg width="203" height="417" viewBox="0 0 203 417" fill="none" xmlns="http://www.w3.org/2000/svg">
<path d="M121.959 88.435C157.077 104.669 190.619 36.5759 203 0.5L203 416.5C172.609 318.419 88.1913 321.801 51.0473 321.801C13.9033 321.801 -19.864 264.305 13.9033 233.866C47.6706 203.427 54.424 172.988 51.0473 129.02C47.6706 85.0529 78.0611 68.1423 121.959 88.435Z" fill="#E78542"/>
<path d="M131.54 112.765C162.506 127.087 192.082 57.0141 203 25.1875L203 384.732C176.202 298.204 101.765 301.188 69.0121 301.188C36.2596 301.188 16.2249 266.041 46 239.188C75.7751 212.334 71.9897 177.358 69.0121 138.57C66.0346 99.781 92.8322 94.8623 131.54 112.765Z" fill="#FD9852"/>
<path d="M148.433 134.171C172.079 145.126 194.663 91.5302 203 67.1875L203 342.188C182.537 276.006 125.696 278.288 100.687 278.288C75.6765 278.288 60.378 251.406 83.1144 230.867C105.851 210.328 102.96 183.576 100.687 153.909C98.4129 124.241 118.876 120.479 148.433 134.171Z" fill="#FFC1DD"/>
<path d="M156.764 144.941C176.799 154.222 195.936 108.812 203 88.1875L203 321.188C185.661 265.113 137.499 267.047 116.307 267.047C95.1152 267.047 82.1524 244.271 101.418 226.868C120.683 209.466 118.233 186.8 116.307 161.664C114.38 136.527 131.719 133.34 156.764 144.941Z" fill="#FFD7E9"/>
<path d="M172.592 165.455C185.769 171.549 198.354 141.731 203 128.188L203 281.188C191.597 244.366 159.922 245.636 145.986 245.636C132.049 245.636 123.524 230.68 136.194 219.253C148.863 207.825 147.253 192.942 145.986 176.436C144.719 159.93 156.122 157.837 172.592 165.455Z" fill="#FFF2E9"/>
</svg>
