<svg width="370" height="150" viewBox="0 0 370 150" fill="none" xmlns="http://www.w3.org/2000/svg">
<path d="M91.6624 17.1866C90.2615 16.227 89.0357 15.7908 87.9851 15.7908C84.7456 15.7908 83.4323 19.9784 83.4323 24.0787C83.4323 25.4746 83.6074 26.9577 83.8701 28.1791C84.2203 29.8367 85.0083 30.4474 86.1465 30.4474C88.6855 30.4474 92.713 27.3939 97.0031 27.3939C97.7911 27.3939 98.4915 27.4812 99.192 27.6557C102.169 28.4408 104.97 34.4605 104.97 41.0037C104.97 47.8958 101.906 55.3113 93.0632 58.0158C90.0864 58.8882 87.4598 59.3244 85.0083 59.3244C72.1379 59.3244 65.7465 47.8958 64.9585 33.8498C64.871 32.9774 64.871 32.105 64.871 31.2326C64.871 17.3611 70.562 0.174487 85.271 0.174487C85.7087 0.174487 86.234 0.261727 86.7594 0.261727C96.7405 1.0469 99.3671 5.93245 99.3671 10.3818C99.3671 13.1735 98.3164 15.878 97.3533 17.1866C96.5654 18.3208 95.6898 18.757 94.9018 18.757C93.5885 18.757 92.4503 17.7101 91.6624 17.1866Z" fill="#3C2211"/>
<path d="M139.166 29.226C142.056 30.6219 144.857 35.3329 145.12 45.1913C145.207 48.2447 146.258 51.3854 146.258 53.9155C146.258 57.1434 144.595 59.3244 137.24 59.3244H136.277C131.286 59.15 128.31 57.8413 127.872 54.6134C127.784 54.2644 127.784 53.9155 127.784 53.4792C127.784 49.6406 130.061 45.5402 130.061 41.7016C130.061 40.9164 129.973 40.1312 129.71 39.3461C129.36 38.2119 127.959 37.4267 126.646 37.4267C125.333 37.4267 124.195 38.2119 124.195 40.3057C124.195 40.6547 124.195 41.0909 124.282 41.5271C125.07 45.9764 126.208 49.9023 126.208 52.8686C126.208 57.0562 124.195 59.4989 116.665 59.4989C107.472 59.4989 105.371 56.5327 105.371 52.7813C105.371 50.9492 105.808 48.9427 106.246 47.0233C107.034 43.6209 107.91 38.4736 107.91 32.3667C107.91 27.8301 107.472 22.7701 106.071 17.3611C105.633 15.529 105.371 13.8715 105.371 12.3883C105.371 1.91932 116.14 0 123.319 0H125.158C132.95 0.348968 142.143 4.53658 142.143 14.8311C142.143 15.529 142.056 16.227 141.968 17.0122C140.917 26.1726 126.996 25.5619 126.996 29.226C126.996 29.4877 127.084 29.7495 127.259 30.0984C127.347 30.2729 127.522 30.3602 127.784 30.3602C129.01 30.3602 131.637 28.0919 135.139 28.0919C136.365 28.0919 137.765 28.4408 139.166 29.226ZM120.167 18.5825C120.605 18.757 121.13 18.8442 121.656 18.8442C124.457 18.8442 128.485 16.5759 128.572 13.697V13.6097C128.572 11.4287 125.508 10.2945 122.794 10.2945C121.218 10.2945 119.817 10.6435 119.029 11.3414C118.416 11.8649 117.891 13.2608 117.891 14.7439C117.891 16.227 118.504 17.7973 120.167 18.5825Z" fill="#3C2211"/>
<path d="M153.256 53.5665C151.505 51.3854 147.828 44.8423 147.828 32.5412C147.828 30.0112 148.003 27.3067 148.353 24.2532C150.367 7.67728 156.846 0.174487 165.952 0.174487C166.564 0.174487 167.177 0.174487 167.79 0.261727C176.458 1.13414 178.997 5.23451 178.997 8.72418C178.997 11.167 177.771 13.4352 176.458 14.2204C176.195 14.3949 176.02 14.4821 175.757 14.4821C174.794 14.4821 174.006 13.0863 172.168 12.3883C171.642 12.1266 170.942 11.9521 170.329 11.9521C168.928 11.9521 167.527 12.6501 167.265 14.8311C167.265 15.1801 167.177 15.4418 167.177 15.7035C167.177 17.7973 168.228 18.5825 169.629 18.5825C170.417 18.5825 171.38 18.2335 172.255 17.7101C172.693 17.4484 173.043 17.3611 173.394 17.3611C175.145 17.3611 176.108 20.2401 176.108 23.1191C176.108 25.9108 175.145 28.6153 173.043 28.6153C172.693 28.6153 172.255 28.5281 171.818 28.3536C171.03 28.0046 170.329 27.9174 169.716 27.9174C167.527 27.9174 166.302 29.6622 166.302 31.6688C166.302 32.105 166.302 32.5412 166.477 32.9774C166.915 34.635 168.14 35.6819 169.979 35.6819C171.818 35.6819 174.094 34.635 176.808 32.1922C177.333 31.6688 177.946 31.4943 178.472 31.4943C181.711 31.4943 184.776 39.2588 184.776 44.7551C184.776 45.453 184.688 46.0637 184.6 46.6744C183.55 53.1303 174.532 59.4117 165.689 59.4117C161.136 59.4117 156.583 57.7541 153.256 53.5665Z" fill="#3C2211"/>
<path d="M235.305 47.7213V48.1575C235.305 54.0027 229.176 59.4117 223.135 59.4117C221.471 59.4117 219.808 58.9755 218.232 58.1031C214.467 55.8348 212.716 53.1303 212.716 49.1171C212.716 46.4999 213.504 43.1847 214.992 39.2588C215.168 38.8226 215.255 38.4736 215.255 38.0374C215.255 35.5074 212.191 33.8498 209.214 33.8498C207.113 33.8498 205.011 34.635 203.961 36.5543C203.698 36.9905 203.61 37.4267 203.61 37.9502C203.61 40.9164 206.5 45.6275 206.5 50.0768C206.5 51.211 206.237 52.3451 205.799 53.392C204.311 56.9689 200.721 59.3244 196.431 59.3244C195.818 59.3244 195.118 59.2372 194.417 59.15C194.417 59.15 186.275 58.5393 186.275 49.0299C186.275 45.802 187.15 41.7016 189.602 36.2054C200.108 12.2139 200.896 4.62382 206.587 1.30863C207.813 0.610695 209.301 0.174487 210.877 0.174487C214.642 0.174487 219.02 2.7045 221.559 9.85833C225.761 21.8977 234.78 38.4737 235.305 47.7213ZM207.988 24.8639C207.988 24.8639 208.689 25.0384 209.564 25.0384C210.965 25.0384 212.804 24.515 212.804 21.9849V21.7232C212.716 18.757 211.403 16.7504 210.002 16.7504C209.214 16.7504 208.513 17.2739 207.813 18.5825C206.937 20.3273 206.5 21.636 206.5 22.6829C206.5 23.817 207.025 24.515 207.988 24.8639Z" fill="#3C2211"/>
<path d="M239.474 44.4061C240.787 38.2992 242.1 31.4071 242.1 25.6491C242.1 21.3742 241.4 17.7973 239.474 15.6163C238.248 14.2204 236.935 13.7842 235.797 13.7842C234.221 13.7842 232.82 14.4821 231.769 14.8311C231.419 14.9184 231.069 15.0056 230.806 15.0056C228.705 15.0056 226.691 12.6501 226.691 9.50936C226.691 7.5028 227.567 5.23451 229.58 2.96623C231.682 0.697936 234.133 0.0872459 236.935 0.0872459C240.262 0.0872459 244.114 0.872423 248.667 0.959663H249.63C254.095 0.959663 257.685 0.436209 260.487 0.436209C264.164 0.436209 266.703 1.22139 268.542 4.7983C269.417 6.45589 269.855 8.11349 269.855 9.5966C269.855 12.7373 268.016 15.0928 265.915 15.0928C265.39 15.0928 264.777 14.9184 264.251 14.6566C262.938 13.9587 261.712 13.6097 260.662 13.6097C258.648 13.6097 257.16 14.9184 256.372 17.7101C256.109 18.8442 255.934 20.3273 255.934 22.0722C255.934 27.5684 257.16 35.7692 259.173 43.8826C259.786 46.4999 260.136 48.6809 260.136 50.6003C260.136 56.8817 256.634 59.4117 249.017 59.4117C241.05 59.3244 238.598 56.0093 238.598 50.862C238.598 48.9427 238.949 46.7616 239.474 44.4061Z" fill="#3C2211"/>
<path d="M273.3 53.5665C271.549 51.3854 267.872 44.8423 267.872 32.5412C267.872 30.0112 268.047 27.3067 268.397 24.2532C270.411 7.67728 276.89 0.174487 285.996 0.174487C286.608 0.174487 287.221 0.174487 287.834 0.261727C296.502 1.13414 299.041 5.23451 299.041 8.72418C299.041 11.167 297.815 13.4352 296.502 14.2204C296.239 14.3949 296.064 14.4821 295.802 14.4821C294.838 14.4821 294.05 13.0863 292.212 12.3883C291.687 12.1266 290.986 11.9521 290.373 11.9521C288.972 11.9521 287.572 12.6501 287.309 14.8311C287.309 15.1801 287.221 15.4418 287.221 15.7035C287.221 17.7973 288.272 18.5825 289.673 18.5825C290.461 18.5825 291.424 18.2335 292.299 17.7101C292.737 17.4484 293.087 17.3611 293.438 17.3611C295.189 17.3611 296.152 20.2401 296.152 23.1191C296.152 25.9108 295.189 28.6153 293.087 28.6153C292.737 28.6153 292.299 28.5281 291.862 28.3536C291.074 28.0046 290.373 27.9174 289.76 27.9174C287.572 27.9174 286.346 29.6622 286.346 31.6688C286.346 32.105 286.346 32.5412 286.521 32.9774C286.959 34.635 288.184 35.6819 290.023 35.6819C291.862 35.6819 294.138 34.635 296.852 32.1922C297.378 31.6688 297.99 31.4943 298.516 31.4943C301.755 31.4943 304.82 39.2588 304.82 44.7551C304.82 45.453 304.732 46.0637 304.644 46.6744C303.594 53.1303 294.576 59.4117 285.733 59.4117C281.18 59.4117 276.627 57.7541 273.3 53.5665Z" fill="#3C2211"/>
<path d="M37.4729 92.9438C39.7493 94.6887 41.0626 97.3059 41.0626 100.534C41.0626 104.722 38.7862 110.043 33.7957 115.627C29.3304 120.512 28.1047 125.223 28.1047 129.236C28.1047 132.115 28.7175 134.645 29.3304 136.739C29.8557 138.484 30.4686 140.578 30.4686 142.672C30.4686 146.423 28.4549 149.913 20.4875 149.913C12.4326 149.913 10.5064 146.51 10.5064 142.846C10.5064 140.752 11.1193 138.484 11.6446 136.739C12.2575 134.645 12.9579 132.115 12.9579 129.236C12.9579 125.223 11.6446 120.512 7.26694 115.627C2.27639 110.043 0 104.721 0 100.447C0 97.2187 1.22575 94.6887 3.50214 92.9438C5.60342 91.3735 8.14248 90.6756 10.5064 90.6756C14.0961 90.6756 17.4231 92.3332 17.8609 95.0377C17.9485 95.3866 17.9485 95.7356 17.9485 96.0846C17.9485 98.9635 16.1098 101.319 15.5845 103.064C15.2343 104.024 15.1468 104.896 15.1468 105.594V106.292C15.497 109.433 17.9485 111.09 20.4875 111.09C23.0266 111.09 25.5656 109.433 25.8283 106.292V105.594C25.8283 104.809 25.7407 104.024 25.4781 103.064C24.9527 101.406 23.1141 98.9635 23.1141 96.1718C23.1141 95.8228 23.1141 95.3866 23.2017 95.0377C23.6394 92.3332 26.8789 90.6756 30.5562 90.6756C32.9201 90.6756 35.4592 91.3735 37.4729 92.9438Z" fill="#3C2211"/>
<path d="M77.0868 100.272C79.5383 103.762 84.3537 113.446 84.3537 124.438C84.3537 128.102 83.8284 131.941 82.5151 135.692C79.1005 145.289 70.0825 149.913 61.152 149.913C51.346 149.913 41.6276 144.329 39.8765 133.773C39.2636 130.283 39.001 127.055 39.001 124.089C39.001 110.916 43.9915 102.104 47.7563 97.9166C52.4842 92.7694 57.2121 90.6756 61.6773 90.6756C67.7185 90.6756 73.1469 94.6015 77.0868 100.272ZM67.8061 120.948C68.5065 119.465 68.8567 117.633 68.8567 115.888C68.8567 110.131 65.4421 103.936 61.4147 103.936H61.3271C57.2997 104.024 53.71 111.265 53.71 117.197C53.71 118.942 54.0602 120.6 54.7606 121.908C56.1615 124.438 58.4379 125.834 60.8894 125.834C63.4284 125.834 66.1426 124.264 67.8061 120.948Z" fill="#3C2211"/>
<path d="M91.0679 138.048C88.8791 133.25 86.6903 125.834 86.6903 116.237C86.6903 112.922 86.9529 109.345 87.5658 105.594C88.8791 96.1718 91.4182 90.6756 97.1091 90.6756C98.0722 90.6756 99.0353 90.7628 100.174 91.1118C105.252 92.5949 107.09 95.6484 107.09 100.01C107.09 102.453 106.477 105.245 105.689 108.298C104.901 111.439 104.464 114.231 104.464 116.586C104.464 121.21 106.215 123.915 110.33 123.915C113.482 123.915 115.495 122.083 115.495 117.197C115.495 115.103 115.145 112.486 114.357 109.171C113.569 105.768 112.956 102.628 112.956 100.01C112.956 95.7356 114.532 92.5949 119.348 91.1118C120.223 90.85 121.011 90.7628 121.887 90.7628C126.79 90.7628 131.08 95.2121 132.656 105.507C133.181 109.345 133.531 113.009 133.531 116.412C133.531 126.881 130.992 135.692 126.177 141.887C123.025 145.987 117.159 149.913 110.155 149.913H109.454C102.012 149.564 95.0954 146.772 91.0679 138.048Z" fill="#3C2211"/>
<path d="M169.605 119.727C172.494 121.123 175.296 125.834 175.558 135.692C175.646 138.746 176.697 141.887 176.697 144.417C176.697 147.644 175.033 149.826 167.679 149.826H166.716C161.725 149.651 158.748 148.342 158.31 145.114C158.223 144.766 158.223 144.417 158.223 143.98C158.223 140.142 160.499 136.041 160.499 132.203C160.499 131.418 160.412 130.632 160.149 129.847C159.799 128.713 158.398 127.928 157.085 127.928C155.771 127.928 154.633 128.713 154.633 130.807C154.633 131.156 154.633 131.592 154.721 132.028C155.509 136.478 156.647 140.403 156.647 143.37C156.647 147.557 154.633 150 147.104 150C137.91 150 135.809 147.034 135.809 143.282C135.809 141.45 136.247 139.444 136.685 137.524C137.473 134.122 138.348 128.975 138.348 122.868C138.348 118.331 137.91 113.271 136.51 107.862C136.072 106.03 135.809 104.373 135.809 102.889C135.809 92.4204 146.578 90.5011 153.758 90.5011H155.596C163.389 90.85 172.582 95.0377 172.582 105.332C172.582 106.03 172.494 106.728 172.407 107.513C171.356 116.674 157.435 116.063 157.435 119.727C157.435 119.989 157.522 120.251 157.698 120.6C157.785 120.774 157.96 120.861 158.223 120.861C159.449 120.861 162.075 118.593 165.577 118.593C166.803 118.593 168.204 118.942 169.605 119.727ZM150.606 109.084C151.043 109.258 151.569 109.345 152.094 109.345C154.896 109.345 158.923 107.077 159.011 104.198V104.111C159.011 101.93 155.946 100.796 153.232 100.796C151.656 100.796 150.255 101.145 149.468 101.843C148.855 102.366 148.329 103.762 148.329 105.245C148.329 106.728 148.942 108.298 150.606 109.084Z" fill="#3C2211"/>
<path d="M200.617 139.967C199.567 137.437 199.129 134.907 199.129 132.726C199.129 128.19 200.967 124.613 203.506 123.217C204.907 122.432 206.221 122.083 207.359 122.083C210.161 122.083 212.087 124.002 212.087 125.049C212.087 125.311 211.912 125.485 211.737 125.66C210.773 126.27 210.336 127.23 210.336 128.19C210.336 129.585 211.386 131.069 213.05 131.33C213.4 131.417 213.663 131.417 213.925 131.417C216.464 131.417 217.953 129.411 217.953 127.143C217.953 126.357 217.778 125.485 217.34 124.7C215.151 120.948 206.221 117.11 202.719 111.701C201.318 109.52 200.705 107.077 200.705 104.722C200.705 98.0911 205.783 91.548 213.488 90.5011C214.276 90.4138 215.239 90.3266 216.202 90.3266C221.98 90.3266 230.648 92.4204 230.648 101.843V102.279C230.473 106.903 227.584 108.735 225.307 108.735C223.731 108.735 222.418 107.862 222.418 106.379V105.419C222.418 103.151 220.755 102.104 219.091 102.104C217.34 102.104 215.501 103.238 215.501 105.332C215.501 105.856 215.676 106.466 215.939 107.164C217.427 110.828 224.082 114.318 229.16 118.418C234.15 122.432 236.339 127.492 236.339 132.377C236.339 140.84 229.685 148.691 218.566 149.651C217.865 149.738 217.165 149.738 216.552 149.738C208.059 149.738 202.806 145.114 200.617 139.967Z" fill="#3C2211"/>
<path d="M276.818 100.272C279.27 103.762 284.085 113.446 284.085 124.438C284.085 128.102 283.56 131.941 282.246 135.692C278.832 145.289 269.814 149.913 260.883 149.913C251.077 149.913 241.359 144.329 239.608 133.773C238.995 130.283 238.732 127.055 238.732 124.089C238.732 110.916 243.723 102.104 247.488 97.9166C252.216 92.7694 256.944 90.6756 261.409 90.6756C267.45 90.6756 272.878 94.6015 276.818 100.272ZM267.538 120.948C268.238 119.465 268.588 117.633 268.588 115.888C268.588 110.131 265.174 103.936 261.146 103.936H261.059C257.031 104.024 253.441 111.265 253.441 117.197C253.441 118.942 253.792 120.6 254.492 121.908C255.893 124.438 258.169 125.834 260.621 125.834C263.16 125.834 265.874 124.264 267.538 120.948Z" fill="#3C2211"/>
<path d="M285.416 135.518C286.029 131.243 286.379 126.706 286.379 121.734C286.379 116.848 286.029 111.526 285.241 105.681C284.978 103.675 284.803 101.843 284.803 100.272C284.803 94.1652 287.08 91.8969 292.245 91.8969C293.471 91.8969 294.872 91.9842 296.36 92.2459C304.503 93.3801 306.954 109.956 311.244 113.969C311.507 114.231 311.682 114.318 311.945 114.318C312.47 114.318 312.82 113.271 312.82 111.614C312.82 109.084 312.12 104.983 310.807 101.232C310.544 100.447 310.019 98.9635 310.019 97.4804C310.019 94.427 311.857 90.9373 320.525 90.6756H321.05C326.129 90.6756 329.018 92.5949 329.018 98.7018C329.018 100.185 328.843 101.93 328.493 104.024C327.354 109.869 326.917 117.197 326.917 123.304C326.917 127.928 327.179 131.854 327.617 133.948C328.23 136.914 329.105 140.054 329.105 142.672C329.105 146.598 327.179 149.651 319.562 149.826H318.599C310.719 149.826 309.931 146.51 309.931 140.752V133.86C309.581 121.559 301.439 115.278 299.775 115.278C299.6 115.278 299.512 115.365 299.512 115.452V115.888C299.512 118.506 301.701 131.592 303.014 135.867C303.715 138.31 304.24 140.578 304.24 142.497C304.24 146.859 301.789 149.738 293.646 149.826H293.384C286.379 149.826 284.716 147.034 284.716 142.672C284.716 140.578 285.066 138.135 285.416 135.518Z" fill="#3C2211"/>
<path d="M331.941 135.256C331.153 132.377 330.365 127.753 330.365 122.17C330.365 118.244 330.803 113.795 331.941 109.171C334.918 97.6549 343.673 90.5883 352.516 90.5883C355.756 90.5883 359.083 91.548 362.06 93.6418C364.511 95.3866 365.562 98.2656 365.562 100.796C365.562 103.849 364.161 106.554 362.235 106.554C361.797 106.554 361.184 106.379 360.659 105.943C359.433 105.07 356.894 103.675 354.355 103.675C350.765 103.675 347.088 106.292 346.65 116.412V117.808C346.65 125.485 350.065 128.102 353.217 128.102C355.231 128.102 357.157 127.143 358.12 125.66C358.733 124.7 359.083 123.478 359.083 122.432C359.083 120.861 358.47 119.64 357.244 119.64C356.631 119.64 355.756 120.076 354.705 120.948C354.092 121.472 353.567 121.734 353.042 121.734C351.816 121.734 350.853 120.425 350.853 118.68C350.853 117.721 351.116 116.586 351.816 115.452C353.742 112.312 357.244 110.916 360.746 110.916C364.774 110.916 368.626 112.835 369.414 115.714C369.502 116.15 369.589 116.586 369.589 116.935C369.589 119.902 365.824 119.814 365.824 120.076C368.013 121.559 369.589 125.834 369.589 130.632C369.589 134.209 368.714 138.048 366.613 141.45C364.861 144.417 359.783 149.913 349.802 149.913C342.885 149.913 334.568 145.289 331.941 135.256Z" fill="#3C2211"/>
<path d="M344.648 45.2204C344.683 45.1104 344.726 45.0514 344.76 44.9414C346.964 39.1574 343.61 33.2214 338.131 30.9681C336.398 30.2543 334.801 29.4142 333.402 28.1769C332.365 27.2469 331.668 26.1578 330.733 25.2115C329.09 23.4388 326.448 24.5417 326.578 26.9749C326.699 29.3573 327.354 31.8106 327.73 34.1521C328.449 38.6314 329.176 43.1616 329.895 47.6409C330.271 49.9824 330.639 52.273 331.015 54.6144C326.556 53.1894 321.233 54.8272 317.942 58.0706C315.103 60.8759 313.6 65.503 316.581 68.7839C322.626 75.541 337.904 68.9113 336.12 59.7472C336.112 59.6963 336.095 59.5945 336.087 59.5436C335.278 54.5043 334.478 49.516 333.669 44.4767C333.562 43.815 333.405 43.1615 333.35 42.4916C333.188 39.8548 335.75 37.9292 338.182 39.4185C339.457 40.2058 340.152 41.6084 340.534 43.0091C340.707 43.7645 340.659 44.7643 341.13 45.4197C342.028 46.7896 343.81 46.5037 344.665 45.3222C344.606 45.2795 344.597 45.2286 344.648 45.2204Z" fill="#FFD7E9"/>
<path d="M347.337 1.1511C345.296 -0.850512 342.615 1.66066 344.147 3.9328C346.795 7.9511 350.217 11.62 353.221 15.4232C356.032 18.9836 358.812 22.5036 361.623 26.064C358.267 27.1377 355.535 30.0834 354.588 33.459C353.747 36.5534 354.512 40.3505 357.822 41.547C364.795 44.0548 372.168 34.0936 368.479 28.0075C368.456 27.8946 368.392 27.8137 368.36 27.7733C362.098 19.8433 355.803 11.8728 349.541 3.94278C348.806 3.01222 348.161 1.94535 347.337 1.1511Z" fill="#FFB884"/>
<path d="M43.7907 37.5435C43.7368 37.4556 43.656 37.3237 43.5582 37.2627C43.9594 37.6216 43.5043 37.1748 43.4406 36.972C43.1444 36.4885 42.8212 35.9609 42.525 35.4774C41.5825 33.9387 40.64 32.4001 39.6975 30.8615C37.4624 27.2127 35.2273 23.564 32.9922 19.9152C31.8073 17.981 30.6224 16.0467 29.4645 14.1564C27.8757 11.5627 25.9439 8.21174 22.5545 10.7716C16.5034 15.2038 10.7654 20.0487 4.91979 24.7178C3.25204 26.0417 0.0939894 27.7948 0.00123647 30.2095C-0.0459453 31.8102 1.26805 33.3632 2.07592 34.682C2.77607 35.825 3.4493 36.924 4.14945 38.067C7.56943 43.65 10.9894 49.233 14.4094 54.8161C9.53019 55.9307 4.88967 60.8893 6.078 66.0862C7.43067 71.8473 14.5728 70.6765 18.0374 67.6473C20.0371 65.8783 21.6229 63.335 21.7568 60.5929C21.7997 59.4784 21.5858 58.3398 21.0643 57.3897C20.8489 57.038 20.5895 56.7133 20.3301 56.3885C20.3301 56.3885 20.2493 56.2566 20.2224 56.2127C18.5187 53.6289 16.9909 50.9374 15.3751 48.2997C13.4093 45.0906 11.4435 41.8814 9.50462 38.7162C8.91219 37.7491 8.17084 36.9336 8.91978 35.6889C9.30277 35.0311 10.4996 34.4189 11.1052 33.927C14.2648 31.387 17.4074 28.9178 20.5671 26.3777C22.6475 24.7406 24.7153 22.688 26.9573 21.3146C28.6718 20.2644 29.3335 22.0355 30.0337 23.1785C31.1108 24.9369 32.2149 26.7393 33.2921 28.4977C34.8001 30.9595 36.2812 33.3774 37.7892 35.8392C34.1706 36.5444 31.0307 39.3142 29.7807 42.8004C28.6868 45.9493 29.4997 49.7437 32.959 50.9498C39.8068 53.3448 48.5065 43.6628 43.7907 37.5435Z" fill="#E78542"/>
</svg>
