<svg width="24" height="25" viewBox="0 0 24 25" fill="none" xmlns="http://www.w3.org/2000/svg">
<g clip-path="url(#clip0_100_639)">
<path d="M20 5.7439C20.2652 5.7439 20.5196 5.84925 20.7071 6.03679C20.8946 6.22433 21 6.47868 21 6.7439C21 7.00911 20.8946 7.26347 20.7071 7.451C20.5196 7.63854 20.2652 7.7439 20 7.7439H19L18.997 7.8149L18.064 20.8859C18.0281 21.3905 17.8023 21.8627 17.4321 22.2075C17.0619 22.5522 16.5749 22.7439 16.069 22.7439H7.93C7.42414 22.7439 6.93707 22.5522 6.56688 22.2075C6.1967 21.8627 5.97092 21.3905 5.935 20.8859L5.002 7.8159C5.00048 7.79193 4.99982 7.76791 5 7.7439H4C3.73478 7.7439 3.48043 7.63854 3.29289 7.451C3.10536 7.26347 3 7.00911 3 6.7439C3 6.47868 3.10536 6.22433 3.29289 6.03679C3.48043 5.84925 3.73478 5.7439 4 5.7439H20ZM16.997 7.7439H7.003L7.931 20.7439H16.069L16.997 7.7439ZM14 2.7439C14.2652 2.7439 14.5196 2.84925 14.7071 3.03679C14.8946 3.22433 15 3.47868 15 3.7439C15 4.00911 14.8946 4.26347 14.7071 4.451C14.5196 4.63854 14.2652 4.7439 14 4.7439H10C9.73478 4.7439 9.48043 4.63854 9.29289 4.451C9.10536 4.26347 9 4.00911 9 3.7439C9 3.47868 9.10536 3.22433 9.29289 3.03679C9.48043 2.84925 9.73478 2.7439 10 2.7439H14Z" fill="white"/>
</g>
<defs>
<clipPath id="clip0_100_639">
<rect width="24" height="24" fill="white" transform="translate(0 0.743896)"/>
</clipPath>
</defs>
</svg>
