<svg width="14" height="17" viewBox="0 0 14 17" fill="none" xmlns="http://www.w3.org/2000/svg">
<path d="M11.4379 8.21273C10.5839 9.08008 9.7451 9.94742 8.83007 10.8148C9.05882 8.76468 8.83007 6.63574 8.83007 4.62507C8.83007 4.42794 8.83007 4.22294 8.83007 4.0337C8.83007 2.29112 8.83007 0.895476 8.83007 0.895476C8.83007 0.453918 8.48693 0.0990942 8.05991 0.0990942C8.05991 0.0990942 7.93028 0.0990942 7.73203 0.0990942C3.94989 -0.768253 5.62745 4.27813 5.16993 6.65939C5.16993 6.89594 5.16993 7.14037 5.16993 7.37692C5.16993 8.57544 5.16993 9.78972 5.16993 10.9725C4.17865 10.1051 3.49237 9.00123 2.34858 8.21273C1.58606 7.66078 1.05229 8.92238 0.43464 9.40336C0.312636 9.53741 0.228758 9.62414 0.228758 9.62414C-0.0762527 9.93954 -0.0762527 10.4442 0.228758 10.7517C0.228758 10.7517 0.457516 10.9882 0.831155 11.3746C1.01416 11.5638 1.23529 11.7925 1.4793 12.0448C1.74619 12.3208 2.0512 12.6362 2.26471 12.857C2.40196 12.9989 2.54684 13.1487 2.6841 13.2907C2.81373 13.4247 2.95098 13.5666 3.08061 13.7007C3.21024 13.8347 3.34749 13.9766 3.47712 14.1107C4.86492 15.1515 6.16122 17.8324 7.91503 16.7285C9.28758 15.8612 10.2789 14.4419 11.3159 13.2907C11.4608 13.1408 11.598 12.9989 11.7353 12.857C12.841 11.7137 13.7712 10.7517 13.7712 10.7517C14.0763 10.4363 14.0763 9.93165 13.7712 9.62414C13.7712 9.62414 13.4357 9.2772 13.1078 8.92238C12.7113 8.60698 12.5588 8.05503 11.9488 7.98407C11.7658 7.98407 11.5828 8.05503 11.4379 8.21273Z" fill="white"/>
</svg>
