<svg width="793" height="994" viewBox="0 0 793 994" fill="none" xmlns="http://www.w3.org/2000/svg">
<path d="M521.838 186.5C612.838 223 732.838 196.5 789.338 0V393C693.337 319.5 646.838 400.5 580.838 466.5C514.838 532.5 391.838 417.5 366.838 533C341.838 648.5 521.838 562.5 580.838 653.5C639.838 744.5 543.838 778.5 443.338 815.5C342.838 852.5 435.838 980 288.338 992.5C140.838 1005 155.837 840 99.3385 815.5C42.8401 791 -23.6615 766.5 8.33847 697.5C40.3385 628.5 121.337 670.5 155.837 587C190.337 503.5 77.3368 491 121.337 417.5C165.337 344 425.838 366 391.838 287.5C357.838 209 430.838 150 521.838 186.5Z" fill="#E78542"/>
<path d="M529.501 211.5C621.501 235 689.501 222 790.001 85.5V372C780.667 356.333 747.799 335.4 690.999 349C619.999 366 599.499 440.5 548.499 464C497.499 487.5 464.499 448.5 401.499 464C338.499 479.5 340.999 546.5 345.499 574.5C349.999 602.5 387.499 621.5 449.499 622.5C511.499 623.5 574.999 649.5 578.499 700.5C581.999 751.5 482.499 780 420.999 801.5C359.499 823 372.499 889 357.999 927.5C343.499 966 283.499 985 232.499 962C181.499 939 174.499 899 156.001 849.5C133.204 788.5 90.4998 790 50.9998 770.5C11.4998 751 23.4998 709.5 47.9998 683.5C72.4998 657.5 118.5 663 145.001 634.5C171.501 606 206.738 554.953 145.001 483.5C90.9991 421 199.999 382 299.999 371C371.169 363.171 427.001 333.5 414.001 282C401.001 230.5 437.501 188 529.501 211.5Z" fill="#FD9852"/>
<path d="M529.5 230C652.5 251.5 695.5 217 791 116.5V350.5C697 285 629.219 350.5 579.5 415C542.5 463 514 448.5 458 441.5C402 434.5 379.5 439 350 468.5C303.5 515 322.5 591 350 620.5C377.5 650 443.5 642 497 648C550.5 654 564 711.5 520 744C476 776.5 436.5 773.5 388.5 797.5C340.5 821.5 364.5 864.5 332.5 919.5C300.5 974.5 233 942 199.5 900.5C166 859 178 782 128 773.5C78 765 53.9998 752 51.4998 730.5C48.9998 709 70.4998 691 104 680.5C137.5 670 193.5 631.5 199.5 565.5C205.5 499.5 169.5 487 162.5 448.5C155.5 410 244 395 312 386.5C380 378 420.846 356.778 433 317C444 281 406.5 208.5 529.5 230Z" fill="#FFD7E9"/>
<path d="M128.903 645.003C128.903 641.008 124.908 638.799 112.41 639.839C109.584 640.07 104.626 641.124 100.554 642.254C104.215 640.16 108.453 637.373 110.624 635.536C120.194 627.431 121.414 622.986 118.704 620.276C115.878 617.45 111.485 618.709 103.38 628.291C101.543 630.462 98.7811 634.701 96.7002 638.375C97.8177 634.303 98.8324 629.332 99.0637 626.506C100.117 613.995 97.8305 610 94.0027 610C90.0079 610 87.7986 613.995 88.839 626.493C89.0702 629.319 90.1235 634.277 91.2539 638.349C89.1601 634.688 86.3728 630.449 84.5359 628.278C76.4307 618.709 71.9863 617.489 69.276 620.199C66.4501 623.025 67.7089 627.418 77.2913 635.523C79.4621 637.36 83.701 640.122 87.3747 642.202C83.3028 641.085 78.3318 640.07 75.5059 639.839C62.9948 638.799 59 641.072 59 644.9C59 648.895 62.9948 651.104 75.493 650.064C78.3189 649.832 83.2771 648.779 87.349 647.649C83.6882 649.743 79.4493 652.53 77.2785 654.367C67.7089 662.472 66.4887 666.916 69.199 669.627C72.0249 672.453 76.4179 671.194 84.5231 661.611C86.3599 659.441 89.1216 655.202 91.2025 651.528C90.085 655.6 89.0702 660.571 88.839 663.397C87.7986 675.895 90.085 679.89 93.9128 679.89C97.9076 679.89 100.117 675.895 99.0765 663.397C98.8453 660.571 97.792 655.613 96.6616 651.541C98.7554 655.202 101.543 659.441 103.38 661.611C111.485 671.181 115.929 672.401 118.639 669.691C121.465 666.865 120.207 662.472 110.624 654.367C108.453 652.53 104.215 649.768 100.541 647.687C104.613 648.805 109.584 649.82 112.41 650.051C124.908 651.117 128.903 648.831 128.903 645.003ZM93.9513 644.951C93.9642 644.938 93.9642 644.951 93.9642 644.951C93.9642 644.964 93.9513 644.964 93.9513 644.951C93.9513 644.964 93.9513 644.964 93.9513 644.951Z" fill="#3C2211"/>
<path d="M93.9519 654.668C99.3183 654.668 103.669 650.318 103.669 644.951C103.669 639.585 99.3183 635.235 93.9519 635.235C88.5856 635.235 84.2354 639.585 84.2354 644.951C84.2354 650.318 88.5856 654.668 93.9519 654.668Z" fill="white"/>
<path d="M541 250C643.5 261 699.5 240 792.5 153V323C782.667 314.167 749.8 298.7 697 307.5C631 318.5 607 358 570.5 401.5C534 445 499 429.5 461 422.5C423 415.5 396.5 418.5 350.5 445C304.5 471.5 307 550.5 307 571.5C307 592.5 307 664 420.5 661C534 658 521.5 688 521.5 702C521.5 716 511.5 730 455.5 755C399.5 780 377 776 350.5 804.5C324 833 328 892.5 307 913.5C286 934.5 248 915 214 874.5C180 834 190.5 812.5 173.5 776C156.5 739.5 89.4999 762 82.4999 730C75.4999 698 114.5 699 154 672.5C193.5 646 203 617.5 214 588C225 558.5 220 502.5 203 478.5C186 454.5 182 448 203 429.5C224 411 281.5 407 328 401.5C374.5 396 450 369.5 455.5 323C461 276.5 438.5 239 541 250Z" fill="#FFC1DD"/>
<path d="M172.501 700.5C201.001 687 227.001 623 259.001 623C268.834 623 291.9 628.7 305.5 651.5C322.5 680 344 677.5 396.5 688C449 698.5 423.5 742.5 389.5 749C355.5 755.5 311 784.5 305.5 825.5C300 866.5 276 872 239.5 841.5C203 811 227.001 759.5 196.501 749C166.001 738.5 144.001 714 172.501 700.5Z" fill="#FFF2E9"/>
<path d="M228.999 451.5C236.499 430 307.999 422.5 318.499 434C329.999 446.5 304 451.5 298 492.5C292 533.5 258.499 547 256.499 526.5C254.499 506 221.499 473 228.999 451.5Z" fill="#FFF2E9"/>
<path d="M492.5 285C503.5 274 614.499 267.999 614.499 294.5C614.499 330.5 584.064 335.5 572 357.5C555 388.5 543.499 394 509.999 395C476.499 396 456.476 375.431 471.999 357.5C501 324 481.5 296 492.5 285Z" fill="#FFF2E9"/>
</svg>
