<svg width="808" height="1035" viewBox="0 0 808 1035" fill="none" xmlns="http://www.w3.org/2000/svg">
<path d="M333.298 319.615C182.794 379.27 4.92578 154.882 4.92578 0V734.458C91.9443 674.804 182.794 698.338 196.476 871.827C210.158 1045.32 356.284 1063.38 424.695 1003.72C493.105 944.069 497.484 784.809 652.913 794.113C808.342 803.417 858.145 638.683 748.688 575.198C639.231 511.713 776.052 378.722 703.263 296.629C630.474 214.536 523.753 244.126 333.298 319.615Z" fill="#E78542"/>
<path d="M384.195 336.034C256.677 399.519 144.483 366.135 0.546875 129.16V706.547C48.1608 640.873 204.685 635.947 224.934 792.471C245.184 948.995 291.703 988.399 342.054 988.399C392.404 988.399 426.548 965.413 449.869 895.908C490.267 775.505 564.252 757.445 661.669 757.445C783.273 757.445 760.181 631.021 719.681 598.184C679.182 565.347 656.743 522.659 674.257 452.059C691.77 381.459 698.337 343.696 650.176 305.933C602.015 268.17 521.18 267.835 384.195 336.034Z" fill="#FD9852"/>
<path d="M324.541 382.006C205.78 415.938 134.632 349.716 0 191.55V681.919C130.801 569.178 230.955 686.297 241.353 750.877C251.752 815.457 265.981 888.246 298.271 935.313C330.561 982.379 395.141 955.562 419.769 911.779C444.397 867.996 431.809 820.93 510.618 764.012C589.428 707.094 677.541 755.255 711.472 705.452C745.404 655.649 681.919 607.488 655.649 570.82C629.38 534.152 639.231 508.976 655.649 421.411C672.068 333.845 635.4 312.501 562.063 308.122C488.727 303.744 443.302 348.074 324.541 382.006Z" fill="#FFD7E9"/>
<path d="M327.277 409.37C219.313 440.202 122.939 370.294 0.546875 226.577V657.838C119.456 555.397 252.697 658.812 262.15 717.493C271.603 776.173 284.788 855.878 314.142 898.644C343.496 941.411 385.887 926.935 408.275 887.151C430.664 847.368 419.271 796.575 490.916 744.857C562.56 693.139 648.335 734.835 679.182 689.581C710.029 644.328 642.315 602.496 618.433 569.178C594.552 535.86 603.507 516.301 618.433 436.735C633.359 357.168 619.975 340.012 553.306 336.034C486.637 332.056 435.241 378.538 327.277 409.37Z" fill="#FFC1DD"/>
<path d="M309.449 441.712C207.376 470.866 116.261 404.763 0.546875 268.87V632.173C112.968 535.308 286.778 614.603 286.778 718.04C286.778 774.241 296.241 836.862 323.993 877.3C344.275 906.854 372.879 900.688 394.046 863.071C415.213 825.453 416.066 774.057 483.801 725.155C551.536 676.252 634.547 709.376 654.007 680.825C683.171 638.035 613.647 603.323 591.069 571.819C568.491 540.314 576.958 521.821 591.069 446.586C605.18 371.351 581.218 366.135 539.624 366.135C476.481 366.135 411.522 412.559 309.449 441.712Z" fill="#FFF2E9"/>
<path d="M747.66 323.17C763.793 323.071 770.729 312.019 769.293 302.625C767.881 293.218 757.967 284.625 742.498 289.115C737.44 290.583 732.426 293.37 727.981 296.455C731.574 292.415 734.92 287.811 736.966 282.983C743.277 268.255 735.801 257.513 726.55 255.035C717.299 252.556 705.473 258.126 703.515 274.02C702.874 279.224 703.47 284.885 704.561 290.179C702.254 285.285 699.305 280.364 695.659 276.564C684.527 264.947 671.664 267.437 665.738 274.878C659.792 282.314 660.278 295.334 674.2 303.486C679.823 306.778 686.83 308.655 693.266 309.695C687.167 310.676 680.679 312.404 675.378 315.405C661.371 323.338 660.789 336.363 666.657 343.892C672.526 351.422 685.379 354.119 696.621 342.684C701.914 337.294 705.772 329.61 708.386 322.9C707.295 330.018 706.774 338.596 708.683 345.916C712.702 361.44 725.181 365.531 734.028 361.944C742.875 358.358 748.864 346.782 740.714 332.932C737.624 327.683 732.85 322.938 728.078 319.044C734.138 321.332 741.144 323.209 747.66 323.17Z" fill="#3C2211"/>
<path d="M738.019 318.285C749.664 318.214 754.671 310.236 753.634 303.455C752.615 296.665 745.459 290.462 734.293 293.703C730.642 294.763 727.023 296.774 723.814 299.001C726.407 296.085 728.823 292.762 730.3 289.277C734.855 278.646 729.458 270.892 722.781 269.103C716.103 267.313 707.567 271.334 706.154 282.807C705.691 286.564 706.121 290.649 706.909 294.471C705.243 290.939 703.115 287.387 700.482 284.644C692.447 276.258 683.162 278.055 678.885 283.426C674.593 288.794 674.943 298.192 684.993 304.077C689.052 306.453 694.109 307.808 698.755 308.558C694.353 309.267 689.67 310.514 685.843 312.68C675.733 318.406 675.312 327.808 679.548 333.243C683.784 338.678 693.062 340.625 701.177 332.371C704.998 328.481 707.783 322.934 709.67 318.09C708.882 323.228 708.506 329.421 709.884 334.704C712.785 345.91 721.793 348.863 728.179 346.274C734.565 343.685 738.888 335.329 733.005 325.332C730.774 321.543 727.328 318.117 723.884 315.307C728.258 316.958 733.316 318.313 738.019 318.285Z" fill="#644A39"/>
<path d="M708.753 321.268C717.16 323.521 725.788 318.584 728.023 310.241C730.259 301.898 725.255 293.309 716.848 291.056C708.441 288.803 699.813 293.74 697.577 302.083C695.342 310.426 700.345 319.015 708.753 321.268Z" fill="white"/>
</svg>
