<svg width="489" height="154" viewBox="0 0 489 154" fill="none" xmlns="http://www.w3.org/2000/svg">
<path d="M88.6373 68.0487C80.0422 113.173 25.9645 144.151 0 154H488.848C413.641 154 394.839 41.1889 327.689 68.0487C260.54 94.9085 260.54 41.1889 201.448 11.6432C142.357 -17.9026 99.3812 11.6432 88.6373 68.0487Z" fill="#E78542"/>
<path d="M111.75 90.2877C104.429 123.737 58.3743 146.7 36.2617 154H452.588C388.538 154 372.526 70.3776 315.338 90.2877C258.15 110.198 258.15 70.3776 207.825 48.4765C157.5 26.5755 120.9 48.4765 111.75 90.2877Z" fill="#FD9852"/>
<path d="M130.58 109.776C124.299 132.994 84.7807 148.933 65.8066 154H423.042C368.082 154 354.343 95.9563 305.272 109.776C256.201 123.596 256.201 95.9563 213.019 80.7543C169.837 65.5524 138.431 80.7543 130.58 109.776Z" fill="#FFD7E9"/>
<path d="M153.692 125.517C148.686 140.471 117.191 150.736 102.068 154H386.782C342.98 154 332.029 116.616 292.92 125.517C253.811 134.418 253.811 116.616 219.395 106.825C184.979 97.0337 159.95 106.825 153.692 125.517Z" fill="#FFC1DD"/>
</svg>
