<svg width="416" height="203" viewBox="0 0 416 203" fill="none" xmlns="http://www.w3.org/2000/svg">
<path d="M328.065 121.959C311.831 157.077 379.924 190.619 416 203L0 203C98.0813 172.609 94.6992 88.1913 94.6992 51.0473C94.6992 13.9033 152.195 -19.864 182.634 13.9033C213.073 47.6705 243.512 54.424 287.48 51.0473C331.447 47.6706 348.358 78.0611 328.065 121.959Z" fill="#E78542"/>
<path d="M303.735 131.54C289.413 162.506 359.486 192.082 391.312 203L31.7678 203C118.296 176.202 115.313 101.765 115.313 69.0121C115.313 36.2595 150.459 16.2249 177.313 46C204.166 75.7751 239.142 71.9896 277.93 69.0121C316.719 66.0346 321.638 92.8322 303.735 131.54Z" fill="#FD9852"/>
<path d="M282.329 148.433C271.374 172.079 324.97 194.663 349.312 203L74.3125 203C140.494 182.537 138.212 125.696 138.212 100.686C138.212 75.6765 165.094 60.378 185.633 83.1144C206.172 105.851 232.924 102.96 262.591 100.687C292.259 98.4129 296.021 118.876 282.329 148.433Z" fill="#FFC1DD"/>
<path d="M271.559 156.764C262.278 176.799 307.688 195.936 328.312 203L95.3125 203C151.387 185.661 149.453 137.499 149.453 116.307C149.453 95.1152 172.229 82.1524 189.632 101.418C207.034 120.683 229.7 118.233 254.836 116.307C279.973 114.38 283.16 131.719 271.559 156.764Z" fill="#FFD7E9"/>
<path d="M251.045 172.592C244.951 185.769 274.769 198.354 288.312 203L135.312 203C172.134 191.597 170.864 159.922 170.864 145.986C170.864 132.049 185.82 123.524 197.247 136.193C208.675 148.863 223.558 147.253 240.064 145.986C256.57 144.719 258.663 156.121 251.045 172.592Z" fill="#FFF2E9"/>
</svg>
