<svg width="32" height="32" viewBox="0 0 32 32" fill="none" xmlns="http://www.w3.org/2000/svg">
<g clip-path="url(#clip0_283_321)">
<path d="M16.4199 13.0909V19.2874H24.7184C24.354 21.2801 23.2605 22.9674 21.6205 24.102L26.6248 28.1311C29.5405 25.3385 31.2226 21.2366 31.2226 16.3638C31.2226 15.2293 31.1245 14.1383 30.9423 13.0911L16.4199 13.0909Z" fill="#4285F4"/>
<path d="M7.7781 19.0454L6.64944 19.9419L2.6543 23.171C5.19151 28.3928 10.3917 32.0001 16.4193 32.0001C20.5825 32.0001 24.0729 30.5747 26.6242 28.1311L21.6199 24.1019C20.2461 25.0619 18.4939 25.6438 16.4193 25.6438C12.4103 25.6438 9.00405 22.8365 7.78441 19.0546L7.7781 19.0454Z" fill="#34A853"/>
<path d="M2.65398 8.8291C1.6027 10.9818 1 13.4109 1 16C1 18.589 1.6027 21.0182 2.65398 23.1708C2.65398 23.1853 7.78459 19.0399 7.78459 19.0399C7.4762 18.0799 7.29391 17.0618 7.29391 15.9998C7.29391 14.9378 7.4762 13.9197 7.78459 12.9597L2.65398 8.8291Z" fill="#FBBC05"/>
<path d="M16.4197 6.37094C18.6906 6.37094 20.7091 7.18547 22.3212 8.75641L26.7367 4.17462C24.0593 1.58556 20.583 0 16.4197 0C10.3921 0 5.19151 3.59274 2.6543 8.82915L7.78474 12.9601C9.00422 9.17821 12.4106 6.37094 16.4197 6.37094Z" fill="#EA4335"/>
</g>
<defs>
<clipPath id="clip0_283_321">
<rect width="32" height="32" fill="white"/>
</clipPath>
</defs>
</svg>
