<svg width="136" height="132" viewBox="0 0 136 132" fill="none" xmlns="http://www.w3.org/2000/svg">
<path d="M102.636 83.4381C118.98 83.3384 126.006 72.1418 124.551 62.6259C123.121 53.0955 113.078 44.3906 97.4069 48.9392C92.283 50.426 87.2036 53.2495 82.7002 56.3746C86.3397 52.2821 89.7297 47.618 91.803 42.7274C98.1954 27.8072 90.6218 16.9252 81.2503 14.4141C71.8788 11.903 59.8987 17.5457 57.9152 33.6472C57.2655 38.9193 57.8692 44.6534 58.9749 50.0174C56.6374 45.0593 53.6502 40.0744 49.9562 36.2248C38.6789 24.4555 25.6488 26.9781 19.6451 34.5164C13.6216 42.0495 14.1135 55.2396 28.2176 63.4977C33.9143 66.8325 41.0122 68.7344 47.5322 69.7875C41.3537 70.7815 34.7817 72.5322 29.4111 75.572C15.2214 83.6086 14.6315 96.8031 20.5765 104.431C26.5214 112.059 39.5422 114.791 50.9315 103.207C56.2937 97.747 60.2019 89.9625 62.8497 83.1651C61.7441 90.3757 61.2167 99.0661 63.1501 106.481C67.2218 122.208 79.864 126.352 88.8265 122.719C97.7889 119.085 103.856 107.358 95.5997 93.3282C92.4686 88.0104 87.6327 83.2029 82.7987 79.2582C88.9374 81.5759 96.0353 83.4778 102.636 83.4381Z" fill="#FFD7E9"/>
<path d="M92.8683 78.4896C104.666 78.4176 109.737 70.3355 108.687 63.4665C107.655 56.5872 100.405 50.3037 89.0936 53.587C85.395 54.6603 81.7285 56.6984 78.4778 58.9541C81.1049 56 83.5519 52.6334 85.0485 49.1031C89.6627 38.3332 84.1959 30.4782 77.4312 28.6656C70.6665 26.853 62.0188 30.9261 60.5871 42.5487C60.1181 46.3543 60.5539 50.4934 61.352 54.3653C59.6647 50.7864 57.5084 47.1881 54.842 44.4093C46.7016 35.9138 37.2961 37.7347 32.9624 43.1762C28.6144 48.6138 28.9695 58.1349 39.1503 64.0959C43.2624 66.5031 48.3859 67.8759 53.0922 68.6361C48.6324 69.3535 43.8885 70.6173 40.0118 72.8116C29.7692 78.6126 29.3434 88.1369 33.6346 93.643C37.9259 99.1491 47.3248 101.121 55.546 92.7597C59.4166 88.8182 62.2377 83.1991 64.149 78.2925C63.3509 83.4974 62.9702 89.7704 64.3658 95.1229C67.3049 106.475 76.4305 109.466 82.8999 106.844C89.3693 104.221 93.7484 95.7558 87.7891 85.6286C85.5289 81.79 82.0382 78.3198 78.5488 75.4723C82.98 77.1454 88.1035 78.5182 92.8683 78.4896Z" fill="#FFC1DD"/>
<path d="M63.2216 81.5118C71.7387 83.7939 80.479 78.7926 82.7436 70.341C85.0082 61.8894 79.9395 53.188 71.4225 50.9059C62.9054 48.6237 54.1652 53.6251 51.9006 62.0767C49.636 70.5283 54.7046 79.2297 63.2216 81.5118Z" fill="white"/>
</svg>
