<svg width="2731" height="1038" viewBox="0 0 2731 1038" fill="none" xmlns="http://www.w3.org/2000/svg">
<path d="M344 334.844C273.6 219.644 85.3333 254.844 0 286.844V1037.84C148.5 867.844 269.5 899.844 432.5 913.844C595.5 927.844 719.5 839.344 751.5 743.844C783.5 648.344 862.074 596.739 935.5 609.344C1050 629 1038 518.844 1150 451C1212.95 412.871 1468 518.844 1548 428.844C1628 338.844 1682.5 304.844 1817.5 301.344C1952.5 297.844 2090 439.344 2302.5 368.844C2472.5 312.444 2633 505.677 2692 609.344V10.8436C2616.5 -8.15642 2432.9 -15.6564 2302.5 106.344C2139.5 258.844 1952 240.844 1828 159.344C1704 77.8436 1518 112.844 1468 198.844C1418 284.844 1350 396.844 1218 368.844C1086 340.844 1098 410.844 1004 482.844C910 554.844 856 470.844 688 518.844C520 566.844 432 478.844 344 334.844Z" fill="#E78542"/>
<path d="M321.5 382.5C251.1 267.3 85.3333 291 0 323V985.5C148.5 815.5 269.5 847.5 432.5 861.5C595.5 875.5 684 815 716 719.5C748 624 846.574 569.395 920 582C1034.5 601.656 1027 500.344 1139 432.5C1201.95 394.371 1452 482 1532 392C1612 302 1682.5 272 1817.5 268.5C1952.5 265 2090 405.344 2302.5 334.844C2472.5 278.444 2633 453.833 2692 557.5V59.5001C2616.5 40.5001 2432.9 17.5 2302.5 139.5C2139.5 292 1941.5 264 1817.5 182.5C1693.5 101 1539.5 159 1489.5 245C1439.5 331 1349.5 410.5 1217.5 382.5C1085.5 354.5 1101.5 432.5 1007.5 504.5C913.5 576.5 854.5 500 686.5 548C518.5 596 409.5 526.5 321.5 382.5Z" fill="#FD9852"/>
<path d="M301 422.5C230.6 307.3 85.3333 318.5 0 350.5V924C148.5 754 267 817.5 430 831.5C593 845.5 664 802.5 696 707C728 611.5 839.074 554.395 912.5 567C1027 586.656 1029.5 490.344 1141.5 422.5C1204.45 384.371 1437 457.5 1517 367.5C1597 277.5 1661 257 1796 253.5C1931 250 2098.5 367 2311 296.5C2481 240.1 2633 428.833 2692 532.5V88.5C2616.5 69.5 2441.4 47.9999 2311 170C2148 322.5 1920 271.5 1796 190C1672 108.5 1546.5 188 1496.5 274C1446.5 360 1352 421.5 1220 393.5C1088 365.5 1109.5 443 1015.5 515C921.5 587 848.5 519 680.5 567C512.5 615 389 566.5 301 422.5Z" fill="#FFD7E9"/>
<path d="M1113 423C1116.5 417.5 1126 408 1140.5 400.5C1159.5 391 1168 407 1158 408C1148 409 1128.5 419 1121.5 425.5C1114.5 432 1109.5 428.5 1113 423Z" fill="#FFF2E9"/>
<path d="M242 527C200 443 84 385 0 397V795C52 679 278 737 374 755C470 773 542 729 574 693C606 657 598 619 504 639C410 659 284 611 242 527Z" fill="#FFF2E9"/>
<path d="M2553.61 274.584C2593.57 322.702 2677.47 342.723 2730.01 322.19L2669.46 64C2653.45 147.143 2498.37 143.817 2433.5 146.709C2368.63 149.602 2328.73 189.073 2313.5 217.283C2298.26 245.493 2309.22 268.931 2367.01 241.69C2424.81 214.45 2513.65 226.466 2553.61 274.584Z" fill="#FFF2E9"/>
<path d="M720.501 584.5C699.501 586 673.501 595 627.001 611.5C579.001 628.037 655.501 677.5 675.001 667C694.501 656.5 710.001 623.5 720.501 611.5C731.001 599.5 741.501 583 720.501 584.5Z" fill="#FFF2E9"/>
<path d="M793.897 517.197C804.708 517.131 809.357 509.724 808.394 503.429C807.448 497.124 800.804 491.366 790.437 494.375C787.048 495.358 783.688 497.226 780.709 499.293C783.116 496.586 785.359 493.501 786.73 490.265C790.959 480.395 785.949 473.196 779.749 471.535C773.55 469.874 765.625 473.607 764.313 484.259C763.883 487.746 764.282 491.539 765.014 495.088C763.467 491.808 761.491 488.51 759.048 485.964C751.587 478.178 742.968 479.847 738.996 484.834C735.011 489.817 735.337 498.542 744.667 504.005C748.435 506.211 753.131 507.47 757.444 508.166C753.357 508.824 749.009 509.982 745.456 511.993C736.07 517.309 735.679 526.038 739.612 531.084C743.545 536.13 752.158 537.937 759.693 530.274C763.24 526.662 765.825 521.513 767.577 517.016C766.846 521.786 766.497 527.535 767.776 532.44C770.469 542.844 778.832 545.585 784.761 543.182C790.69 540.778 794.703 533.02 789.242 523.739C787.171 520.221 783.971 517.041 780.774 514.431C784.835 515.965 789.53 517.223 793.897 517.197Z" fill="#3C2211"/>
<path d="M787.435 513.923C795.239 513.875 798.594 508.529 797.899 503.985C797.216 499.434 792.421 495.277 784.938 497.449C782.491 498.159 780.065 499.507 777.915 501C779.653 499.045 781.272 496.818 782.262 494.483C785.314 487.358 781.698 482.162 777.223 480.963C772.748 479.764 767.027 482.458 766.08 490.147C765.77 492.665 766.058 495.403 766.586 497.964C765.47 495.596 764.043 493.216 762.279 491.378C756.894 485.758 750.672 486.962 747.805 490.562C744.929 494.159 745.164 500.458 751.899 504.401C754.619 505.993 758.008 506.902 761.122 507.405C758.171 507.879 755.033 508.715 752.469 510.167C745.693 514.004 745.411 520.305 748.25 523.947C751.089 527.59 757.306 528.894 762.745 523.363C765.306 520.756 767.172 517.038 768.436 513.792C767.908 517.236 767.656 521.385 768.58 524.926C770.524 532.436 776.561 534.415 780.84 532.68C785.12 530.945 788.017 525.345 784.075 518.646C782.579 516.106 780.27 513.811 777.962 511.927C780.893 513.034 784.283 513.942 787.435 513.923Z" fill="#644A39"/>
<path d="M767.823 515.922C773.457 517.432 779.239 514.123 780.737 508.532C782.235 502.941 778.882 497.185 773.248 495.676C767.613 494.166 761.831 497.474 760.333 503.065C758.835 508.656 762.188 514.413 767.823 515.922Z" fill="white"/>
<path d="M1315.9 448.003C1315.9 444.008 1311.91 441.799 1299.41 442.839C1296.58 443.07 1291.63 444.124 1287.55 445.254C1291.21 443.16 1295.45 440.373 1297.62 438.536C1307.19 430.431 1308.41 425.986 1305.7 423.276C1302.88 420.45 1298.48 421.709 1290.38 431.291C1288.54 433.462 1285.78 437.701 1283.7 441.375C1284.82 437.303 1285.83 432.332 1286.06 429.506C1287.12 416.995 1284.83 413 1281 413C1277.01 413 1274.8 416.995 1275.84 429.493C1276.07 432.319 1277.12 437.277 1278.25 441.349C1276.16 437.688 1273.37 433.449 1271.54 431.278C1263.43 421.709 1258.99 420.489 1256.28 423.199C1253.45 426.025 1254.71 430.418 1264.29 438.523C1266.46 440.36 1270.7 443.122 1274.37 445.202C1270.3 444.085 1265.33 443.07 1262.51 442.839C1249.99 441.799 1246 444.072 1246 447.9C1246 451.895 1249.99 454.104 1262.49 453.064C1265.32 452.832 1270.28 451.779 1274.35 450.649C1270.69 452.743 1266.45 455.53 1264.28 457.367C1254.71 465.472 1253.49 469.916 1256.2 472.627C1259.02 475.453 1263.42 474.194 1271.52 464.611C1273.36 462.441 1276.12 458.202 1278.2 454.528C1277.08 458.6 1276.07 463.571 1275.84 466.397C1274.8 478.895 1277.08 482.89 1280.91 482.89C1284.91 482.89 1287.12 478.895 1286.08 466.397C1285.85 463.571 1284.79 458.613 1283.66 454.541C1285.76 458.202 1288.54 462.441 1290.38 464.611C1298.48 474.181 1302.93 475.401 1305.64 472.691C1308.47 469.865 1307.21 465.472 1297.62 457.367C1295.45 455.53 1291.21 452.768 1287.54 450.687C1291.61 451.805 1296.58 452.82 1299.41 453.051C1311.91 454.117 1315.9 451.831 1315.9 448.003ZM1280.95 447.951C1280.96 447.938 1280.96 447.951 1280.96 447.951C1280.96 447.964 1280.95 447.964 1280.95 447.951C1280.95 447.964 1280.95 447.964 1280.95 447.951Z" fill="#3C2211"/>
<path d="M1280.95 457.668C1286.32 457.668 1290.67 453.318 1290.67 447.951C1290.67 442.585 1286.32 438.235 1280.95 438.235C1275.59 438.235 1271.23 442.585 1271.23 447.951C1271.23 453.318 1275.59 457.668 1280.95 457.668Z" fill="white"/>
</svg>
