<svg width="151" height="205" viewBox="0 0 151 205" fill="none" xmlns="http://www.w3.org/2000/svg">
<path d="M100.593 33.47C100.623 33.3021 100.674 33.2073 100.704 33.0394C102.832 24.1341 96.7771 16.0684 88.3105 13.8101C85.6318 13.0943 83.1291 12.1671 80.8398 10.6196C79.1411 9.45361 77.9108 7.98939 76.3583 6.77996C73.6109 4.49353 69.9457 6.61629 70.6007 10.1606C71.2339 13.6318 72.6633 17.1052 73.6621 20.4678C75.5727 26.9007 77.5051 33.4067 79.4158 39.8396C80.4145 43.2022 81.3916 46.4918 82.3903 49.8544C75.5789 48.6159 68.0828 52.0357 63.8755 57.4219C60.2471 62.0793 58.9276 69.1534 63.9266 73.3962C74.0846 82.1525 95.2282 69.5085 90.8597 56.4075C90.838 56.3344 90.7946 56.1882 90.7729 56.1151C88.6234 48.8781 86.4956 41.7143 84.3461 34.4773C84.0639 33.5269 83.7085 32.5983 83.4994 31.6263C82.7575 27.7896 86.1485 24.4755 90.0003 26.1953C92.0211 27.1065 93.3087 29.031 94.1359 31.0127C94.5347 32.0875 94.6548 33.5633 95.4704 34.4347C97.0504 36.2724 99.609 35.5125 100.637 33.6162C100.542 33.5648 100.52 33.4917 100.593 33.47Z" fill="#FFD7E9"/>
<path d="M150.318 60.6466C150.624 56.4298 145.227 55.807 144.128 59.7083C142.127 66.5393 141.261 73.9107 139.843 80.9372C138.515 87.5151 137.202 94.0183 135.874 100.596C131.452 97.8366 125.516 97.5717 120.801 99.7318C116.505 101.743 112.953 106.238 114.768 111.117C118.608 121.383 136.901 120.175 140.239 110.19C140.344 110.056 140.374 109.907 140.389 109.832C143.347 95.1809 146.319 80.4552 149.277 65.8043C149.624 64.0851 150.21 62.3364 150.318 60.6466Z" fill="#FFB884"/>
<path d="M83.1843 162.868C83.1313 162.725 83.0517 162.511 82.9271 162.394C83.4069 163.03 82.8741 162.251 82.8395 161.939C82.5477 161.152 82.2294 160.294 81.9376 159.508C81.0092 157.006 80.0808 154.503 79.1524 152.001C76.9508 146.067 74.7492 140.133 72.5476 134.199C71.3805 131.053 70.2134 127.907 69.0728 124.833C67.5078 120.615 65.6614 115.199 60.011 117.946C49.9625 122.651 40.2507 128.043 30.4329 133.15C27.6342 134.595 22.55 136.237 21.7256 139.715C21.1998 142.025 22.6633 144.654 23.459 146.799C24.1487 148.658 24.8118 150.445 25.5015 152.304C28.8702 161.384 32.2389 170.464 35.6077 179.544C28.2078 179.768 20.0563 185.639 20.2965 193.52C20.6139 202.268 31.3141 202.609 37.2078 199.203C40.6153 197.206 43.6434 193.968 44.6212 190.027C45.0017 188.421 45.0166 186.708 44.531 185.18C44.3188 184.608 44.0351 184.063 43.7514 183.517C43.7514 183.517 43.6719 183.303 43.6453 183.231C41.9108 178.994 40.4623 174.652 38.8708 170.362C36.9344 165.143 34.9981 159.924 33.0883 154.776C32.5047 153.203 31.6617 151.808 33.1042 150.215C33.848 149.37 35.7599 148.823 36.7793 148.282C42.0907 145.498 47.3571 142.813 52.6685 140.029C56.1556 138.247 59.743 135.859 63.3892 134.506C66.1775 133.471 66.632 136.231 67.3216 138.09C68.3826 140.949 69.4702 143.881 70.5312 146.741C72.0166 150.744 73.4755 154.677 74.9609 158.68C69.5076 158.67 64.1594 161.793 61.3493 166.496C58.8621 170.753 58.958 176.493 63.6342 179.231C72.8885 184.663 88.2805 173.097 83.1843 162.868Z" fill="white"/>
</svg>
