<svg width="296" height="93" viewBox="0 0 296 93" fill="none" xmlns="http://www.w3.org/2000/svg">
<path d="M53.9203 51.9057C48.7297 24.6552 16.0724 5.94752 0.392578 0H295.606C250.189 0 238.834 68.1262 198.283 51.9057C157.732 35.6851 157.732 68.1262 122.046 85.9687C86.3613 103.811 60.4085 85.9687 53.9203 51.9057Z" fill="#E78542"/>
<path d="M67.8768 38.4756C63.4563 18.2759 35.6437 4.40866 22.29 0H273.708C235.028 0 225.358 50.4992 190.823 38.4756C156.288 26.452 156.288 50.4992 125.896 63.7252C95.5052 76.9512 73.4025 63.7252 67.8768 38.4756Z" fill="#FD9852"/>
<path d="M79.2492 26.7066C75.4561 12.6856 51.5912 3.06013 40.1328 0H255.866C222.676 0 214.379 35.0524 184.745 26.7066C155.111 18.3608 155.111 35.0524 129.034 44.2328C102.956 53.4132 83.9906 44.2328 79.2492 26.7066Z" fill="#FFD7E9"/>
<path d="M93.2057 17.2009C90.1827 8.17041 71.1625 1.97093 62.0303 0H233.968C207.516 0 200.903 22.5761 177.285 17.2009C153.667 11.8256 153.667 22.5761 132.884 28.4889C112.1 34.4017 96.9846 28.4889 93.2057 17.2009Z" fill="#FFC1DD"/>
</svg>
