<svg width="440" height="265" viewBox="0 0 440 265" fill="none" xmlns="http://www.w3.org/2000/svg">
<path d="M15.1241 50.2064C16.6068 43.2882 18.0896 35.4805 18.0896 28.9576C18.0896 24.1149 17.2988 20.0628 15.1241 17.592C13.7402 16.0107 12.2574 15.5165 10.9724 15.5165C9.19307 15.5165 7.61147 16.3072 6.42526 16.7025C6.02986 16.8013 5.63446 16.9002 5.33791 16.9002C2.96551 16.9002 0.691951 14.2317 0.691951 10.6738C0.691951 8.40067 1.68045 5.83105 3.95401 3.26144C6.32641 0.691817 9.09422 0 12.2574 0C16.0137 0 20.3631 0.889484 25.5034 0.988314H26.5907C31.6321 0.988314 35.6849 0.395321 38.8481 0.395321C42.9998 0.395321 45.8665 1.2848 47.9424 5.3369C48.9309 7.21469 49.4251 9.0925 49.4251 10.7726C49.4251 14.3306 47.3492 16.999 44.9768 16.999C44.3837 16.999 43.6918 16.8013 43.0987 16.5049C41.6159 15.7142 40.232 15.3189 39.0458 15.3189C36.7723 15.3189 35.0918 16.8013 34.2022 19.964C33.9056 21.2488 33.7079 22.9289 33.7079 24.9055C33.7079 31.1319 35.0918 40.4221 37.3654 49.6134C38.0573 52.5784 38.4527 55.0491 38.4527 57.2234C38.4527 64.3393 34.4987 67.2054 25.8988 67.2054C16.9034 67.1066 14.1356 63.351 14.1356 57.5199C14.1356 55.3456 14.531 52.8749 15.1241 50.2064Z" fill="#3C2211"/>
<path d="M47.9037 51.2935C50.9681 39.1373 52.0554 30.1436 52.0554 21.1499C52.0554 18.6792 52.0554 16.2084 51.8577 13.6387C51.7589 12.8481 51.7589 12.0574 51.7589 11.3656C51.7589 3.85443 54.5267 0.395321 59.6669 0.395321H59.8646C64.4117 0.395321 68.86 1.97663 68.86 7.41236C68.86 7.80769 68.86 8.30184 68.7611 8.796C68.168 13.9352 66.883 18.0862 66.883 20.8534C66.883 23.5219 67.9703 25.0044 71.7266 25.1032H71.8255C76.3726 25.1032 77.6576 22.8301 77.6576 19.6675C77.6576 16.406 76.3726 12.3539 75.9772 8.99366C75.8783 8.49951 75.8783 8.00535 75.8783 7.51119C75.8783 3.06377 78.3496 0 83.8852 0H84.0829C89.5197 0.19766 91.8921 1.97663 91.8921 8.69717C91.8921 10.2785 91.6944 12.0574 91.4967 14.2317C91.2001 16.999 91.0024 19.8651 91.0024 22.8301C91.0024 35.3817 93.5725 47.9333 94.2645 51.59C94.6599 53.7643 94.8576 55.6421 94.8576 57.4211C94.8576 63.2522 92.2875 66.5136 86.653 67.1066C85.9611 67.2054 85.2691 67.2054 84.4783 67.2054C79.8324 67.2054 73.3082 65.8218 73.3082 58.2118C73.3082 56.0375 73.9013 53.369 75.1864 50.0087C76.4714 46.6485 77.1634 43.6835 77.1634 41.1139C77.1634 37.2595 75.4829 34.6899 71.7266 34.6899C67.5749 34.6899 65.8945 37.4571 65.8945 41.4104C65.8945 43.387 66.2899 45.5613 66.9818 47.9333C68.2669 52.183 69.2554 55.9386 69.2554 59.0024C69.2554 64.0428 66.4876 67.2054 57.5911 67.2054C51.4623 67.2054 46.8164 66.0194 46.8164 58.8047C46.8164 56.7293 47.1129 54.2585 47.9037 51.2935Z" fill="#3C2211"/>
<path d="M101.485 60.5837C99.5082 58.1129 95.3565 50.7006 95.3565 36.7653C95.3565 33.8992 95.5542 30.8354 95.9496 27.3763C98.2231 8.59834 105.538 0.0988302 115.818 0.0988302C116.51 0.0988302 117.202 0.0988302 117.894 0.19766C127.68 1.18597 130.547 5.83105 130.547 9.78432C130.547 12.5516 129.163 15.1212 127.68 16.0107C127.384 16.2084 127.186 16.3072 126.89 16.3072C125.802 16.3072 124.913 14.7259 122.837 13.9352C122.244 13.6387 121.453 13.4411 120.761 13.4411C119.179 13.4411 117.598 14.2317 117.301 16.7025C117.301 17.0978 117.202 17.3943 117.202 17.6908C117.202 20.0628 118.389 20.9523 119.97 20.9523C120.86 20.9523 121.947 20.5569 122.936 19.964C123.43 19.6675 123.825 19.5686 124.221 19.5686C126.198 19.5686 127.285 22.8301 127.285 26.0915C127.285 29.2541 126.198 32.3179 123.825 32.3179C123.43 32.3179 122.936 32.2191 122.441 32.0214C121.552 31.6261 120.761 31.5272 120.069 31.5272C117.598 31.5272 116.214 33.5039 116.214 35.777C116.214 36.2712 116.214 36.7653 116.412 37.2595C116.906 39.1373 118.29 40.3232 120.366 40.3232C122.441 40.3232 125.012 39.1373 128.076 36.37C128.669 35.777 129.361 35.5793 129.954 35.5793C133.611 35.5793 137.071 44.3753 137.071 50.6017C137.071 51.3924 136.972 52.0842 136.874 52.776C135.687 60.0896 125.506 67.2054 115.522 67.2054C110.382 67.2054 105.241 65.3276 101.485 60.5837Z" fill="#3C2211"/>
<path d="M162.866 50.6017C161.976 47.3403 161.086 42.1022 161.086 35.777C161.086 31.3296 161.581 26.2892 162.866 21.0511C166.227 8.00535 176.112 0 186.096 0C189.753 0 193.509 1.08714 196.87 3.4591C199.638 5.43573 200.824 8.69717 200.824 11.5633C200.824 15.0224 199.243 18.0862 197.068 18.0862C196.574 18.0862 195.882 17.8885 195.289 17.3943C193.905 16.406 191.038 14.8247 188.171 14.8247C184.119 14.8247 179.967 17.7897 179.473 29.2541V30.8354C179.473 39.5326 183.328 42.4975 186.886 42.4975C189.16 42.4975 191.335 41.4104 192.422 39.7303C193.114 38.6431 193.509 37.2595 193.509 36.0735C193.509 34.2945 192.817 32.9109 191.433 32.9109C190.742 32.9109 189.753 33.405 188.567 34.3934C187.875 34.9863 187.282 35.2828 186.689 35.2828C185.305 35.2828 184.217 33.8004 184.217 31.8237C184.217 30.7366 184.514 29.4518 185.305 28.167C187.479 24.609 191.433 23.0277 195.387 23.0277C199.935 23.0277 204.284 25.202 205.174 28.4635C205.272 28.9576 205.371 29.4518 205.371 29.8471C205.371 33.2074 201.121 33.1085 201.121 33.405C203.592 35.0852 205.371 39.9279 205.371 45.3637C205.371 49.4157 204.383 53.7643 202.01 57.6188C200.033 60.979 194.3 67.2054 183.031 67.2054C175.222 67.2054 165.831 61.9674 162.866 50.6017Z" fill="#3C2211"/>
<path d="M207.853 48.3286C210.324 39.9279 212.499 34.9864 212.499 25.4985C212.499 23.0277 212.301 20.2605 212.004 16.999C211.807 15.1212 211.708 13.3423 211.708 11.8598C211.708 0.889484 216.453 0.0988302 221.79 0.0988302C227.425 0.0988302 231.082 0.395321 231.082 12.0574C231.082 13.1446 231.082 14.4294 230.984 15.7142C230.786 19.4698 230.687 22.6324 230.687 25.3997C230.687 34.2945 231.676 38.9396 233.653 44.573C234.74 47.6368 235.728 51.4912 235.728 55.148C235.728 61.4732 232.664 67.1066 220.901 67.1066H220.505C211.312 66.9089 206.765 62.0662 206.765 54.9503C206.765 52.8749 207.161 50.7006 207.853 48.3286Z" fill="#3C2211"/>
<path d="M238.578 52.5784C238.776 49.5146 238.875 46.0555 238.875 42.201C238.875 37.4571 238.677 32.2191 238.281 26.8822C238.084 24.9055 238.084 23.1266 238.084 21.4464C238.084 6.52288 244.213 1.08714 255.086 0.296491C256.668 0.19766 258.15 0.0988302 259.633 0.0988302C269.617 0.0988302 276.536 2.96494 276.536 10.575C276.536 11.6621 276.438 12.7493 276.141 14.0341C275.548 16.7025 274.56 17.8885 272.879 17.8885C271.792 17.8885 270.605 17.4932 269.123 16.5049C267.442 15.4177 264.872 14.6271 262.5 14.6271C259.534 14.6271 256.964 15.813 256.371 19.2721C256.272 19.7663 256.272 20.2605 256.272 20.6558C256.272 23.6207 258.052 24.8067 260.325 24.8067C262.006 24.8067 263.983 24.1149 265.564 22.8301C266.652 21.9406 267.541 21.6441 268.431 21.6441C271.001 21.6441 272.582 25.202 272.582 28.76C272.582 32.1202 271.199 35.3817 267.937 35.3817C267.146 35.3817 266.355 35.2828 265.465 34.8875C264.773 34.591 264.18 34.4922 263.686 34.4922C261.511 34.4922 260.622 36.7653 260.622 39.8291C260.622 43.0905 261.61 47.2415 263.093 50.7006C264.18 53.1713 264.971 55.9386 264.971 58.3106C264.971 63.2522 261.907 67.2054 252.121 67.2054H251.923C239.962 67.1066 237.688 64.4381 237.688 60.2872C237.688 58.1129 238.38 55.4445 238.578 52.5784Z" fill="#3C2211"/>
<path d="M293.044 50.2064C294.526 43.2882 296.009 35.4805 296.009 28.9576C296.009 24.1149 295.218 20.0628 293.044 17.592C291.66 16.0107 290.177 15.5165 288.892 15.5165C287.113 15.5165 285.531 16.3072 284.345 16.7025C283.949 16.8013 283.554 16.9002 283.258 16.9002C280.885 16.9002 278.612 14.2317 278.612 10.6738C278.612 8.40067 279.6 5.83105 281.874 3.26144C284.246 0.691817 287.014 0 290.177 0C293.933 0 298.283 0.889484 303.423 0.988314H304.51C309.552 0.988314 313.605 0.395321 316.768 0.395321C320.919 0.395321 323.786 1.2848 325.862 5.3369C326.85 7.21469 327.345 9.0925 327.345 10.7726C327.345 14.3306 325.269 16.999 322.896 16.999C322.303 16.999 321.611 16.8013 321.018 16.5049C319.536 15.7142 318.152 15.3189 316.965 15.3189C314.692 15.3189 313.011 16.8013 312.122 19.964C311.825 21.2488 311.628 22.9289 311.628 24.9055C311.628 31.1319 313.011 40.4221 315.285 49.6134C315.977 52.5784 316.372 55.0491 316.372 57.2234C316.372 64.3393 312.418 67.2054 303.818 67.2054C294.823 67.1066 292.055 63.351 292.055 57.5199C292.055 55.3456 292.451 52.8749 293.044 50.2064Z" fill="#3C2211"/>
<path d="M15.1241 149.038C16.6068 142.12 18.0896 134.312 18.0896 127.789C18.0896 122.946 17.2988 118.894 15.1241 116.424C13.7402 114.842 12.2574 114.348 10.9724 114.348C9.19307 114.348 7.61147 115.139 6.42526 115.534C6.02986 115.633 5.63446 115.732 5.33791 115.732C2.96551 115.732 0.691951 113.063 0.691951 109.505C0.691951 107.232 1.68045 104.663 3.95401 102.093C6.32641 99.5233 9.09422 98.8315 12.2574 98.8315C16.0137 98.8315 20.3631 99.721 25.5034 99.8198H26.5907C31.6321 99.8198 35.6849 99.2268 38.8481 99.2268C42.9998 99.2268 45.8665 100.116 47.9424 104.168C48.9309 106.046 49.4251 107.924 49.4251 109.604C49.4251 113.162 47.3492 115.831 44.9768 115.831C44.3837 115.831 43.6918 115.633 43.0987 115.336C41.6159 114.546 40.232 114.15 39.0458 114.15C36.7723 114.15 35.0918 115.633 34.2022 118.795C33.9056 120.08 33.7079 121.76 33.7079 123.737C33.7079 129.963 35.0918 139.254 37.3654 148.445C38.0573 151.41 38.4527 153.881 38.4527 156.055C38.4527 163.171 34.4987 166.037 25.8988 166.037C16.9034 165.938 14.1356 162.182 14.1356 156.351C14.1356 154.177 14.531 151.706 15.1241 149.038Z" fill="#3C2211"/>
<path d="M47.9037 150.125C50.9681 137.969 52.0554 128.975 52.0554 119.981C52.0554 117.511 52.0554 115.04 51.8577 112.47C51.7589 111.68 51.7589 110.889 51.7589 110.197C51.7589 102.686 54.5267 99.2268 59.6669 99.2268H59.8646C64.4117 99.2268 68.86 100.808 68.86 106.244C68.86 106.639 68.86 107.133 68.7611 107.628C68.168 112.767 66.883 116.918 66.883 119.685C66.883 122.353 67.9703 123.836 71.7266 123.935H71.8255C76.3726 123.935 77.6576 121.662 77.6576 118.499C77.6576 115.238 76.3726 111.185 75.9772 107.825C75.8783 107.331 75.8783 106.837 75.8783 106.343C75.8783 101.895 78.3496 98.8315 83.8852 98.8315H84.0829C89.5197 99.0292 91.8921 100.808 91.8921 107.529C91.8921 109.11 91.6944 110.889 91.4967 113.063C91.2001 115.831 91.0024 118.697 91.0024 121.662C91.0024 134.213 93.5725 146.765 94.2645 150.422C94.6599 152.596 94.8576 154.474 94.8576 156.253C94.8576 162.084 92.2875 165.345 86.653 165.938C85.9611 166.037 85.2691 166.037 84.4783 166.037C79.8324 166.037 73.3082 164.653 73.3082 157.043C73.3082 154.869 73.9013 152.201 75.1864 148.84C76.4714 145.48 77.1634 142.515 77.1634 139.945C77.1634 136.091 75.4829 133.521 71.7266 133.521C67.5749 133.521 65.8945 136.289 65.8945 140.242C65.8945 142.219 66.2899 144.393 66.9818 146.765C68.2669 151.015 69.2554 154.77 69.2554 157.834C69.2554 162.874 66.4876 166.037 57.5911 166.037C51.4623 166.037 46.8164 164.851 46.8164 157.636C46.8164 155.561 47.1129 153.09 47.9037 150.125Z" fill="#3C2211"/>
<path d="M152.225 152.793V153.288C152.225 159.909 145.305 166.037 138.484 166.037C136.606 166.037 134.728 165.543 132.949 164.554C128.698 161.985 126.721 158.921 126.721 154.375C126.721 151.41 127.611 147.654 129.291 143.207C129.489 142.713 129.588 142.317 129.588 141.823C129.588 138.957 126.128 137.079 122.767 137.079C120.395 137.079 118.022 137.969 116.836 140.143C116.54 140.637 116.441 141.131 116.441 141.724C116.441 145.085 119.703 150.422 119.703 155.462C119.703 156.747 119.406 158.032 118.912 159.218C117.232 163.27 113.179 165.938 108.335 165.938C107.643 165.938 106.852 165.839 106.062 165.74C106.062 165.74 96.8686 165.049 96.8686 154.276C96.8686 150.619 97.8571 145.974 100.625 139.748C112.487 112.569 113.377 103.971 119.802 100.215C121.186 99.4245 122.866 98.9303 124.645 98.9303C128.896 98.9303 133.839 101.796 136.705 109.901C141.45 123.539 151.632 142.317 152.225 152.793ZM121.383 126.9C121.383 126.9 122.174 127.097 123.163 127.097C124.744 127.097 126.82 126.504 126.82 123.638V123.342C126.721 119.981 125.239 117.708 123.657 117.708C122.767 117.708 121.977 118.301 121.186 119.784C120.197 121.76 119.703 123.243 119.703 124.429C119.703 125.714 120.296 126.504 121.383 126.9Z" fill="#3C2211"/>
<path d="M156.932 149.038C158.414 142.12 159.897 134.312 159.897 127.789C159.897 122.946 159.106 118.894 156.932 116.424C155.548 114.842 154.065 114.348 152.78 114.348C151.001 114.348 149.419 115.139 148.233 115.534C147.837 115.633 147.442 115.732 147.145 115.732C144.773 115.732 142.5 113.063 142.5 109.505C142.5 107.232 143.488 104.663 145.762 102.093C148.134 99.5233 150.902 98.8315 154.065 98.8315C157.821 98.8315 162.171 99.721 167.311 99.8198H168.398C173.44 99.8198 177.492 99.2268 180.656 99.2268C184.807 99.2268 187.674 100.116 189.75 104.168C190.738 106.046 191.233 107.924 191.233 109.604C191.233 113.162 189.157 115.831 186.784 115.831C186.191 115.831 185.499 115.633 184.906 115.336C183.423 114.546 182.04 114.15 180.853 114.15C178.58 114.15 176.899 115.633 176.01 118.795C175.713 120.08 175.515 121.76 175.515 123.737C175.515 129.963 176.899 139.254 179.173 148.445C179.865 151.41 180.26 153.881 180.26 156.055C180.26 163.171 176.306 166.037 167.706 166.037C158.711 165.938 155.943 162.182 155.943 156.351C155.943 154.177 156.339 151.706 156.932 149.038Z" fill="#3C2211"/>
<path d="M218.869 150.718C221.637 140.934 222.625 135.004 222.625 129.865C222.625 125.516 221.933 121.76 220.846 116.819C220.154 113.459 219.561 110.395 219.561 107.726C219.561 102.488 221.933 98.9303 230.83 98.9303C239.628 98.9303 241.703 102.785 241.703 106.442C241.703 108.418 241.011 110.395 240.517 111.581C238.54 116.028 237.947 119.586 237.947 121.76C237.947 122.946 238.145 123.737 238.441 123.935H238.54C239.726 123.935 245.756 120.377 249.315 114.249C251.885 109.802 254.159 107.331 256.827 107.331C258.31 107.331 260.09 108.122 262.067 109.999C264.34 112.075 265.625 114.447 265.625 116.621C265.625 119.191 263.747 121.662 259.101 123.243C250.402 126.208 247.239 129.469 247.14 130.26V130.359C247.14 131.644 252.676 141.329 264.142 148.247C267.009 149.927 270.469 152.991 270.469 156.351C270.469 159.119 268.096 162.084 260.781 164.653C259.694 165.049 258.706 165.246 257.816 165.246C251.49 165.246 248.919 156.846 246.152 151.015C243.285 145.085 240.418 141.527 239.726 141.527H239.628C239.43 141.626 239.43 141.823 239.43 142.12C239.43 143.899 241.308 148.544 242.395 151.904C242.988 153.881 243.384 155.857 243.384 157.537C243.384 162.479 240.32 165.938 231.126 166.037H229.94C222.428 166.037 217.683 164.456 217.683 157.735C217.683 155.857 218.078 153.584 218.869 150.718Z" fill="#3C2211"/>
<path d="M276.211 159.415C274.234 156.944 270.082 149.532 270.082 135.597C270.082 132.731 270.28 129.667 270.675 126.208C272.949 107.43 280.263 98.9303 290.544 98.9303C291.236 98.9303 291.928 98.9303 292.62 99.0292C302.406 100.017 305.273 104.663 305.273 108.616C305.273 111.383 303.889 113.953 302.406 114.842C302.109 115.04 301.912 115.139 301.615 115.139C300.528 115.139 299.638 113.557 297.562 112.767C296.969 112.47 296.178 112.273 295.486 112.273C293.905 112.273 292.323 113.063 292.027 115.534C292.027 115.929 291.928 116.226 291.928 116.522C291.928 118.894 293.114 119.784 294.696 119.784C295.585 119.784 296.673 119.388 297.661 118.795C298.155 118.499 298.551 118.4 298.946 118.4C300.923 118.4 302.01 121.662 302.01 124.923C302.01 128.086 300.923 131.149 298.551 131.149C298.155 131.149 297.661 131.051 297.167 130.853C296.277 130.458 295.486 130.359 294.794 130.359C292.323 130.359 290.939 132.335 290.939 134.609C290.939 135.103 290.939 135.597 291.137 136.091C291.631 137.969 293.015 139.155 295.091 139.155C297.167 139.155 299.737 137.969 302.801 135.201C303.394 134.609 304.086 134.411 304.679 134.411C308.337 134.411 311.797 143.207 311.797 149.433C311.797 150.224 311.698 150.916 311.599 151.608C310.413 158.921 300.231 166.037 290.247 166.037C285.107 166.037 279.967 164.159 276.211 159.415Z" fill="#3C2211"/>
<path d="M319.844 159.415C317.867 156.944 313.715 149.532 313.715 135.597C313.715 132.731 313.913 129.667 314.308 126.208C316.582 107.43 323.897 98.9303 334.177 98.9303C334.869 98.9303 335.561 98.9303 336.253 99.0292C346.039 100.017 348.906 104.663 348.906 108.616C348.906 111.383 347.522 113.953 346.039 114.842C345.742 115.04 345.545 115.139 345.248 115.139C344.161 115.139 343.271 113.557 341.195 112.767C340.602 112.47 339.811 112.273 339.12 112.273C337.538 112.273 335.956 113.063 335.66 115.534C335.66 115.929 335.561 116.226 335.561 116.522C335.561 118.894 336.747 119.784 338.329 119.784C339.218 119.784 340.306 119.388 341.294 118.795C341.788 118.499 342.184 118.4 342.579 118.4C344.556 118.4 345.644 121.662 345.644 124.923C345.644 128.086 344.556 131.149 342.184 131.149C341.788 131.149 341.294 131.051 340.8 130.853C339.91 130.458 339.12 130.359 338.428 130.359C335.956 130.359 334.572 132.335 334.572 134.609C334.572 135.103 334.572 135.597 334.77 136.091C335.264 137.969 336.648 139.155 338.724 139.155C340.8 139.155 343.37 137.969 346.434 135.201C347.028 134.609 347.719 134.411 348.313 134.411C351.97 134.411 355.43 143.207 355.43 149.433C355.43 150.224 355.331 150.916 355.232 151.608C354.046 158.921 343.864 166.037 333.88 166.037C328.74 166.037 323.6 164.159 319.844 159.415Z" fill="#3C2211"/>
<path d="M374.277 98.9303C377.242 98.9303 396.716 98.9303 396.716 116.522V117.609C396.024 134.114 377.638 133.62 376.748 139.945C376.748 140.242 376.649 140.538 376.649 140.835C376.649 144.195 378.527 148.939 379.121 150.52C380.01 152.497 380.505 154.572 380.505 156.648C380.505 161.491 377.44 165.642 368.84 166.037H367.654C359.944 166.037 357.176 163.171 357.176 157.537C357.176 155.462 357.571 152.892 358.263 149.927C359.252 145.678 359.548 142.317 359.548 139.056C359.548 133.324 358.461 128.184 357.275 119.784C356.978 117.807 356.879 115.929 356.879 114.249C356.879 100.017 366.863 98.9303 374.277 98.9303ZM380.01 117.906C380.208 117.313 380.406 116.72 380.406 116.226C380.406 112.767 375.957 110.197 373.19 110.197H372.596C370.422 110.592 368.939 113.261 368.939 116.028C368.939 117.609 369.433 119.191 370.521 120.377C371.114 121.069 372.102 121.365 373.288 121.365C375.859 121.365 379.121 119.981 380.01 117.906Z" fill="#3C2211"/>
<path d="M399.669 154.77C398.483 151.904 397.989 149.038 397.989 146.567C397.989 141.428 400.065 137.376 402.931 135.794C404.513 134.905 405.996 134.51 407.281 134.51C410.444 134.51 412.618 136.684 412.618 137.87C412.618 138.166 412.421 138.364 412.223 138.562C411.136 139.254 410.641 140.341 410.641 141.428C410.641 143.009 411.828 144.689 413.706 144.986C414.101 145.085 414.398 145.085 414.694 145.085C417.561 145.085 419.241 142.812 419.241 140.242C419.241 139.352 419.044 138.364 418.549 137.475C416.078 133.225 405.996 128.876 402.042 122.749C400.46 120.278 399.768 117.511 399.768 114.842C399.768 107.331 405.501 99.9186 414.2 98.7327C415.09 98.6338 416.177 98.535 417.264 98.535C423.789 98.535 433.575 100.907 433.575 111.581V112.075C433.377 117.313 430.115 119.388 427.545 119.388C425.766 119.388 424.283 118.4 424.283 116.72V115.633C424.283 113.063 422.405 111.877 420.526 111.877C418.549 111.877 416.474 113.162 416.474 115.534C416.474 116.127 416.671 116.819 416.968 117.609C418.648 121.76 426.161 125.714 431.894 130.359C437.529 134.905 440 140.637 440 146.172C440 155.758 432.487 164.653 419.933 165.74C419.143 165.839 418.352 165.839 417.66 165.839C408.071 165.839 402.14 160.601 399.669 154.77Z" fill="#3C2211"/>
<path d="M42.9998 208.633C45.7676 212.587 51.2044 223.557 51.2044 236.01C51.2044 240.161 50.6113 244.509 49.1286 248.759C45.2734 259.63 35.0918 264.868 25.0091 264.868C13.9379 264.868 2.96551 258.543 0.988502 246.585C0.296551 242.631 0 238.975 0 235.614C0 220.691 5.63446 210.709 9.88502 205.965C15.2229 200.134 20.5608 197.762 25.6022 197.762C32.4229 197.762 38.5516 202.209 42.9998 208.633ZM32.5217 232.056C33.3125 230.376 33.7079 228.301 33.7079 226.324C33.7079 219.801 29.8528 212.784 25.3057 212.784H25.2068C20.6597 212.883 16.6068 221.086 16.6068 227.807C16.6068 229.783 17.0022 231.661 17.793 233.144C19.3746 236.01 21.9447 237.591 24.7126 237.591C27.5792 237.591 30.6436 235.812 32.5217 232.056Z" fill="#3C2211"/>
<path d="M52.7072 248.561C53.3992 243.718 53.7946 238.579 53.7946 232.946C53.7946 227.411 53.3992 221.383 52.5095 214.761C52.213 212.488 52.0153 210.412 52.0153 208.633C52.0153 201.715 54.5854 199.145 60.4175 199.145C61.8015 199.145 63.3831 199.244 65.0635 199.541C74.2566 200.826 77.0244 219.604 81.868 224.15C82.1646 224.446 82.3623 224.545 82.6589 224.545C83.2519 224.545 83.6473 223.359 83.6473 221.481C83.6473 218.615 82.8566 213.97 81.3738 209.72C81.0772 208.831 80.4841 207.151 80.4841 205.471C80.4841 202.012 82.56 198.058 92.3462 197.762H92.9393C98.6726 197.762 101.935 199.936 101.935 206.854C101.935 208.534 101.737 210.511 101.342 212.883C100.056 219.505 99.5622 227.807 99.5622 234.725C99.5622 239.963 99.8588 244.41 100.353 246.782C101.045 250.143 102.033 253.7 102.033 256.665C102.033 261.113 99.8588 264.572 91.2588 264.77H90.1715C81.2749 264.77 80.3853 261.014 80.3853 254.491V246.683C79.9899 232.748 70.7968 225.632 68.9187 225.632C68.721 225.632 68.6221 225.731 68.6221 225.83V226.324C68.6221 229.289 71.0934 244.114 72.5761 248.957C73.3669 251.724 73.96 254.293 73.96 256.468C73.96 261.409 71.1922 264.671 61.9992 264.77H61.7026C53.7946 264.77 51.9164 261.607 51.9164 256.665C51.9164 254.293 52.3118 251.526 52.7072 248.561Z" fill="#3C2211"/>
<path d="M130.244 253.602C129.058 250.736 128.564 247.869 128.564 245.399C128.564 240.259 130.64 236.207 133.506 234.626C135.088 233.736 136.571 233.341 137.856 233.341C141.019 233.341 143.194 235.515 143.194 236.701C143.194 236.998 142.996 237.196 142.798 237.393C141.711 238.085 141.217 239.172 141.217 240.259C141.217 241.841 142.403 243.521 144.281 243.817C144.677 243.916 144.973 243.916 145.27 243.916C148.136 243.916 149.817 241.643 149.817 239.073C149.817 238.184 149.619 237.196 149.125 236.306C146.654 232.056 136.571 227.708 132.617 221.58C131.035 219.109 130.343 216.342 130.343 213.674C130.343 206.163 136.077 198.75 144.775 197.564C145.665 197.465 146.752 197.367 147.84 197.367C154.364 197.367 164.15 199.738 164.15 210.412V210.906C163.952 216.144 160.69 218.22 158.12 218.22C156.341 218.22 154.858 217.232 154.858 215.551V214.464C154.858 211.895 152.98 210.709 151.102 210.709C149.125 210.709 147.049 211.994 147.049 214.366C147.049 214.959 147.247 215.65 147.543 216.441C149.224 220.592 156.736 224.545 162.47 229.19C168.104 233.736 170.575 239.469 170.575 245.003C170.575 254.59 163.063 263.485 150.509 264.572C149.718 264.671 148.927 264.671 148.235 264.671C138.647 264.671 132.716 259.433 130.244 253.602Z" fill="#3C2211"/>
<path d="M174.259 245.992C176.73 237.591 178.905 232.649 178.905 223.162C178.905 220.691 178.707 217.923 178.411 214.662C178.213 212.784 178.114 211.005 178.114 209.523C178.114 198.552 182.859 197.762 188.197 197.762C193.831 197.762 197.489 198.058 197.489 209.72C197.489 210.808 197.489 212.092 197.39 213.377C197.192 217.133 197.093 220.295 197.093 223.063C197.093 231.958 198.082 236.603 200.059 242.236C201.146 245.3 202.135 249.154 202.135 252.811C202.135 259.136 199.07 264.77 187.307 264.77H186.912C177.719 264.572 173.172 259.729 173.172 252.613C173.172 250.538 173.567 248.364 174.259 245.992Z" fill="#3C2211"/>
<path d="M205.327 248.561C206.018 243.718 206.414 238.579 206.414 232.946C206.414 227.411 206.018 221.383 205.129 214.761C204.832 212.488 204.635 210.412 204.635 208.633C204.635 201.715 207.205 199.145 213.037 199.145C214.421 199.145 216.002 199.244 217.683 199.541C226.876 200.826 229.644 219.604 234.487 224.15C234.784 224.446 234.982 224.545 235.278 224.545C235.871 224.545 236.267 223.359 236.267 221.481C236.267 218.615 235.476 213.97 233.993 209.72C233.697 208.831 233.103 207.151 233.103 205.471C233.103 202.012 235.179 198.058 244.965 197.762H245.559C251.292 197.762 254.554 199.936 254.554 206.854C254.554 208.534 254.356 210.511 253.961 212.883C252.676 219.505 252.182 227.807 252.182 234.725C252.182 239.963 252.478 244.41 252.972 246.782C253.664 250.143 254.653 253.7 254.653 256.665C254.653 261.113 252.478 264.572 243.878 264.77H242.791C233.894 264.77 233.005 261.014 233.005 254.491V246.683C232.609 232.748 223.416 225.632 221.538 225.632C221.34 225.632 221.241 225.731 221.241 225.83V226.324C221.241 229.289 223.713 244.114 225.195 248.957C225.986 251.724 226.579 254.293 226.579 256.468C226.579 261.409 223.812 264.671 214.618 264.77H214.322C206.414 264.77 204.536 261.607 204.536 256.665C204.536 254.293 204.931 251.526 205.327 248.561Z" fill="#3C2211"/>
<path d="M257.855 248.265C256.965 245.003 256.075 239.765 256.075 233.44C256.075 228.993 256.57 223.952 257.855 218.714C261.216 205.668 271.101 197.663 281.084 197.663C284.742 197.663 288.498 198.75 291.859 201.122C294.627 203.099 295.813 206.36 295.813 209.226C295.813 212.685 294.231 215.749 292.057 215.749C291.562 215.749 290.871 215.551 290.277 215.057C288.894 214.069 286.027 212.488 283.16 212.488C279.107 212.488 274.956 215.453 274.461 226.917V228.498C274.461 237.196 278.317 240.161 281.875 240.161C284.149 240.161 286.323 239.073 287.411 237.393C288.103 236.306 288.498 234.922 288.498 233.736C288.498 231.958 287.806 230.574 286.422 230.574C285.73 230.574 284.742 231.068 283.556 232.056C282.864 232.649 282.271 232.946 281.677 232.946C280.294 232.946 279.206 231.463 279.206 229.487C279.206 228.4 279.503 227.115 280.294 225.83C282.468 222.272 286.422 220.691 290.376 220.691C294.923 220.691 299.273 222.865 300.162 226.126C300.261 226.621 300.36 227.115 300.36 227.51C300.36 230.87 296.11 230.772 296.11 231.068C298.581 232.748 300.36 237.591 300.36 243.027C300.36 247.079 299.372 251.427 296.999 255.282C295.022 258.642 289.289 264.868 278.02 264.868C270.211 264.868 260.82 259.63 257.855 248.265Z" fill="#3C2211"/>
<path d="M302.841 245.992C305.313 237.591 307.487 232.649 307.487 223.162C307.487 220.691 307.29 217.923 306.993 214.662C306.796 212.784 306.697 211.005 306.697 209.523C306.697 198.552 311.441 197.762 316.779 197.762C322.414 197.762 326.071 198.058 326.071 209.72C326.071 210.808 326.071 212.092 325.972 213.377C325.775 217.133 325.676 220.295 325.676 223.063C325.676 231.958 326.664 236.603 328.641 242.236C329.729 245.3 330.717 249.154 330.717 252.811C330.717 259.136 327.653 264.77 315.89 264.77H315.494C306.301 264.572 301.754 259.729 301.754 252.613C301.754 250.538 302.15 248.364 302.841 245.992Z" fill="#3C2211"/>
<path d="M333.909 248.561C334.601 243.718 334.996 238.579 334.996 232.946C334.996 227.411 334.601 221.383 333.711 214.761C333.415 212.488 333.217 210.412 333.217 208.633C333.217 201.715 335.787 199.145 341.619 199.145C343.003 199.145 344.585 199.244 346.265 199.541C355.458 200.826 358.226 219.604 363.07 224.15C363.366 224.446 363.564 224.545 363.861 224.545C364.454 224.545 364.849 223.359 364.849 221.481C364.849 218.615 364.058 213.97 362.576 209.72C362.279 208.831 361.686 207.151 361.686 205.471C361.686 202.012 363.762 198.058 373.548 197.762H374.141C379.874 197.762 383.136 199.936 383.136 206.854C383.136 208.534 382.939 210.511 382.543 212.883C381.258 219.505 380.764 227.807 380.764 234.725C380.764 239.963 381.061 244.41 381.555 246.782C382.247 250.143 383.235 253.7 383.235 256.665C383.235 261.113 381.061 264.572 372.461 264.77H371.373C362.477 264.77 361.587 261.014 361.587 254.491V246.683C361.192 232.748 351.999 225.632 350.12 225.632C349.923 225.632 349.824 225.731 349.824 225.83V226.324C349.824 229.289 352.295 244.114 353.778 248.957C354.569 251.724 355.162 254.293 355.162 256.468C355.162 261.409 352.394 264.671 343.201 264.77H342.904C334.996 264.77 333.118 261.607 333.118 256.665C333.118 254.293 333.514 251.526 333.909 248.561Z" fill="#3C2211"/>
<path d="M386.437 248.265C385.547 245.003 384.658 239.765 384.658 233.44C384.658 228.993 385.152 223.952 386.437 218.714C389.798 205.668 399.683 197.663 409.667 197.663C413.324 197.663 417.081 198.75 420.442 201.122C423.209 203.099 424.396 206.36 424.396 209.226C424.396 212.685 422.814 215.749 420.639 215.749C420.145 215.749 419.453 215.551 418.86 215.057C417.476 214.069 414.609 212.488 411.743 212.488C407.69 212.488 403.538 215.453 403.044 226.917V228.498C403.044 237.196 406.899 240.161 410.458 240.161C412.731 240.161 414.906 239.073 415.993 237.393C416.685 236.306 417.081 234.922 417.081 233.736C417.081 231.958 416.389 230.574 415.005 230.574C414.313 230.574 413.324 231.068 412.138 232.056C411.446 232.649 410.853 232.946 410.26 232.946C408.876 232.946 407.789 231.463 407.789 229.487C407.789 228.4 408.085 227.115 408.876 225.83C411.051 222.272 415.005 220.691 418.959 220.691C423.506 220.691 427.855 222.865 428.745 226.126C428.844 226.621 428.943 227.115 428.943 227.51C428.943 230.87 424.692 230.772 424.692 231.068C427.163 232.748 428.943 237.591 428.943 243.027C428.943 247.079 427.954 251.427 425.582 255.282C423.605 258.642 417.871 264.868 406.603 264.868C398.793 264.868 389.403 259.63 386.437 248.265Z" fill="#3C2211"/>
<path d="M420.227 19.8883C420.255 19.7991 420.289 19.7511 420.317 19.6618C422.107 14.9669 419.384 10.1486 414.937 8.3196C413.53 7.74018 412.234 7.05823 411.098 6.0539C410.256 5.29899 409.69 4.41502 408.931 3.64684C407.598 2.20792 405.453 3.10321 405.558 5.07828C405.657 7.01204 406.189 9.00343 406.494 10.904C407.077 14.5399 407.668 18.2172 408.251 21.8531C408.556 23.7537 408.855 25.613 409.16 27.5136C405.541 26.3568 401.22 27.6863 398.549 30.319C396.244 32.5961 395.025 36.352 397.444 39.0151C402.351 44.4999 414.752 39.1185 413.304 31.6799C413.297 31.6386 413.284 31.5559 413.278 31.5146C412.621 27.4242 411.971 23.3751 411.314 19.2847C411.228 18.7476 411.101 18.2171 411.056 17.6733C410.924 15.533 413.004 13.97 414.978 15.1788C416.013 15.8179 416.577 16.9564 416.887 18.0934C417.028 18.7066 416.989 19.5181 417.371 20.0501C418.1 21.1621 419.546 20.93 420.24 19.971C420.192 19.9363 420.185 19.895 420.227 19.8883Z" fill="#FFD7E9"/>
<path d="M428.759 47.5324C429.5 45.3339 426.718 44.2625 425.599 46.1847C423.598 49.5396 422.127 53.3375 420.409 56.8763C418.802 60.1892 417.212 63.4645 415.604 66.7774C413.633 64.7045 410.515 63.7493 407.714 64.2502C405.155 64.7296 402.651 66.6307 402.947 69.472C403.579 75.4535 413.464 77.3207 416.607 72.4738C416.681 72.4167 416.718 72.3415 416.736 72.3038C420.317 64.9251 423.917 57.5087 427.498 50.13C427.918 49.2641 428.47 48.4154 428.759 47.5324Z" fill="#FFB884"/>
<path d="M374.104 68.68C374.139 68.6039 374.191 68.4898 374.188 68.3963C374.128 68.829 374.223 68.3202 374.331 68.1855C374.523 67.7671 374.732 67.3107 374.924 66.8923C375.535 65.5611 376.146 64.2299 376.756 62.8987C378.205 59.7418 379.653 56.585 381.101 53.4281C381.869 51.7546 382.637 50.0811 383.387 48.4456C384.417 46.2015 385.801 43.3838 382.543 42.2572C376.819 40.1835 370.958 38.5075 365.167 36.6794C363.52 36.1542 360.91 34.8186 359.24 35.8483C358.14 36.5405 357.688 38.1286 357.164 39.2696C356.711 40.2585 356.274 41.2094 355.821 42.1983C353.605 47.0286 351.389 51.859 349.173 56.6894C346.214 53.905 340.773 53.0201 337.808 56.1717C334.537 59.6893 338.556 63.9735 342.165 64.9386C344.262 65.4862 346.693 65.4047 348.602 64.2546C349.373 63.7794 350.043 63.1203 350.448 62.339C350.588 62.0347 350.689 61.713 350.791 61.3913C350.791 61.3913 350.843 61.2772 350.86 61.2391C351.831 58.9221 352.954 56.675 354.001 54.3929C355.275 51.6164 356.549 48.8398 357.805 46.1014C358.189 45.2646 358.404 44.3961 359.581 44.3379C360.198 44.2985 361.152 44.8282 361.757 45.0139C364.898 45.9946 367.984 46.9959 371.125 47.9766C373.17 48.6383 375.489 49.1036 377.428 49.9935C378.912 50.6741 378.017 51.9212 377.564 52.9101C376.866 54.4314 376.15 55.9909 375.452 57.5122C374.475 59.6422 373.515 61.7341 372.538 63.864C370.426 61.744 367.139 60.8806 364.224 61.6149C361.607 62.3019 359.417 64.5661 360.169 67.4432C361.652 73.142 372.113 74.6263 374.104 68.68Z" fill="#E78542"/>
</svg>
