<svg width="80" height="80" viewBox="0 0 80 80" fill="none" xmlns="http://www.w3.org/2000/svg">
<path fill-rule="evenodd" clip-rule="evenodd" d="M79.6347 37.7975C81.3225 49.0737 77.1227 60.8904 68.1662 68.9947C59.155 77.1485 45.9597 80.828 33.1667 79.8441C21.3018 78.9315 10.3725 72.8474 3.72741 64.0385C-1.98192 56.4701 0.259321 46.856 1.44839 37.7975C2.44536 30.2024 4.75294 23.1751 9.89484 17.0539C16.1463 9.61184 22.7618 0.684874 33.1667 0.038349C43.8744 -0.626992 51.9939 7.49946 59.9262 13.9451C68.4368 20.8607 78.1116 27.6225 79.6347 37.7975Z" fill="#FFD7E9"/>
<path fill-rule="evenodd" clip-rule="evenodd" d="M37.7975 0.366307C49.0737 -1.32156 60.8904 2.87823 68.9947 11.8347C77.1485 20.846 80.828 34.0412 79.8441 46.8343C78.9315 58.6991 72.8474 69.6284 64.0385 76.2736C56.4701 81.9829 46.856 79.7417 37.7975 78.5526C30.2024 77.5556 23.1751 75.248 17.0539 70.1061C9.61184 63.8547 0.684876 57.2392 0.038351 46.8343C-0.62699 36.1266 7.49946 28.0071 13.9451 20.0748C20.8607 11.5641 27.6225 1.88934 37.7975 0.366307Z" fill="#E78542"/>
<path d="M26.856 29.164C27.03 27.076 28.77 23.712 31.612 21.972C33.758 20.638 36.078 20 38.282 20C42.168 20 45.822 22.088 47.794 26.148C48.374 27.308 48.606 28.468 48.606 29.628C48.606 35.602 41.936 40.996 40.892 43.78C40.834 44.012 40.776 44.186 40.776 44.36C40.776 44.824 41.124 44.998 41.646 44.998C43.618 44.998 48.316 42.446 49.708 41.17C50.346 40.59 51.1 40.184 51.854 40.184C53.362 40.184 54.754 41.692 54.754 46.216C54.754 47.202 54.696 48.362 54.522 49.696C53.536 58.048 44.198 59.44 38.398 59.44C36.658 59.44 35.208 59.324 34.396 59.208C31.612 58.802 25 56.946 25 50.74C25 49.406 25.29 47.956 25.928 46.274C28.306 40.068 39.964 34.906 40.022 29.628C40.022 27.83 38.978 26.902 37.876 26.902C36.716 26.902 35.44 28.004 35.266 30.266C35.092 32.122 34.048 33.804 31.438 33.804H31.032C27.552 33.63 26.798 32.47 26.798 30.324C26.798 29.976 26.798 29.57 26.856 29.164Z" fill="white"/>
</svg>
