<svg width="80" height="86" viewBox="0 0 80 86" fill="none" xmlns="http://www.w3.org/2000/svg">
<path fill-rule="evenodd" clip-rule="evenodd" d="M71.4784 18.5849C77.3683 27.9574 79.5061 39.161 77.1849 50.0947C74.7015 61.7925 68.855 73.0887 58.5564 79.452C47.9944 85.978 34.4664 88.0481 23.0864 83.521C12.6146 79.3551 6.97153 68.3925 3.79002 57.6648C1.28158 49.2065 5.15142 40.8275 7.90957 32.346C10.4855 24.4251 12.4982 16.2639 18.9907 10.9221C26.7627 4.52758 36.3421 -0.61857 46.2221 0.823829C56.9112 2.38436 65.8071 9.56017 71.4784 18.5849Z" fill="#FFD7E9"/>
<path fill-rule="evenodd" clip-rule="evenodd" d="M33.7292 4.031C44.791 3.61646 55.5626 7.36687 63.8708 14.8439C72.7597 22.8436 79.6192 33.5548 79.9807 45.6553C80.3514 58.0652 75.3801 70.816 65.7695 78.4077C56.9259 85.3936 44.6105 84.7994 33.7292 82.1908C25.15 80.134 19.8284 72.5931 13.8623 65.9638C8.29051 59.7725 2.22908 53.9488 0.849206 45.6553C-0.802619 35.7273 -0.469603 24.8582 5.71954 17.0231C12.4156 8.54629 23.0779 4.43015 33.7292 4.031Z" fill="#E78542"/>
<path d="M34.236 34.556C34.12 34.556 34.004 34.614 33.888 34.614C32.612 34.614 30.118 33.28 30.118 30.844C30.118 29.858 30.524 28.756 31.51 27.422C33.366 24.928 36.266 24 38.934 24C40.732 24 42.414 24.464 43.574 25.102C46.01 26.494 48.272 29.22 48.272 32.584C48.272 34.324 47.634 36.296 46.068 38.326C45.894 38.558 45.778 38.79 45.778 38.906C45.778 39.718 48.736 39.196 51.346 42.85C52.622 44.59 53.26 46.852 53.26 49.23C53.26 52.246 52.158 55.494 49.78 58.278C47.228 61.178 42.762 63.614 37.658 63.614C35.976 63.614 34.236 63.324 32.496 62.744C28.552 61.352 26 57.06 26 53.116C26 51.434 26.522 49.752 27.566 48.476C28.726 47.084 29.886 46.562 30.872 46.562C32.496 46.562 33.656 47.896 33.656 48.882C33.656 49.056 33.656 49.172 33.598 49.288C33.366 49.926 33.25 50.448 33.25 50.97C33.25 52.768 34.642 53.754 36.382 53.754C37.136 53.754 37.948 53.58 38.76 53.232C40.848 52.246 42.182 49.868 42.182 47.896C42.182 46.388 41.428 45.054 39.688 44.706C39.398 44.648 39.05 44.59 38.76 44.59C36.788 44.59 35.164 45.808 33.946 45.808C33.308 45.808 32.786 45.46 32.438 44.3C32.09 43.14 31.916 42.038 31.916 41.11C31.916 39.022 32.786 37.63 34.12 37.63C34.468 37.63 34.816 37.688 35.164 37.862C35.628 38.036 36.092 38.094 36.556 38.094C38.528 38.094 40.152 36.702 40.152 34.73V34.672C40.094 33.048 39.514 31.25 37.948 31.25H37.89C35.222 31.308 36.092 34.15 34.236 34.556Z" fill="white"/>
</svg>
