<svg width="571" height="880" viewBox="0 0 571 880" fill="none" xmlns="http://www.w3.org/2000/svg">
<path d="M454.95 251.947C544.589 191.16 569.666 58.6543 571 0V859.819C398.926 931.803 218.847 799.831 234.854 643.864C250.861 487.897 114.803 411.913 42.7714 355.925C-29.2598 299.937 -9.25114 227.952 94.7939 251.947C198.839 275.942 342.901 327.931 454.95 251.947Z" fill="#E78542"/>
<path d="M465.314 288.615C546.947 233.216 569.784 152.455 570.999 99V822.607C414.295 888.212 250.299 767.937 264.876 625.794C279.453 483.652 163.598 404.026 98 353C32.4024 301.974 42.5742 266.747 137.326 288.615C232.078 310.483 363.273 357.864 465.314 288.615Z" fill="#FD9852"/>
<path d="M459.5 318C534.489 267.08 569.884 222.633 571 173.5V794.095C427.048 854.394 276.399 743.845 289.79 613.196C303.181 482.548 196.753 409.36 136.494 362.461C76.2351 315.561 85.5791 293.183 172.62 313.282C259.661 333.382 365.764 381.649 459.5 318Z" fill="#FFD7E9"/>
<path d="M434.5 353.5C503.5 324.387 570.014 269.891 571.001 226.5V769.07C443.788 822.323 310.656 724.693 322.489 609.312C334.323 493.932 240.271 419.297 187.019 377.878C133.767 336.46 132.08 323.862 209 341.613C285.92 359.364 342.266 392.417 434.5 353.5Z" fill="#FFC1DD"/>
<path d="M451.994 372.712C512.15 347.333 570.139 299.826 570.999 262V744.985C460.092 791.408 335.024 706.299 345.341 605.716C355.658 505.133 295.661 442.071 249.235 405.964C202.808 369.857 173.5 339.5 268.398 374.35C332.976 398.065 405.999 392.117 451.994 372.712Z" fill="#FFF2E9"/>
</svg>
