<svg width="208" height="60" viewBox="0 0 208 60" fill="none" xmlns="http://www.w3.org/2000/svg">
<g clip-path="url(#clip0_227_903)">
<path d="M4.82108 28.3929L2.67822 17.1429H57.8568L56.2497 28.3929H53.0354L50.8925 49.8215C47.0354 55.8215 37.1425 55.8929 32.6782 55.1786C25.1782 38.0357 13.3925 49.8215 8.03537 51.4286V28.3929H4.82108Z" fill="#E78542"/>
<path d="M41.5989 2.37537C40.6017 2.37537 39.5669 2.5811 38.5321 3.04868C36.8764 3.77811 35.296 4.67586 33.8284 5.70454C32.3609 6.73322 31.0062 7.87412 29.7645 9.14594L29.7456 9.16464L29.7268 9.14594C27.2621 6.5836 24.3082 4.50754 21.0156 3.04868C15.8604 0.748184 10.423 4.65716 10.7616 10.2868C10.9686 13.6908 13.7908 16.4028 17.0834 16.4028H36.7447H42.3327C45.6252 16.4028 48.4851 13.6908 48.7108 10.2868C49.0495 5.79806 45.6629 2.37537 41.5989 2.37537Z" fill="#FFD7E9"/>
<path d="M30.4985 55.2868C27.1871 55.2868 24.4778 52.9488 24.4401 49.975L23.9321 16.4027H37.7985L36.6697 49.975C36.5568 52.9488 33.8098 55.2868 30.4985 55.2868Z" fill="#FFD7E9"/>
<path d="M36.669 18.5349H17.1581C12.7367 18.5349 8.87969 14.8878 8.57866 10.2868C8.35288 6.9015 9.78279 3.70324 12.4733 1.7581C15.1826 -0.205736 18.7198 -0.542394 21.8618 0.860349C25.4366 2.46883 28.6163 4.73192 31.3068 7.53741L38.3058 14.8691C38.8891 15.4863 39.0396 16.4214 38.6821 17.207C38.3247 18.0299 37.5344 18.5349 36.669 18.5349ZM18.0424 4.73192C17.0076 4.73192 16.0105 5.04988 15.1262 5.66708C13.621 6.73317 12.8308 8.41646 12.9248 10.2868C13.0565 12.4938 14.8628 14.2519 16.9888 14.2519H31.6078L28.1835 10.7357C25.907 8.39776 23.2165 6.52743 20.2061 5.1995C19.4912 4.88155 18.7574 4.73192 18.0424 4.73192Z" fill="#3C2211"/>
<path d="M42.2381 18.5349H36.669C35.5025 18.5349 34.5805 17.581 34.5993 16.4027C34.6182 15.2057 35.6153 14.2332 36.8007 14.2332H42.4451C44.5711 14.2332 46.3962 12.4751 46.5467 10.2868C46.7348 7.23816 44.4771 4.71322 41.4855 4.71322C40.7518 4.71322 40.0368 4.86284 39.3407 5.1808C37.8355 5.83541 36.3867 6.65835 35.0321 7.59352C33.6962 8.50998 32.4357 9.57606 31.3068 10.7357L31.288 10.7544C30.4413 11.6334 29.0678 11.6334 28.2024 10.7544C27.3557 9.87531 27.3369 8.45387 28.2024 7.55611L28.2212 7.53741C29.557 6.15337 31.0434 4.88155 32.6238 3.75935C34.2231 2.63716 35.954 1.64589 37.7226 0.860349C39.002 0.280549 40.3378 0 41.6925 0C47.2052 0 51.3444 4.71322 50.8929 10.2868C50.5542 14.9065 46.6596 18.5349 42.2381 18.5349Z" fill="#3C2211"/>
<path d="M35.5025 57.0075C34.4865 57.0075 33.6962 56.2968 33.7151 55.4177L34.5993 16.4027C34.6182 15.2057 35.6153 14.2332 36.8007 14.2332C37.986 14.2332 38.9079 15.2057 38.8703 16.4027L37.4027 55.4177C37.3651 56.2968 36.5184 57.0075 35.5025 57.0075Z" fill="#3C2211"/>
<path d="M50.6483 51.3591C49.6135 51.3591 48.8421 50.611 48.9173 49.6945L50.6483 28.8778C50.7423 27.793 51.7395 26.8953 52.8684 26.8953C53.9973 26.8953 54.8439 27.7743 54.7311 28.8778L52.6803 49.7132C52.5862 50.6297 51.6831 51.3591 50.6483 51.3591Z" fill="#3C2211"/>
<path d="M24.383 46.1783C23.3294 46.1783 22.4639 45.4115 22.4263 44.4389L21.7866 16.4027C21.7677 15.2057 22.7085 14.2332 23.8938 14.2332C25.0791 14.2332 26.0575 15.2057 26.0575 16.4027L26.2645 44.4389C26.2833 45.4115 25.4366 46.1783 24.383 46.1783Z" fill="#3C2211"/>
<path d="M9.5382 52.0511C8.5034 52.0511 7.61911 51.3217 7.54385 50.4052L5.75645 28.8965C5.66238 27.8117 6.50904 26.914 7.65674 26.914C8.80443 26.914 9.76398 27.793 9.83924 28.8965L11.288 50.4052C11.3444 51.3217 10.573 52.0511 9.5382 52.0511Z" fill="#3C2211"/>
<path d="M54.5429 30.6733H36.2927C35.1826 30.6733 34.2795 29.813 34.3171 28.7282C34.3359 27.6434 35.2767 26.7456 36.4244 26.7456H54.938L55.747 18.5349H4.89098L5.56831 26.7456H24.0819C25.2108 26.7456 26.1516 27.6434 26.1516 28.7282C26.1516 29.813 25.2673 30.6733 24.1384 30.6733H5.88816C3.64921 30.6733 1.65486 28.9339 1.44789 26.7456L0.657677 18.5349C0.431901 16.1783 2.16285 14.2519 4.5335 14.2519H56.1422C58.5128 14.2519 60.2249 16.197 59.9615 18.5349L59.0396 26.7456C58.795 28.9339 56.7818 30.6733 54.5429 30.6733Z" fill="#3C2211"/>
<path d="M9.4065 50.4052C9.29361 49.0212 7.52503 47.8803 5.41779 47.8803C3.31055 47.8803 1.74893 49.0212 1.88063 50.4052C2.03115 51.7706 3.79973 52.8741 5.86934 52.8741C7.93896 52.8741 9.51939 51.7706 9.4065 50.4052Z" fill="#3C2211"/>
<path d="M6.01986 54.4825C2.91544 54.4825 0.281384 52.7057 0.0179784 50.3865C-0.245427 48.0486 2.06878 46.1783 5.26727 46.1783C8.46577 46.1783 11.1186 48.0486 11.288 50.4052C11.4385 52.7057 9.12428 54.4825 6.01986 54.4825ZM5.58712 49.5636C4.42061 49.5636 3.7621 50.106 3.78091 50.4052C3.81854 50.7045 4.57113 51.2282 5.73764 51.2282C6.90415 51.2282 7.56266 50.6858 7.54385 50.4052C7.50622 50.106 6.75363 49.5636 5.58712 49.5636Z" fill="#3C2211"/>
<path d="M24.3454 44.4389C24.3265 42.9801 22.558 41.8018 20.4131 41.8018C18.2682 41.8018 16.5749 42.9988 16.6502 44.4389C16.7066 45.8791 18.4752 47.02 20.5824 47.02C22.6897 47.02 24.3642 45.8791 24.3454 44.4389Z" fill="#3C2211"/>
<path d="M20.6389 48.7219C17.4592 48.7219 14.8628 46.8516 14.7311 44.4389C14.5994 41.9701 17.0829 40.0062 20.3755 40.0062C23.668 40.0062 26.2645 41.9701 26.2833 44.4389C26.2833 46.8703 23.8185 48.7219 20.6389 48.7219ZM20.4695 43.5786C19.2654 43.5786 18.5692 44.1397 18.5692 44.4576C18.5881 44.7569 19.3218 45.318 20.526 45.318C21.7301 45.318 22.4263 44.7569 22.4263 44.4576C22.4263 44.1397 21.6737 43.5786 20.4695 43.5786Z" fill="#3C2211"/>
<path d="M35.5401 56.091C35.5777 54.7631 33.9597 53.6783 31.9089 53.6783C29.8581 53.6783 28.2024 54.7631 28.2024 56.091C28.2024 57.4003 29.8392 58.4476 31.8336 58.4476C33.8468 58.4476 35.5025 57.4003 35.5401 56.091Z" fill="#3C2211"/>
<path d="M31.8148 60C28.7856 60 26.3773 58.298 26.3585 56.091C26.3397 53.8466 28.7856 52.0511 31.9277 52.0511C35.0697 52.0511 37.4592 53.8466 37.3651 56.091C37.2898 58.298 34.8439 60 31.8148 60ZM31.8712 55.2868C30.7235 55.2868 30.0274 55.8105 30.0274 56.091C30.0274 56.3716 30.7235 56.8766 31.8524 56.8766C32.9813 56.8766 33.6962 56.3716 33.6962 56.091C33.7151 55.8105 33.0189 55.2868 31.8712 55.2868Z" fill="#3C2211"/>
<path d="M50.7235 50.5362C50.8552 49.1521 49.256 48.0299 47.1676 48.0299C45.0791 48.0299 43.3105 49.1708 43.2165 50.5362C43.1412 51.9015 44.7405 53.005 46.7913 53.005C48.8421 53.005 50.5918 51.9015 50.7235 50.5362Z" fill="#3C2211"/>
<path d="M46.6596 54.6135C43.5551 54.6135 41.2221 52.8367 41.335 50.5362C41.4667 48.1796 44.0819 46.3092 47.2804 46.3092C50.4789 46.3092 52.8308 48.1796 52.5862 50.5362C52.3792 52.8367 49.764 54.6135 46.6596 54.6135ZM47.0359 49.7132C45.8693 49.7132 45.1168 50.2556 45.0979 50.5549C45.0791 50.8541 45.7565 51.3778 46.9042 51.3778C48.0707 51.3778 48.8232 50.8354 48.8421 50.5549C48.8797 50.2556 48.2024 49.7132 47.0359 49.7132Z" fill="#3C2211"/>
</g>
<path d="M89.184 39.8612C88.8048 40.1137 88.2042 40.3504 87.3824 40.5713C86.5606 40.7922 85.6756 40.9974 84.7274 41.1867C83.7791 41.3445 82.8625 41.4708 81.9775 41.5654C81.0925 41.6601 80.4129 41.7232 79.9388 41.7548C77.5366 41.7548 75.7666 41.1867 74.6287 40.0506C73.4909 38.9144 72.7007 37.226 72.2582 34.9852C72.0685 34.1331 71.9263 33.281 71.8315 32.4289C71.7682 31.5768 71.705 30.7089 71.6418 29.8252C71.4838 27.048 71.4522 24.2707 71.547 21.4935C71.6418 18.6847 71.8157 15.8917 72.0685 13.1144C72.1317 12.5463 72.1791 11.9783 72.2108 11.4102C72.2424 10.8421 72.3372 10.2898 72.4952 9.7533C72.6216 9.31147 72.8903 8.93275 73.3012 8.61716C73.7121 8.27 74.1388 8.04908 74.5813 7.9544C75.3399 7.82816 76.0037 8.0333 76.5726 8.56982C77.1415 9.07477 77.3944 9.70596 77.3312 10.4634C77.268 10.9052 77.1573 11.2524 76.9993 11.5049C76.9361 11.568 76.9045 11.6942 76.9045 11.8836C76.9045 12.0414 76.9045 12.1518 76.9045 12.215C76.5568 15.1816 76.3355 18.1324 76.2407 21.0674C76.1775 23.9709 76.2249 26.8902 76.383 29.8252C76.383 30.1408 76.4146 30.6458 76.4778 31.3401C76.541 32.0029 76.6358 32.713 76.7622 33.4704C76.8887 34.1963 77.0467 34.8748 77.2364 35.506C77.4576 36.1056 77.7105 36.5001 77.9949 36.6895C78.153 36.8157 78.4691 36.9104 78.9432 36.9735C79.4173 37.0051 79.7492 37.0208 79.9388 37.0208C80.2549 37.0208 80.7448 36.9893 81.4086 36.9262C82.0723 36.863 82.7677 36.7841 83.4947 36.6895C84.2216 36.5632 84.9012 36.4212 85.5334 36.2634C86.1655 36.1056 86.608 35.9163 86.8609 35.6953C87.2718 35.3166 87.7775 35.1273 88.3781 35.1273C88.8206 35.1273 89.2315 35.2535 89.6108 35.506C89.99 35.7269 90.2903 36.0267 90.5116 36.4054C90.7328 36.7841 90.8276 37.2102 90.796 37.6836C90.7644 38.1254 90.5748 38.5673 90.2271 39.0091C89.9742 39.2931 89.6266 39.5772 89.184 39.8612Z" fill="#3C2211"/>
<path d="M97.6481 51.7434C96.8263 51.7434 96.0045 51.6172 95.1827 51.3647C94.3925 51.1122 93.6497 50.7651 92.9544 50.3232C92.2906 49.8814 91.7059 49.3291 91.2001 48.6664C90.6944 48.0352 90.3467 47.3408 90.1571 46.5834C90.0939 46.3309 90.0465 46.0627 90.0149 45.7786C89.9832 45.4946 90.0307 45.2264 90.1571 44.9739C90.3783 44.532 90.6944 44.1533 91.1053 43.8377C91.5162 43.5537 91.9429 43.4117 92.3854 43.4117C92.7331 43.4117 93.1124 43.5221 93.5233 43.743C93.9658 43.9955 94.2661 44.2953 94.4241 44.6425C94.5506 44.895 94.6612 45.1317 94.756 45.3526C94.8508 45.6051 94.9773 45.826 95.1353 46.0153C95.4514 46.2994 95.8149 46.5203 96.2258 46.6781C96.6367 46.8675 97.0634 46.9621 97.5059 46.9621C98.0748 46.9621 98.5963 46.8359 99.0704 46.5834C99.5446 46.3309 99.9713 46.0153 100.351 45.6366C100.73 45.2579 101.062 44.8319 101.346 44.3585C101.631 43.8851 101.868 43.4117 102.057 42.9383C102.405 42.023 102.658 41.092 102.816 40.1452C103.006 39.1669 103.164 38.1886 103.29 37.2102C102.784 38.157 102.152 39.0249 101.394 39.8139C100.667 40.6029 99.7026 40.9974 98.5015 40.9974C97.8061 40.9974 97.1266 40.808 96.4628 40.4293C95.8307 40.019 95.2459 39.5298 94.7086 38.9618C94.1713 38.3621 93.6971 37.7309 93.2862 37.0682C92.907 36.3739 92.6225 35.7269 92.4328 35.1273C91.9903 33.8649 91.7217 32.5867 91.6268 31.2928C91.532 29.9673 91.5162 28.6418 91.5794 27.3162C91.6427 26.2117 91.7217 25.1071 91.8165 24.0025C91.9113 22.8663 92.0694 21.746 92.2906 20.6414C92.3854 20.1996 92.4961 19.7735 92.6225 19.3632C92.7805 18.9214 92.986 18.5269 93.2388 18.1797C93.5233 17.8326 93.8394 17.5485 94.1871 17.3276C94.5664 17.1067 95.0089 16.9962 95.5146 16.9962C95.9887 16.9962 96.4154 17.1067 96.7947 17.3276C97.2056 17.5485 97.5375 17.8799 97.7903 18.3217C97.9484 18.6689 98.0748 19.0476 98.1696 19.4579C98.2961 19.8366 98.3277 20.2153 98.2645 20.594C98.2012 20.9728 98.0274 21.3357 97.7429 21.6829C97.4585 21.9984 97.1424 22.2351 96.7947 22.3929C96.5418 23.8762 96.3996 25.3596 96.368 26.8429C96.3048 27.7581 96.2732 28.6733 96.2732 29.5885C96.3048 30.4722 96.3996 31.3717 96.5576 32.2869C96.6841 32.9812 96.8895 33.6755 97.174 34.3698C97.4901 35.0326 97.9168 35.5849 98.4541 36.0267C98.9598 35.3955 99.4813 34.4645 100.019 33.2337C100.588 32.0029 101.125 30.7089 101.631 29.3518C102.136 27.9632 102.595 26.6219 103.006 25.328C103.416 24.0025 103.717 22.961 103.906 22.2036C103.938 22.0773 103.985 21.8722 104.049 21.5882C104.143 21.2726 104.238 20.957 104.333 20.6414C104.428 20.2942 104.507 19.9786 104.57 19.6946C104.665 19.379 104.744 19.1581 104.807 19.0318C105.06 18.59 105.376 18.2744 105.755 18.0851C106.135 17.8957 106.53 17.801 106.941 17.801C107.51 17.801 108.031 17.9904 108.505 18.3691C108.979 18.7162 109.248 19.2212 109.311 19.884C109.343 20.1364 109.343 20.6098 109.311 21.3041C109.28 21.9984 109.232 22.7401 109.169 23.5291C109.137 24.2865 109.09 25.0124 109.027 25.7067C108.964 26.401 108.916 26.8744 108.885 27.1269C108.727 29.1152 108.584 31.1192 108.458 33.139C108.331 35.1273 108.126 37.1155 107.842 39.1038C107.652 40.4293 107.383 41.739 107.036 43.033C106.688 44.3269 106.166 45.542 105.471 46.6781C105.092 47.3409 104.618 47.972 104.049 48.5717C103.48 49.2029 102.848 49.7552 102.152 50.2286C101.488 50.702 100.761 51.0649 99.9713 51.3174C99.2127 51.6014 98.4383 51.7434 97.6481 51.7434Z" fill="#3C2211"/>
<path d="M113.912 41.3761C113.312 41.3761 112.758 41.1867 112.253 40.808C111.779 40.3977 111.51 39.8612 111.447 39.1985C111.415 38.8513 111.383 38.3148 111.352 37.5889C111.352 36.863 111.352 36.0425 111.352 35.1273C111.352 34.1805 111.368 33.2021 111.399 32.1922C111.431 31.1508 111.462 30.1566 111.494 29.2098C111.526 28.263 111.557 27.4267 111.589 26.7008C111.621 25.975 111.652 25.4385 111.684 25.0913C111.684 24.7757 111.7 24.3654 111.731 23.8605C111.794 23.324 111.873 22.8032 111.968 22.2983C112.063 21.7618 112.189 21.2726 112.347 20.8307C112.537 20.3573 112.758 20.026 113.011 19.8366C113.233 19.6788 113.454 19.5526 113.675 19.4579C113.928 19.3632 114.181 19.3159 114.434 19.3159C114.908 19.3159 115.382 19.4579 115.856 19.7419C116.33 20.026 116.63 20.4047 116.757 20.8781C116.82 21.099 116.867 21.3199 116.899 21.5408C116.931 21.7302 116.915 21.9195 116.852 22.1089C116.725 22.5192 116.63 22.9295 116.567 23.3397C116.536 23.75 116.504 24.1603 116.472 24.5706C116.82 23.8131 117.247 22.961 117.752 22.0142C118.29 21.0674 118.89 20.168 119.554 19.3159C120.218 18.4638 120.929 17.7537 121.688 17.1856C122.446 16.586 123.236 16.2862 124.058 16.2862C124.975 16.2862 125.702 16.6017 126.239 17.2329C126.808 17.8326 127.171 18.5427 127.33 19.3632C127.393 19.7104 127.44 20.168 127.472 20.7361C127.535 21.2726 127.551 21.8249 127.519 22.3929C127.488 22.961 127.409 23.4975 127.282 24.0025C127.187 24.5074 127.029 24.9019 126.808 25.186C126.334 25.754 125.733 26.0381 125.006 26.0381C124.532 26.0381 124.09 25.9118 123.679 25.6594C123.268 25.3753 122.968 24.9808 122.778 24.4759C122.683 24.2234 122.62 23.9867 122.588 23.7658C122.588 23.5449 122.604 23.3082 122.636 23.0557C121.972 24.0025 121.403 25.0124 120.929 26.0854C120.486 27.1585 120.06 28.2315 119.649 29.3045C119.08 30.8509 118.558 32.4131 118.084 33.9911C117.642 35.5375 117.152 37.084 116.615 38.6304C116.393 39.3563 116.093 40.0032 115.714 40.5713C115.366 41.1078 114.765 41.3761 113.912 41.3761Z" fill="#3C2211"/>
<path d="M135.772 13.3511C135.835 14.1401 135.63 14.7871 135.156 15.292C134.682 15.797 134.113 16.0495 133.449 16.0495C132.943 16.0495 132.469 15.8917 132.027 15.5761C131.584 15.3236 131.284 14.9449 131.126 14.4399C130.968 14.0928 130.889 13.7298 130.889 13.3511C130.889 12.9724 130.905 12.5937 130.936 12.215C130.999 11.4891 131.284 10.8894 131.79 10.4161C132.327 9.94266 132.943 9.70596 133.639 9.70596C133.955 9.70596 134.271 9.7533 134.587 9.84798C134.934 9.97422 135.235 10.1794 135.488 10.4634C135.74 10.7159 135.93 11.0157 136.057 11.3628C136.183 11.6784 136.215 12.0098 136.151 12.357C136.12 12.7041 135.993 13.0355 135.772 13.3511ZM133.117 42.5596C132.706 42.7489 132.279 42.8436 131.837 42.8436C131.331 42.8436 130.873 42.7174 130.462 42.4649C130.051 42.2124 129.767 41.8179 129.609 41.2814C129.451 40.7449 129.356 40.2084 129.324 39.6719C129.293 39.1038 129.245 38.5357 129.182 37.9676C128.929 35.4113 128.897 32.855 129.087 30.2986C129.308 27.7423 129.688 25.2175 130.225 22.7243C130.351 22.03 130.62 21.4462 131.031 20.9728C131.473 20.4994 132.074 20.2627 132.833 20.2627C133.402 20.2627 133.923 20.452 134.397 20.8307C134.903 21.1779 135.219 21.6671 135.345 22.2983C135.44 23.0873 135.235 23.7658 134.729 24.3339C134.287 26.7955 133.97 29.2887 133.781 31.8135C133.623 34.3383 133.718 36.8315 134.065 39.2931C134.065 39.3563 134.081 39.4352 134.113 39.5298C134.144 39.593 134.176 39.6561 134.208 39.7192C134.271 39.9717 134.302 40.2399 134.302 40.524C134.334 40.808 134.302 41.0763 134.208 41.3287C134.081 41.5812 133.923 41.8337 133.733 42.0862C133.575 42.3071 133.37 42.4649 133.117 42.5596Z" fill="#3C2211"/>
<path d="M161.11 42.7489C160.889 42.9698 160.636 43.1592 160.352 43.317C160.067 43.4748 159.751 43.5537 159.403 43.5537C158.834 43.5537 158.313 43.3643 157.839 42.9856C157.365 42.6385 157.001 42.2124 156.748 41.7075C156.59 41.455 156.464 41.2025 156.369 40.95C156.306 40.666 156.243 40.3977 156.179 40.1452C155.168 41.1867 154.046 42.0073 152.813 42.6069C151.612 43.2065 150.285 43.5064 148.831 43.5064C147.503 43.5064 146.27 43.2539 145.133 42.7489C144.026 42.2755 143.031 41.6286 142.146 40.808C141.261 39.9874 140.502 39.0407 139.87 37.9676C139.269 36.863 138.795 35.7111 138.447 34.5119C137.942 32.6814 137.721 30.8036 137.784 28.8785C137.847 26.9218 138.1 25.0282 138.542 23.1977C138.89 21.6829 139.427 20.0891 140.154 18.4164C140.881 16.7122 141.782 15.1184 142.857 13.6351C143.931 12.1203 145.164 10.8106 146.555 9.70596C147.946 8.56982 149.463 7.81238 151.106 7.43367C151.58 7.33899 152.039 7.29165 152.481 7.29165C153.24 7.29165 153.967 7.43367 154.662 7.71771C155.358 7.97018 155.974 8.33312 156.511 8.80651C157.08 9.27991 157.539 9.84798 157.886 10.5107C158.265 11.1735 158.503 11.8994 158.597 12.6884C158.661 13.4142 158.645 14.1401 158.55 14.866C158.455 15.5603 158.297 16.2388 158.076 16.9016C158.044 17.0278 157.965 17.2329 157.839 17.517C157.744 17.801 157.618 18.1008 157.459 18.4164C157.333 18.7005 157.191 18.9687 157.033 19.2212C156.906 19.4737 156.796 19.6473 156.701 19.7419C156.132 20.31 155.484 20.594 154.757 20.594C154.03 20.594 153.477 20.2942 153.098 19.6946C152.845 19.379 152.671 19.0003 152.576 18.5584C152.513 18.1166 152.56 17.7221 152.718 17.375C152.908 16.9331 153.098 16.4913 153.287 16.0495C153.509 15.6076 153.682 15.15 153.809 14.6766C153.872 14.3295 153.904 13.9665 153.904 13.5878C153.935 13.2091 153.84 12.8619 153.619 12.5463C153.398 12.2307 153.019 12.0729 152.481 12.0729C152.134 12.0729 151.754 12.1676 151.343 12.357C150.933 12.5148 150.522 12.7199 150.111 12.9724C149.731 13.2249 149.368 13.5089 149.02 13.8245C148.704 14.1085 148.42 14.3768 148.167 14.6293C146.65 16.2073 145.433 18.0377 144.516 20.1206C143.631 22.172 143.031 24.2707 142.715 26.4168C142.556 27.5845 142.493 28.768 142.525 29.9673C142.556 31.135 142.73 32.2711 143.046 33.3757C143.236 34.07 143.521 34.7485 143.9 35.4113C144.279 36.0741 144.706 36.6579 145.18 37.1629C145.686 37.6678 146.239 38.0781 146.839 38.3937C147.471 38.6777 148.119 38.8197 148.783 38.8197C149.479 38.8197 150.142 38.6619 150.774 38.3464C151.407 38.0308 151.976 37.6363 152.481 37.1629C153.05 36.5632 153.524 35.8847 153.904 35.1273C154.315 34.3383 154.615 33.5335 154.804 32.713C154.836 32.6183 154.868 32.492 154.899 32.3342C154.931 32.1449 154.962 31.9555 154.994 31.7662C155.057 31.5452 155.089 31.3559 155.089 31.1981C155.121 31.0087 155.136 30.8667 155.136 30.772C155.01 30.772 154.804 30.7878 154.52 30.8194C154.267 30.8194 153.967 30.8352 153.619 30.8667C153.303 30.8667 152.971 30.8825 152.624 30.9141C152.307 30.9141 152.007 30.9141 151.723 30.9141C151.28 30.9141 150.901 30.8667 150.585 30.772C150.269 30.6774 149.953 30.4722 149.637 30.1566C149.226 29.7463 148.989 29.2887 148.925 28.7838C148.894 28.2788 148.989 27.8212 149.21 27.4109C149.431 26.9691 149.763 26.6219 150.206 26.3695C150.648 26.117 151.154 26.0381 151.723 26.1328C151.754 26.1643 151.833 26.1801 151.96 26.1801C152.971 26.117 153.967 26.0854 154.947 26.0854C155.958 26.0539 156.985 26.0223 158.028 25.9907C158.629 25.9907 159.15 26.1959 159.593 26.6062C160.036 27.0164 160.288 27.5214 160.352 28.121C160.415 28.4682 160.367 28.8153 160.209 29.1625C160.051 29.4465 159.956 29.7463 159.925 30.0619C159.925 30.3775 159.925 30.6931 159.925 31.0087C160.02 32.1764 160.099 33.3441 160.162 34.5119C160.257 35.648 160.383 36.7999 160.541 37.9676C160.604 38.2201 160.652 38.4568 160.683 38.6777C160.715 38.8671 160.762 39.088 160.826 39.3405L161.158 39.6719C161.347 39.9559 161.489 40.2715 161.584 40.6186C161.711 40.9658 161.742 41.2972 161.679 41.6128C161.616 41.8337 161.537 42.0388 161.442 42.2282C161.379 42.4175 161.268 42.5911 161.11 42.7489Z" fill="#3C2211"/>
<path d="M170.127 13.3511C170.19 14.1401 169.985 14.7871 169.511 15.292C169.036 15.797 168.467 16.0495 167.804 16.0495C167.298 16.0495 166.824 15.8917 166.381 15.5761C165.939 15.3236 165.639 14.9449 165.481 14.4399C165.323 14.0928 165.243 13.7298 165.243 13.3511C165.243 12.9724 165.259 12.5937 165.291 12.215C165.354 11.4891 165.639 10.8894 166.144 10.4161C166.682 9.94266 167.298 9.70596 167.993 9.70596C168.309 9.70596 168.625 9.7533 168.942 9.84798C169.289 9.97422 169.59 10.1794 169.842 10.4634C170.095 10.7159 170.285 11.0157 170.411 11.3628C170.538 11.6784 170.569 12.0098 170.506 12.357C170.475 12.7041 170.348 13.0355 170.127 13.3511ZM167.472 42.5596C167.061 42.7489 166.634 42.8436 166.192 42.8436C165.686 42.8436 165.228 42.7174 164.817 42.4649C164.406 42.2124 164.121 41.8179 163.963 41.2814C163.805 40.7449 163.711 40.2084 163.679 39.6719C163.647 39.1038 163.6 38.5357 163.537 37.9676C163.284 35.4113 163.252 32.855 163.442 30.2986C163.663 27.7423 164.042 25.2175 164.58 22.7243C164.706 22.03 164.975 21.4462 165.386 20.9728C165.828 20.4994 166.429 20.2627 167.187 20.2627C167.756 20.2627 168.278 20.452 168.752 20.8307C169.258 21.1779 169.574 21.6671 169.7 22.2983C169.795 23.0873 169.59 23.7658 169.084 24.3339C168.641 26.7955 168.325 29.2887 168.136 31.8135C167.978 34.3383 168.072 36.8315 168.42 39.2931C168.42 39.3563 168.436 39.4352 168.467 39.5298C168.499 39.593 168.531 39.6561 168.562 39.7192C168.626 39.9717 168.657 40.2399 168.657 40.524C168.689 40.808 168.657 41.0763 168.562 41.3287C168.436 41.5812 168.278 41.8337 168.088 42.0862C167.93 42.3071 167.725 42.4649 167.472 42.5596Z" fill="#3C2211"/>
<path d="M185.761 53.3056C185.508 53.8421 185.176 54.3155 184.766 54.7258C184.355 55.1676 183.896 55.499 183.391 55.7199C182.885 55.9724 182.348 56.0987 181.779 56.0987C181.21 56.1302 180.641 56.0197 180.072 55.7673C179.313 55.4201 178.618 54.931 177.986 54.2998C177.354 53.6686 176.848 52.9742 176.469 52.2168C175.931 51.1122 175.504 49.9603 175.188 48.761C174.872 47.5933 174.635 46.3941 174.477 45.1632C174.319 43.9324 174.209 42.7016 174.145 41.4708C174.082 40.2399 174.051 39.0091 174.051 37.7783C173.64 37.873 173.229 37.8887 172.818 37.8256C172.439 37.7309 172.091 37.5731 171.775 37.3522C171.49 37.0997 171.253 36.7999 171.064 36.4528C170.906 36.0741 170.842 35.6638 170.874 35.2219C170.937 34.7801 171.048 34.4172 171.206 34.1331C171.554 33.6597 171.996 33.281 172.533 32.997C173.071 32.6814 173.608 32.3816 174.145 32.0975C174.24 30.1724 174.351 28.263 174.477 26.3695C174.635 24.4443 174.825 22.535 175.046 20.6414C175.078 20.2627 175.141 19.6315 175.236 18.7478C175.362 17.8641 175.504 16.9331 175.663 15.9548C175.821 14.9764 175.979 14.0612 176.137 13.2091C176.326 12.3254 176.516 11.71 176.706 11.3628C176.958 10.8579 177.306 10.495 177.749 10.274C178.191 10.0531 178.649 9.95844 179.124 9.99C179.598 9.99 180.04 10.132 180.451 10.4161C180.862 10.7001 181.131 11.1104 181.257 11.6469C181.32 11.9625 181.336 12.2939 181.304 12.641C181.273 12.9566 181.178 13.2406 181.02 13.4931C180.925 13.6194 180.83 13.8718 180.736 14.2506C180.672 14.6293 180.593 15.0395 180.498 15.4814C180.435 15.8917 180.372 16.2862 180.309 16.6649C180.277 17.0436 180.246 17.3276 180.214 17.517C179.898 19.5368 179.645 21.5566 179.455 23.5764C179.297 25.5962 179.155 27.6318 179.029 29.6832C179.598 29.3992 180.151 29.1309 180.688 28.8785C181.257 28.626 181.842 28.3893 182.442 28.1684C182.632 28.1052 182.916 28.0263 183.296 27.9317C183.707 27.8054 184.133 27.695 184.576 27.6003C185.05 27.474 185.492 27.3794 185.903 27.3162C186.314 27.2531 186.615 27.2374 186.804 27.2689C187.025 27.3005 187.231 27.332 187.421 27.3636C187.61 27.3951 187.8 27.4583 187.989 27.5529C188.464 27.837 188.78 28.2157 188.938 28.6891C189.127 29.1625 189.175 29.6359 189.08 30.1093C189.017 30.5511 188.811 30.9614 188.464 31.3401C188.148 31.6873 187.721 31.8924 187.184 31.9555C186.773 32.0186 186.362 32.0818 185.951 32.1449C185.572 32.1764 185.176 32.2553 184.766 32.3816C184.291 32.5394 183.817 32.7129 183.343 32.9023C182.869 33.0917 182.395 33.2968 181.921 33.5177C183.343 34.433 184.481 35.5849 185.334 36.9735C185.682 37.5416 185.967 38.1412 186.188 38.7724C186.441 39.4036 186.646 40.0348 186.804 40.666C187.089 41.8652 187.231 43.0803 187.231 44.3111C187.263 45.542 187.231 46.757 187.136 47.9563C187.041 48.8715 186.883 49.7867 186.662 50.702C186.472 51.6172 186.172 52.4851 185.761 53.3056ZM179.74 47.5302C179.898 48.193 180.119 48.8399 180.404 49.4711C180.72 50.1023 181.099 50.6704 181.542 51.1754C181.605 51.0807 181.684 50.8755 181.779 50.5599C181.873 50.2443 181.937 50.0392 181.968 49.9445C182.411 48.1772 182.6 46.3783 182.537 44.5478C182.506 43.8219 182.427 43.0961 182.3 42.3702C182.205 41.6759 182.031 41.0131 181.779 40.3819C181.526 39.6876 181.115 39.0722 180.546 38.5357C180.009 37.9676 179.424 37.51 178.792 37.1629C178.792 38.8986 178.839 40.6344 178.934 42.3702C179.06 44.106 179.329 45.826 179.74 47.5302Z" fill="#3C2211"/>
<path d="M198.602 54.0631C198.349 54.1893 198.064 54.284 197.748 54.3471C197.464 54.4418 197.179 54.4418 196.895 54.3471C196.642 54.3155 196.389 54.2209 196.136 54.0631C195.441 53.6212 194.967 52.99 194.714 52.1695C194.588 51.7276 194.461 51.27 194.335 50.7966C194.24 50.3232 194.145 49.8656 194.05 49.4238C193.639 47.1831 193.339 44.9423 193.149 42.7016C192.96 40.4608 192.833 38.2043 192.77 35.932C192.707 33.8491 192.675 31.7977 192.675 29.7779C192.707 27.7265 192.786 25.6594 192.912 23.5764C192.691 23.608 192.328 23.6869 191.822 23.8131C191.316 23.9078 190.779 24.0183 190.21 24.1445C189.673 24.2392 191.081 24.3339 190.575 24.4285C190.07 24.4917 187.776 24.5074 187.555 24.4759C186.954 24.3812 186.449 24.0972 186.038 23.6238C185.627 23.1188 185.453 22.5665 185.516 21.9669C185.579 21.5251 185.69 21.1779 185.848 20.9254C186.164 20.4836 186.559 20.1364 187.033 19.884C187.539 19.5999 188.061 19.379 188.598 19.2212C189.135 19.0318 189.704 19.0476 190.305 19.2685C190.81 19.1423 191.3 19.0318 191.774 18.9372C192.28 18.8425 192.786 18.7478 193.292 18.6531C193.545 15.9074 193.876 13.1617 194.287 10.4161C194.35 10.1636 194.414 9.78486 194.477 9.27991C194.572 8.77495 194.667 8.25422 194.761 7.71771C194.888 7.14963 195.014 6.61312 195.141 6.10816C195.299 5.60321 195.441 5.25605 195.567 5.0667C196.041 4.40394 196.658 4.02523 197.416 3.93055C198.207 3.80431 198.886 4.02523 199.455 4.5933C199.929 5.06669 200.182 5.63477 200.214 6.29752C200.245 6.96027 200.024 7.52835 199.55 8.00174C199.202 9.64284 198.918 11.2839 198.697 12.925C198.475 14.5662 198.27 16.223 198.08 17.8957C199.25 17.7695 200.403 17.6906 201.541 17.659C202.711 17.6274 203.88 17.6117 205.05 17.6117C205.871 17.6117 206.472 17.8641 206.851 18.3691C207.262 18.8425 207.468 19.379 207.468 19.9786C207.468 20.5783 207.262 21.1306 206.851 21.6355C206.472 22.1089 205.871 22.3456 205.05 22.3456C203.817 22.3456 202.584 22.3772 201.352 22.4403C200.119 22.4718 198.902 22.5665 197.701 22.7243C197.353 28.4997 197.353 34.2909 197.701 40.0979C197.796 41.739 197.938 43.3643 198.128 44.9739C198.317 46.5834 198.602 48.193 198.981 49.8025C198.981 49.8656 199.028 49.9287 199.123 49.9919C199.218 50.055 199.281 50.1023 199.313 50.1339C199.566 50.3864 199.74 50.702 199.834 51.0807C199.929 51.4909 199.929 51.8854 199.834 52.2642C199.771 52.6429 199.629 52.99 199.408 53.3056C199.218 53.6528 198.949 53.9053 198.602 54.0631Z" fill="#3C2211"/>
<defs>
<clipPath id="clip0_227_903">
<rect width="60" height="60" fill="white"/>
</clipPath>
</defs>
</svg>
