<svg width="651" height="484" viewBox="0 0 651 484" fill="none" xmlns="http://www.w3.org/2000/svg">
<path d="M214.316 230.165C88.6207 214.729 5.97253 72.587 1.37842 0V428.631C132.655 289.774 256.352 398.999 344.214 434.144C432.077 469.289 488.24 430.698 486.517 348.004C484.794 265.31 564.043 235.334 602.289 225.686C640.535 216.038 689.132 177.127 602.289 168.834C472.39 156.43 371.434 249.46 214.316 230.165Z" fill="#E78542"/>
<path d="M207.092 243.55C89.729 229.157 5.66809 105.237 1.3785 37.5569L1.37842 404.195C123.954 274.724 239.451 369.675 321.489 402.444C403.528 435.214 462.859 430.528 461.251 353.424C459.642 276.319 533.637 227.696 569.348 218.7C613.315 207.625 650.564 180.13 569.348 186.364C429.665 197.088 353.796 261.541 207.092 243.55Z" fill="#FD9852"/>
<path d="M207.092 264.224C89.729 249.831 5.66809 133.147 1.3785 65.4661L1.37842 391.419C123.954 261.947 228.425 349.002 310.463 381.771C392.502 414.54 451.833 409.855 450.225 332.75C448.616 255.646 513.176 219.593 549.571 213.971C591.952 207.424 630.219 186.048 549.571 197.485C404.167 218.106 353.796 282.215 207.092 264.224Z" fill="#FFD7E9"/>
<path d="M208.113 277.025C95.4684 261.928 22.0518 178.711 0 132.311V365.232C108.881 260.486 235.678 321.129 326.642 355.585C417.605 390.04 428.767 367.883 417.605 308.725C403.823 235.678 341.802 294.942 208.113 277.025Z" fill="#FFC1DD"/>
<path d="M458.881 201.358C466.331 201.312 469.534 196.208 468.871 191.87C468.219 187.525 463.641 183.557 456.497 185.631C454.161 186.308 451.845 187.596 449.793 189.02C451.452 187.155 452.997 185.028 453.942 182.799C456.856 175.997 453.404 171.036 449.132 169.892C444.859 168.747 439.398 171.319 438.494 178.66C438.198 181.063 438.473 183.677 438.977 186.122C437.911 183.862 436.55 181.589 434.866 179.835C429.725 174.469 423.785 175.619 421.048 179.056C418.302 182.49 418.526 188.503 424.956 192.267C427.553 193.788 430.788 194.655 433.76 195.135C430.944 195.588 427.948 196.386 425.5 197.772C419.031 201.435 418.762 207.45 421.472 210.928C424.182 214.405 430.118 215.65 435.31 210.37C437.755 207.881 439.536 204.332 440.743 201.233C440.239 204.52 439.999 208.482 440.88 211.862C442.736 219.031 448.5 220.921 452.585 219.264C456.671 217.608 459.437 212.262 455.673 205.866C454.246 203.442 452.041 201.25 449.837 199.452C452.636 200.509 455.872 201.376 458.881 201.358Z" fill="#3C2211"/>
<path d="M454.427 199.102C459.805 199.069 462.118 195.385 461.639 192.253C461.168 189.117 457.863 186.253 452.707 187.75C451.021 188.239 449.349 189.168 447.867 190.196C449.065 188.85 450.18 187.315 450.863 185.705C452.966 180.796 450.474 177.215 447.39 176.389C444.306 175.562 440.364 177.419 439.711 182.718C439.498 184.452 439.696 186.339 440.06 188.104C439.291 186.473 438.308 184.832 437.092 183.566C433.381 179.693 429.094 180.523 427.118 183.004C425.136 185.482 425.298 189.823 429.939 192.54C431.814 193.638 434.149 194.263 436.295 194.61C434.262 194.937 432.099 195.513 430.332 196.513C425.663 199.158 425.468 203.5 427.425 206.01C429.381 208.52 433.666 209.419 437.413 205.607C439.178 203.81 440.464 201.249 441.335 199.012C440.971 201.385 440.798 204.244 441.434 206.684C442.774 211.859 446.934 213.223 449.883 212.028C452.832 210.832 454.829 206.973 452.112 202.356C451.082 200.606 449.49 199.024 447.9 197.726C449.92 198.489 452.255 199.115 454.427 199.102Z" fill="#644A39"/>
<path d="M440.913 200.479C444.795 201.52 448.78 199.24 449.812 195.387C450.845 191.534 448.534 187.567 444.651 186.527C440.769 185.487 436.784 187.767 435.752 191.619C434.719 195.472 437.03 199.439 440.913 200.479Z" fill="white"/>
<g clip-path="url(#clip0_321_32)">
<path d="M483.577 445.081C483.606 445.03 483.63 444.99 483.659 444.939C488.922 435.823 487.196 423.69 477.343 418.001C469.511 413.48 461.702 416.527 457.096 420.934C458.61 414.741 457.344 406.455 449.512 401.933C439.659 396.245 428.289 400.817 423.026 409.932C422.996 409.983 422.973 410.024 422.944 410.075C421.748 412.029 410.145 432.243 430.947 466.201C470.772 467.26 482.482 447.094 483.577 445.081Z" fill="white"/>
</g>
<defs>
<clipPath id="clip0_321_32">
<rect width="70.0131" height="64.9519" fill="white" transform="translate(433.111 392.464) rotate(30)"/>
</clipPath>
</defs>
</svg>
