<svg width="426" height="656" viewBox="0 0 426 656" fill="none" xmlns="http://www.w3.org/2000/svg">
<path d="M339.144 187.815C405.966 142.501 424.66 43.7241 425.655 0V640.956C297.382 694.617 163.14 596.238 175.073 479.971C187.005 363.705 85.5801 307.062 31.8841 265.326C-21.8118 223.589 -6.89631 169.928 70.6645 187.815C148.225 205.702 255.617 244.458 339.144 187.815Z" fill="#E78542"/>
<path d="M346.87 215.15C407.723 173.852 424.748 113.649 425.653 73.8V613.216C308.837 662.121 186.586 572.462 197.453 466.501C208.319 360.54 121.954 301.183 73.0542 263.145C24.1542 225.108 31.7367 198.848 102.37 215.15C173.003 231.451 270.803 266.772 346.87 215.15Z" fill="#FD9852"/>
<path d="M342.536 237.055C398.438 199.096 424.823 165.963 425.655 129.336V591.962C318.345 636.912 206.043 554.503 216.025 457.11C226.008 359.717 146.671 305.16 101.75 270.198C56.83 235.237 63.7955 218.554 128.681 233.538C193.566 248.521 272.66 284.502 342.536 237.055Z" fill="#FFD7E9"/>
<path d="M323.9 263.518C375.336 241.816 424.919 201.192 425.655 168.846V573.307C330.823 613.005 231.579 540.226 240.401 454.215C249.222 368.204 179.111 312.567 139.414 281.691C99.7164 250.816 98.4591 241.425 155.799 254.657C213.14 267.89 255.143 292.529 323.9 263.518Z" fill="#FFC1DD"/>
<path d="M336.942 277.84C381.785 258.921 425.013 223.507 425.654 195.309V555.352C342.978 589.959 249.745 526.514 257.436 451.534C265.127 376.554 220.402 329.544 185.793 302.628C151.185 275.712 129.336 253.082 200.079 279.061C248.219 296.739 302.654 292.306 336.942 277.84Z" fill="#F9DECA"/>
</svg>
