<svg width="102" height="96" viewBox="0 0 102 96" fill="none" xmlns="http://www.w3.org/2000/svg">
<path d="M6.00083 92.8179C6.00083 86.6514 9.36057 73.0448 11.0404 67.0124C14.7814 51.261 56.3969 86.7855 38.5903 89.4665C20.7837 92.1476 6.00083 100.526 6.00083 92.8179Z" fill="#A6CB6A"/>
<path fill-rule="evenodd" clip-rule="evenodd" d="M63.0411 92.1739C51.0943 94.3922 39.2167 90.2152 28.1966 83.9306C17.7824 77.9916 8.10649 70.018 3.78308 58.38C-0.560695 46.6871 0.0114818 33.462 5.5207 22.8902C10.6584 13.0313 21.2423 9.18035 31.3333 5.51271C41.3952 1.85567 51.7919 -1.40861 62.1981 2.29052C74.0726 6.51159 84.4233 14.9426 90.6483 26.5976C97.995 40.3529 104.631 56.9716 98.8003 70.821C92.979 84.6486 77.2235 89.5406 63.0411 92.1739Z" fill="#A6CB6A"/>
<path d="M38.0596 30.225C36.912 29.6882 36.019 28.9736 35.3806 28.0811C34.7535 27.1939 34.4087 26.2012 34.3465 25.1031C34.2892 23.9942 34.5392 22.8442 35.0963 21.6531C35.5167 20.7543 36.029 20.0108 36.6333 19.4225C37.2427 18.8233 37.9139 18.385 38.647 18.1077C39.3964 17.8247 40.1832 17.7111 41.0074 17.7666C41.8479 17.8167 42.7013 18.0443 43.5676 18.4495C44.7265 18.9915 45.6195 19.7062 46.2466 20.5934C46.8788 21.4698 47.2261 22.457 47.2884 23.5551C47.3507 24.6532 47.1033 25.7978 46.5461 26.9889C46.1257 27.8877 45.6109 28.6366 45.0015 29.2358C44.3921 29.835 43.7128 30.276 42.9634 30.5589C42.2252 30.8471 41.4359 30.9662 40.5954 30.9162C39.7712 30.8606 38.926 30.6302 38.0596 30.225ZM38.8953 28.4384C39.6266 28.7804 40.3214 28.9075 40.9796 28.8194C41.6491 28.7367 42.2632 28.4498 42.822 27.9589C43.3919 27.4733 43.877 26.8028 44.2771 25.9474C44.8849 24.648 45.0521 23.4989 44.7788 22.5001C44.5168 21.5065 43.8345 20.7519 42.7319 20.2361C42.0119 19.8993 41.3171 19.7723 40.6476 19.855C39.9832 19.927 39.366 20.2058 38.796 20.6914C38.2424 21.1715 37.7629 21.8446 37.3577 22.7109C36.755 23.9994 36.5878 25.1485 36.856 26.1582C37.1242 27.1678 37.804 27.9279 38.8953 28.4384Z" fill="#8FB05A"/>
<path d="M47.0051 34.3696C46.6788 34.217 46.4662 34.012 46.3672 33.7545C46.2795 33.5023 46.3116 33.2138 46.4635 32.889L50.9839 23.225C51.1409 22.8893 51.3443 22.6743 51.5941 22.58C51.8602 22.4801 52.1339 22.496 52.4152 22.6275C52.674 22.7486 52.8424 22.8868 52.9206 23.0421C53.0151 23.1919 53.1017 23.4172 53.1804 23.7179L55.8683 34.8136L55.4295 34.6084L59.023 26.9259C59.1699 26.6119 59.3682 26.4077 59.618 26.3134C59.8791 26.2243 60.1727 26.2561 60.499 26.4087C60.8253 26.5614 61.0323 26.7638 61.12 27.0159C61.2077 27.2681 61.1782 27.5512 61.0313 27.8652L56.4729 37.6105C56.3311 37.9137 56.1409 38.115 55.9024 38.2146C55.6638 38.3142 55.4096 38.3008 55.1395 38.1745C54.8808 38.0535 54.6954 37.9074 54.5835 37.7363C54.4828 37.5704 54.3931 37.3371 54.3144 37.0363L51.6434 25.9485L52.0653 26.1459L48.4718 33.8284C48.3199 34.1532 48.119 34.3628 47.8692 34.4571C47.6194 34.5514 47.3314 34.5222 47.0051 34.3696Z" fill="#8FB05A"/>
<path d="M59.7746 40.1842C59.4258 40.0211 59.1989 39.8027 59.0937 39.5292C58.9936 39.2448 59.0221 38.9348 59.1791 38.5991L63.5627 29.2275C63.7247 28.881 63.9363 28.6632 64.1974 28.5741C64.4747 28.4795 64.7878 28.5138 65.1366 28.6769C65.4854 28.8401 65.7067 29.0558 65.8006 29.3241C65.9108 29.5868 65.8849 29.8914 65.7228 30.2379L61.6659 38.9111L66.5601 41.2004C66.8639 41.3425 67.0591 41.5262 67.1457 41.7514C67.2435 41.982 67.2266 42.238 67.0949 42.5195C66.9633 42.801 66.775 42.9836 66.5303 43.067C66.3019 43.1449 66.0358 43.1129 65.732 42.9708L59.7746 40.1842Z" fill="#8FB05A"/>
<path d="M70.0145 45.1323C69.6658 44.9691 69.4388 44.7508 69.3336 44.4773C69.2448 44.1982 69.2814 43.8854 69.4435 43.5389L71.753 38.6013L71.6237 40.065L70.1319 32.6566C70.0768 32.3932 70.1056 32.1559 70.2181 31.9446C70.347 31.7278 70.5312 31.583 70.7709 31.5104C71.0156 31.4269 71.2899 31.4562 71.5937 31.5983C71.8187 31.7035 71.9959 31.8524 72.1253 32.0449C72.2659 32.2426 72.3674 32.4946 72.4298 32.801L73.521 38.3395L73.0484 38.1184L78.0159 35.4139C78.3073 35.2599 78.5602 35.1736 78.7746 35.1551C78.994 35.1257 79.2274 35.169 79.475 35.2847C79.7675 35.4216 79.9571 35.6026 80.0437 35.8279C80.1466 36.0476 80.1474 36.2657 80.0461 36.4823C79.9561 36.7041 79.7709 36.8947 79.4908 37.0539L72.8894 40.6571L73.9132 39.6117L71.6036 44.5493C71.2643 45.2748 70.7346 45.4691 70.0145 45.1323Z" fill="#8FB05A"/>
<path d="M52.1425 58.1325C52.5971 59.5001 53.0578 62.9138 51.6599 65.9023C51.1485 66.9957 50.4045 68.0247 49.3184 68.8493C46.7791 70.8153 42.8764 70.4556 39.572 68.91C35.729 67.1124 32.653 63.6748 33.4574 60.3642C33.6869 59.4055 33.9902 58.5701 34.3311 57.8412C36.1211 54.0144 39.2916 52.4769 41.3456 52.0162C42.0719 51.8673 42.7282 51.7745 43.3503 51.7546C43.3315 51.7014 43.2955 51.6846 43.2767 51.6313C42.937 50.6729 42.4246 48.2122 43.4133 46.0984C43.7031 45.4788 44.1007 44.9096 44.6778 44.4245C46.3733 42.9521 49.17 43.1498 51.5046 44.2418C53.911 45.3674 55.8023 47.4069 55.4357 49.5009C55.3103 50.3306 55.0582 51.0567 54.7684 51.6762C53.7285 53.8994 51.988 54.9065 50.751 55.3051C51.3554 56.1653 51.8369 57.1012 52.1425 58.1325ZM47.6569 48.3498C47.411 48.5013 47.2557 48.7396 47.1535 48.9583C46.7784 49.7601 46.9251 50.8504 47.5241 51.4415C47.6507 51.5451 47.7584 51.5955 47.8662 51.6459C48.0099 51.7131 48.1176 51.7635 48.2424 51.7775C49.0801 51.8584 50.098 51.1796 50.473 50.3778C50.6094 50.0862 50.6739 49.761 50.5966 49.4584C50.4968 48.9231 50.0963 48.4692 49.5575 48.2172C49.0188 47.9652 48.2718 47.9712 47.6569 48.3498ZM45.4154 61.4712C45.8202 61.2608 46.1155 60.9103 46.3201 60.4729C46.8826 59.2702 46.5436 57.4681 45.3225 56.8969C44.1013 56.3257 42.2019 57.3918 41.5882 58.7038C41.4348 59.0318 41.372 59.4467 41.4323 59.7858C41.5546 60.5537 42.1195 61.2177 42.8738 61.5705C43.628 61.9233 44.5716 61.9649 45.4154 61.4712Z" fill="#8FB05A"/>
<path d="M73.9554 59.3628C73.9796 62.3058 73.2379 65.2015 71.9423 67.9714C70.9195 70.1581 69.5563 72.2301 67.9229 74.1312C64.6031 77.9531 60.3459 78.5382 57.1135 77.0262C53.6655 75.4134 51.3785 71.412 52.7857 66.2512C53.4153 63.9694 54.1221 61.9902 54.9063 60.3137C56.9691 55.9038 59.4444 53.4192 61.5082 52.5634C64.3305 51.396 66.9854 51.6162 69.0685 52.5906C72.0137 53.9681 73.9573 56.8318 73.9554 59.3628ZM64.5355 67.6162C65.1126 67.131 65.5783 66.416 65.9704 65.5778C67.2319 62.8808 67.4562 59.0323 65.804 58.2595C63.9911 57.456 61.4378 60.4815 60.2104 63.1056C60.0229 63.5065 59.8883 63.8878 59.7537 64.269C59.2362 65.937 59.5673 68.224 60.9321 68.8624C61.7582 69.2488 62.927 68.996 64.5355 67.6162Z" fill="#8FB05A"/>
<path d="M14.8217 54.0291C14.1972 53.6586 13.7883 53.1312 13.595 52.4469C13.4219 51.7746 13.5198 51.1275 13.8888 50.5056C14.2697 49.8636 14.7967 49.4575 15.4697 49.2873C16.1629 49.129 16.8218 49.2351 17.4463 49.6056L18.5645 50.2691L16.989 50.5142L20.7563 44.1648L21.266 45.6471L19.6039 44.6609C19.1405 44.386 18.8369 44.0024 18.6931 43.5103C18.5612 42.998 18.6262 42.5212 18.8881 42.0799C19.1737 41.5984 19.567 41.3029 20.0679 41.1932C20.5688 41.0835 21.0509 41.1662 21.5143 41.4411L23.1764 42.4273L21.5597 42.8107L23.4523 39.621C24.2855 38.2167 25.2996 37.1503 26.4945 36.4217C27.6895 35.6932 29.0498 35.3747 30.5754 35.4661C32.101 35.5576 33.7502 36.1293 35.5231 37.1812C36.4297 37.7191 37.2667 38.3514 38.0341 39.078C38.8217 39.8165 39.4225 40.5255 39.8364 41.2051C40.2375 41.7686 40.4239 42.3267 40.3956 42.8795C40.3672 43.4323 40.1919 43.9114 39.8696 44.3169C39.5473 44.7224 39.1439 45.012 38.6595 45.1857C38.2072 45.3512 37.7237 45.3627 37.209 45.2201C36.7063 45.0574 36.2562 44.6683 35.8587 44.0528C35.5382 43.5371 35.1559 43.0797 34.7117 42.6805C34.2877 42.2933 33.8642 41.9742 33.4411 41.7232C32.4539 41.1375 31.6018 40.9438 30.8848 41.1423C30.188 41.3526 29.6015 41.8591 29.1254 42.6615L27.1614 45.9716L27.1352 44.7762L30.7616 46.9278C31.2451 47.2147 31.5588 47.6043 31.7026 48.0964C31.8464 48.5886 31.7754 49.0754 31.4898 49.5569C31.2279 49.9982 30.8406 50.2838 30.3278 50.4135C29.8269 50.5232 29.3347 50.4345 28.8512 50.1477L25.7687 48.3187L23.037 52.9228L29.5947 56.8137C30.2394 57.1962 30.6483 57.7236 30.8215 58.3959C30.9946 59.0682 30.8907 59.7254 30.5098 60.3673C30.1408 60.9892 29.6198 61.3853 28.9467 61.5556C28.2737 61.7258 27.6148 61.6197 26.9701 61.2372L14.8217 54.0291Z" fill="#8FB05A"/>
<path d="M37.6358 31.1307C36.4882 30.594 35.5952 29.8793 34.9568 28.9868C34.3296 28.0996 33.9849 27.107 33.9226 26.0089C33.8654 24.8999 34.1153 23.7499 34.6725 22.5588C35.0929 21.6601 35.6052 20.9166 36.2095 20.3282C36.8189 19.729 37.4901 19.2908 38.2232 19.0134C38.9726 18.7305 39.7594 18.6168 40.5836 18.6724C41.424 18.7224 42.2775 18.95 43.1438 19.3553C44.3026 19.8973 45.1956 20.6119 45.8228 21.4992C46.455 22.3756 46.8023 23.3628 46.8646 24.4609C46.9268 25.559 46.6794 26.7036 46.1223 27.8947C45.7019 28.7934 45.1871 29.5424 44.5777 30.1415C43.9683 30.7407 43.2889 31.1818 42.5395 31.4647C41.8014 31.7529 41.0121 31.872 40.1716 31.822C39.3474 31.7664 38.5021 31.536 37.6358 31.1307ZM38.4715 29.3441C39.2028 29.6862 39.8976 29.8132 40.5558 29.7252C41.2253 29.6424 41.8394 29.3556 42.3981 28.8647C42.9681 28.3791 43.4531 27.7086 43.8533 26.8531C44.461 25.5538 44.6283 24.4047 44.355 23.4058C44.093 22.4123 43.4107 21.6576 42.3081 21.1419C41.588 20.8051 40.8933 20.6781 40.2238 20.7608C39.5593 20.8327 38.9421 21.1115 38.3722 21.5972C37.8185 22.0772 37.3391 22.7504 36.9339 23.6166C36.3312 24.9052 36.164 26.0543 36.4322 27.0639C36.7004 28.0736 37.3802 28.8336 38.4715 29.3441Z" fill="#8FB05A"/>
<path d="M46.5813 35.2754C46.255 35.1228 46.0424 34.9177 45.9434 34.6603C45.8557 34.4081 45.8878 34.1196 46.0397 33.7947L50.5601 24.1307C50.7171 23.7951 50.9205 23.5801 51.1703 23.4858C51.4364 23.3859 51.7101 23.4017 51.9914 23.5333C52.2501 23.6543 52.4186 23.7925 52.4968 23.9479C52.5913 24.0976 52.6779 24.3229 52.7566 24.6237L55.4445 35.7194L55.0057 35.5141L58.5992 27.8316C58.746 27.5176 58.9444 27.3135 59.1942 27.2191C59.4552 27.1301 59.7489 27.1619 60.0752 27.3145C60.4014 27.4671 60.6085 27.6695 60.6962 27.9217C60.7839 28.1739 60.7543 28.457 60.6074 28.771L56.0491 38.5162C55.9073 38.8194 55.7171 39.0208 55.4786 39.1204C55.24 39.2199 54.9857 39.2066 54.7157 39.0803C54.4569 38.9592 54.2716 38.8132 54.1597 38.642C54.059 38.4762 53.9693 38.2428 53.8906 37.9421L51.2196 26.8543L51.6415 27.0516L48.048 34.7341C47.8961 35.059 47.6952 35.2685 47.4454 35.3629C47.1956 35.4572 46.9075 35.428 46.5813 35.2754Z" fill="#8FB05A"/>
<path d="M59.3508 41.09C59.002 40.9268 58.775 40.7085 58.6699 40.4349C58.5698 40.1506 58.5982 39.8406 58.7552 39.5049L63.1388 30.1332C63.3009 29.7867 63.5125 29.569 63.7735 29.4799C64.0509 29.3853 64.364 29.4196 64.7127 29.5827C65.0615 29.7458 65.2829 29.9616 65.3768 30.2298C65.487 30.4925 65.4611 30.7971 65.299 31.1436L61.2421 39.8169L66.1363 42.1061C66.4401 42.2482 66.6352 42.4319 66.7218 42.6572C66.8197 42.8877 66.8028 43.1438 66.6711 43.4253C66.5394 43.7068 66.3512 43.8893 66.1065 43.9728C65.8781 44.0507 65.612 44.0186 65.3082 43.8765L59.3508 41.09Z" fill="#8FB05A"/>
<path d="M69.5907 46.038C69.2419 45.8749 69.015 45.6566 68.9098 45.383C68.8209 45.1039 68.8576 44.7911 69.0196 44.4446L71.3292 39.507L71.1999 40.9708L69.7081 33.5623C69.653 33.299 69.6817 33.0617 69.7943 32.8504C69.9231 32.6335 70.1074 32.4888 70.3471 32.4161C70.5918 32.3326 70.8661 32.3619 71.1698 32.504C71.3949 32.6093 71.5721 32.7581 71.7014 32.9506C71.842 33.1484 71.9436 33.4004 72.006 33.7067L73.0971 39.2452L72.6246 39.0242L77.5921 36.3196C77.8835 36.1656 78.1364 36.0794 78.3507 36.0608C78.5702 36.0315 78.8036 36.0747 79.0511 36.1905C79.3437 36.3273 79.5332 36.5084 79.6198 36.7336C79.7228 36.9533 79.7236 37.1715 79.6223 37.388C79.5322 37.6099 79.3471 37.8004 79.0669 37.9597L72.4656 41.5629L73.4894 40.5175L71.1798 45.455C70.8405 46.1805 70.3108 46.3749 69.5907 46.038Z" fill="#8FB05A"/>
<path d="M51.7186 59.0383C52.1733 60.4059 52.634 63.8195 51.2361 66.8081C50.7247 67.9015 49.9807 68.9305 48.8946 69.755C46.3553 71.7211 42.4525 71.3614 39.1482 69.8158C35.3051 68.0182 32.2292 64.5806 33.0336 61.27C33.2631 60.3113 33.5663 59.4759 33.9073 58.747C35.6973 54.9202 38.8678 53.3827 40.9218 52.922C41.6481 52.7731 42.3043 52.6803 42.9265 52.6604C42.9076 52.6071 42.8717 52.5903 42.8528 52.5371C42.5132 51.5787 42.0008 49.118 42.9895 47.0041C43.2793 46.3846 43.6769 45.8154 44.254 45.3302C45.9495 43.8579 48.7462 44.0555 51.0807 45.1475C53.4872 46.2731 55.3785 48.3127 55.0119 50.4066C54.8865 51.2363 54.6344 51.9624 54.3446 52.582C53.3047 54.8052 51.5642 55.8122 50.3271 56.2109C50.9316 57.071 51.4131 58.007 51.7186 59.0383ZM47.2331 49.2556C46.9872 49.4071 46.8319 49.6454 46.7296 49.8641C46.3546 50.6659 46.5012 51.7561 47.1002 52.3472C47.2269 52.4509 47.3346 52.5013 47.4424 52.5517C47.586 52.6189 47.6938 52.6693 47.8186 52.6832C48.6562 52.7641 49.6741 52.0853 50.0492 51.2835C50.1856 50.992 50.2501 50.6668 50.1728 50.3641C50.073 49.8288 49.6724 49.375 49.1337 49.123C48.595 48.871 47.848 48.8769 47.2331 49.2556ZM44.9916 62.377C45.3964 62.1665 45.6917 61.816 45.8962 61.3787C46.4588 60.176 46.1198 58.3739 44.8986 57.8027C43.6775 57.2315 41.7781 58.2975 41.1644 59.6096C41.0109 59.9376 40.9482 60.3524 41.0085 60.6915C41.1308 61.4595 41.6957 62.1235 42.4499 62.4763C43.2042 62.8291 44.1478 62.8707 44.9916 62.377Z" fill="#8FB05A"/>
<path d="M73.5315 60.2685C73.5557 63.2115 72.8141 66.1073 71.5185 68.8771C70.4957 71.0639 69.1325 73.1358 67.4991 75.037C64.1793 78.8589 59.9221 79.444 56.6896 77.932C53.2416 76.3192 50.9547 72.3178 52.3618 67.157C52.9914 64.8751 53.6983 62.896 54.4825 61.2195C56.5452 56.8096 59.0206 54.325 61.0844 53.4691C63.9067 52.3018 66.5615 52.5219 68.6447 53.4963C71.5898 54.8739 73.5335 57.7375 73.5315 60.2685ZM64.1116 68.5219C64.6888 68.0367 65.1545 67.3218 65.5466 66.4835C66.8081 63.7866 67.0323 59.9381 65.3802 59.1653C63.5673 58.3618 61.014 61.3873 59.7866 64.0114C59.599 64.4123 59.4645 64.7935 59.3299 65.1748C58.8124 66.8428 59.1434 69.1297 60.5083 69.7681C61.3343 70.1545 62.5032 69.9017 64.1116 68.5219Z" fill="#8FB05A"/>
<path d="M14.3979 54.9349C13.7734 54.5643 13.3645 54.0369 13.1712 53.3527C12.9981 52.6803 13.096 52.0332 13.465 51.4113C13.8459 50.7694 14.3729 50.3633 15.0459 50.193C15.7391 50.0347 16.398 50.1408 17.0225 50.5114L18.1406 51.1748L16.5652 51.4199L20.3324 45.0706L20.8421 46.5529L19.18 45.5667C18.7167 45.2918 18.4131 44.9082 18.2693 44.416C18.1374 43.9038 18.2024 43.427 18.4642 42.9857C18.7499 42.5042 19.1432 42.2086 19.6441 42.099C20.145 41.9893 20.6271 42.0719 21.0905 42.3469L22.7526 43.3331L21.1359 43.7164L23.0285 40.5267C23.8617 39.1224 24.8757 38.056 26.0707 37.3275C27.2657 36.5989 28.6259 36.2804 30.1515 36.3719C31.6771 36.4634 33.3264 37.0351 35.0993 38.087C36.0059 38.6249 36.8429 39.2571 37.6103 39.9837C38.3979 40.7222 38.9986 41.4313 39.4126 42.1109C39.8137 42.6744 40.0001 43.2325 39.9717 43.7853C39.9434 44.338 39.7681 44.8172 39.4458 45.2227C39.1235 45.6281 38.7201 45.9177 38.2357 46.0914C37.7834 46.257 37.2999 46.2685 36.7852 46.1259C36.2825 45.9632 35.8324 45.5741 35.4349 44.9585C35.1144 44.4429 34.732 43.9854 34.2879 43.5863C33.8639 43.1991 33.4403 42.88 33.0172 42.629C32.0301 42.0432 31.178 41.8496 30.461 42.048C29.7641 42.2584 29.1777 42.7648 28.7015 43.5673L26.7376 46.8773L26.7114 45.6819L30.3378 47.8336C30.8213 48.1205 31.1349 48.51 31.2787 49.0022C31.4225 49.4944 31.3516 49.9812 31.0659 50.4627C30.8041 50.904 30.4167 51.1895 29.904 51.3193C29.4031 51.4289 28.9109 51.3403 28.4273 51.0534L25.3449 49.2245L22.6132 53.8285L29.1709 57.7195C29.8156 58.102 30.2245 58.6294 30.3976 59.3017C30.5707 59.974 30.4669 60.6311 30.086 61.2731C29.717 61.895 29.1959 62.2911 28.5229 62.4613C27.8499 62.6316 27.191 62.5255 26.5463 62.1429L14.3979 54.9349Z" fill="#8FB05A"/>
<path d="M37.2139 32.0365C36.0663 31.4997 35.1733 30.7851 34.5349 29.8926C33.9078 29.0054 33.563 28.0127 33.5007 26.9146C33.4435 25.8057 33.6935 24.6557 34.2506 23.4646C34.671 22.5659 35.1833 21.8223 35.7876 21.234C36.397 20.6348 37.0682 20.1965 37.8013 19.9192C38.5507 19.6363 39.3375 19.5226 40.1617 19.5782C41.0022 19.6282 41.8556 19.8558 42.7219 20.261C43.8808 20.8031 44.7738 21.5177 45.4009 22.4049C46.0331 23.2813 46.3804 24.2686 46.4427 25.3667C46.505 26.4648 46.2576 27.6094 45.7004 28.8004C45.28 29.6992 44.7652 30.4481 44.1558 31.0473C43.5464 31.6465 42.8671 32.0875 42.1177 32.3705C41.3795 32.6586 40.5902 32.7777 39.7497 32.7277C38.9255 32.6721 38.0803 32.4417 37.2139 32.0365ZM38.0496 30.2499C38.7809 30.592 39.4757 30.719 40.1339 30.631C40.8034 30.5482 41.4175 30.2614 41.9763 29.7705C42.5462 29.2848 43.0313 28.6143 43.4314 27.7589C44.0392 26.4595 44.2064 25.3104 43.9331 24.3116C43.6711 23.318 42.9888 22.5634 41.8862 22.0476C41.1662 21.7108 40.4714 21.5838 39.8019 21.6666C39.1375 21.7385 38.5203 22.0173 37.9503 22.5029C37.3966 22.983 36.9172 23.6561 36.512 24.5224C35.9093 25.8109 35.7421 26.96 36.0103 27.9697C36.2785 28.9793 36.9583 29.7394 38.0496 30.2499Z" fill="#8FB05A"/>
<path d="M46.1594 36.1812C45.8331 36.0285 45.6205 35.8235 45.5215 35.5661C45.4338 35.3139 45.4659 35.0254 45.6178 34.7005L50.1382 25.0365C50.2952 24.7008 50.4986 24.4858 50.7484 24.3915C51.0145 24.2916 51.2882 24.3075 51.5695 24.4391C51.8283 24.5601 51.9967 24.6983 52.0749 24.8536C52.1694 25.0034 52.256 25.2287 52.3347 25.5294L55.0226 36.6251L54.5838 36.4199L58.1773 28.7374C58.3242 28.4234 58.5225 28.2192 58.7723 28.1249C59.0334 28.0359 59.327 28.0676 59.6533 28.2203C59.9796 28.3729 60.1866 28.5753 60.2743 28.8275C60.362 29.0797 60.3325 29.3628 60.1856 29.6768L55.6272 39.422C55.4854 39.7252 55.2952 39.9266 55.0567 40.0261C54.8181 40.1257 54.5639 40.1123 54.2938 39.986C54.0351 39.865 53.8497 39.7189 53.7378 39.5478C53.6371 39.3819 53.5474 39.1486 53.4687 38.8478L50.7977 27.7601L51.2196 27.9574L47.6261 35.6399C47.4742 35.9647 47.2733 36.1743 47.0235 36.2686C46.7737 36.3629 46.4857 36.3338 46.1594 36.1812Z" fill="#8FB05A"/>
<path d="M58.9289 41.9957C58.5801 41.8326 58.3532 41.6142 58.248 41.3407C58.1479 41.0563 58.1764 40.7463 58.3334 40.4106L62.717 31.039C62.879 30.6925 63.0906 30.4747 63.3517 30.3857C63.629 30.2911 63.9421 30.3253 64.2909 30.4885C64.6397 30.6516 64.861 30.8673 64.9549 31.1356C65.0651 31.3983 65.0392 31.7029 64.8771 32.0494L60.8202 40.7227L65.7144 43.0119C66.0182 43.154 66.2134 43.3377 66.3 43.563C66.3978 43.7935 66.3809 44.0495 66.2492 44.331C66.1175 44.6126 65.9293 44.7951 65.6846 44.8786C65.4562 44.9565 65.1901 44.9244 64.8863 44.7823L58.9289 41.9957Z" fill="#8FB05A"/>
<path d="M69.1688 46.9438C68.8201 46.7807 68.5931 46.5623 68.4879 46.2888C68.3991 46.0097 68.4357 45.6969 68.5978 45.3504L70.9073 40.4128L70.778 41.8766L69.2862 34.4681C69.2311 34.2048 69.2599 33.9674 69.3724 33.7561C69.5013 33.5393 69.6855 33.3945 69.9252 33.3219C70.1699 33.2384 70.4442 33.2677 70.748 33.4098C70.973 33.515 71.1502 33.6639 71.2795 33.8564C71.4202 34.0541 71.5217 34.3062 71.5841 34.6125L72.6753 40.151L72.2027 39.93L77.1702 37.2254C77.4616 37.0714 77.7145 36.9851 77.9289 36.9666C78.1483 36.9373 78.3817 36.9805 78.6293 37.0963C78.9218 37.2331 79.1114 37.4141 79.198 37.6394C79.3009 37.8591 79.3017 38.0772 79.2004 38.2938C79.1104 38.5156 78.9252 38.7062 78.645 38.8655L72.0437 42.4686L73.0675 41.4232L70.7579 46.3608C70.4186 47.0863 69.8889 47.2806 69.1688 46.9438Z" fill="#8FB05A"/>
<path d="M51.2967 59.944C51.7514 61.3116 52.2121 64.7253 50.8142 67.7138C50.3028 68.8072 49.5588 69.8362 48.4727 70.6608C45.9334 72.6268 42.0306 72.2672 38.7263 70.7216C34.8833 68.924 31.8073 65.4863 32.6117 62.1757C32.8412 61.217 33.1445 60.3816 33.4854 59.6527C35.2754 55.8259 38.4459 54.2884 40.4999 53.8278C41.2262 53.6789 41.8825 53.5861 42.5046 53.5661C42.4858 53.5129 42.4498 53.4961 42.431 53.4428C42.0913 52.4844 41.5789 50.0237 42.5676 47.9099C42.8574 47.2903 43.255 46.7212 43.8321 46.236C45.5276 44.7636 48.3243 44.9613 50.6589 46.0533C53.0653 47.1789 54.9566 49.2185 54.59 51.3124C54.4646 52.1421 54.2125 52.8682 53.9227 53.4878C52.8828 55.7109 51.1423 56.718 49.9053 57.1166C50.5097 57.9768 50.9912 58.9127 51.2967 59.944ZM46.8112 50.1614C46.5653 50.3128 46.41 50.5512 46.3078 50.7698C45.9327 51.5716 46.0794 52.6619 46.6784 53.253C46.805 53.3566 46.9127 53.407 47.0205 53.4574C47.1642 53.5246 47.2719 53.575 47.3967 53.589C48.2344 53.6699 49.2523 52.9911 49.6273 52.1893C49.7637 51.8977 49.8282 51.5726 49.7509 51.2699C49.6511 50.7346 49.2506 50.2807 48.7118 50.0287C48.1731 49.7767 47.4261 49.7827 46.8112 50.1614ZM44.5697 63.2827C44.9745 63.0723 45.2698 62.7218 45.4744 62.2845C46.0369 61.0817 45.6979 59.2797 44.4768 58.7085C43.2556 58.1373 41.3562 59.2033 40.7425 60.5153C40.5891 60.8433 40.5263 61.2582 40.5866 61.5973C40.7089 62.3652 41.2738 63.0292 42.0281 63.382C42.7823 63.7348 43.7259 63.7764 44.5697 63.2827Z" fill="#8FB05A"/>
<path d="M73.1097 61.1743C73.1339 64.1173 72.3922 67.013 71.0966 69.7829C70.0738 71.9696 68.7106 74.0416 67.0772 75.9427C63.7574 79.7647 59.5002 80.3497 56.2678 78.8377C52.8198 77.2249 50.5328 73.2235 51.94 68.0627C52.5696 65.7809 53.2764 63.8017 54.0606 62.1252C56.1234 57.7153 58.5987 55.2308 60.6625 54.3749C63.4848 53.2075 66.1397 53.4277 68.2228 54.4021C71.168 55.7797 73.1116 58.6433 73.1097 61.1743ZM63.6898 69.4277C64.2669 68.9425 64.7326 68.2276 65.1247 67.3893C66.3862 64.6923 66.6105 60.8439 64.9583 60.0711C63.1454 59.2675 60.5921 62.2931 59.3647 64.9171C59.1772 65.318 59.0426 65.6993 58.908 66.0806C58.3905 67.7485 58.7216 70.0355 60.0864 70.6739C60.9125 71.0603 62.0813 70.8075 63.6898 69.4277Z" fill="#8FB05A"/>
<path d="M13.976 55.8407C13.3515 55.4701 12.9426 54.9427 12.7493 54.2584C12.5762 53.5861 12.6741 52.939 13.0431 52.3171C13.424 51.6751 13.951 51.269 14.624 51.0988C15.3172 50.9405 15.9761 51.0466 16.6006 51.4172L17.7188 52.0806L16.1433 52.3257L19.9106 45.9763L20.4203 47.4586L18.7582 46.4725C18.2948 46.1975 17.9912 45.814 17.8474 45.3218C17.7155 44.8096 17.7805 44.3328 18.0424 43.8914C18.328 43.4099 18.7213 43.1144 19.2222 43.0047C19.7231 42.8951 20.2052 42.9777 20.6686 43.2526L22.3307 44.2388L20.714 44.6222L22.6066 41.4325C23.4398 40.0282 24.4539 38.9618 25.6488 38.2332C26.8438 37.5047 28.2041 37.1862 29.7297 37.2777C31.2553 37.3691 32.9045 37.9408 34.6774 38.9927C35.584 39.5307 36.421 40.1629 37.1884 40.8895C37.976 41.628 38.5768 42.3371 38.9907 43.0166C39.3918 43.5801 39.5782 44.1383 39.5499 44.691C39.5215 45.2438 39.3462 45.7229 39.0239 46.1284C38.7016 46.5339 38.2982 46.8235 37.8138 46.9972C37.3615 47.1628 36.878 47.1742 36.3633 47.0316C35.8606 46.869 35.4105 46.4798 35.013 45.8643C34.6925 45.3486 34.3101 44.8912 33.866 44.4921C33.442 44.1049 33.0185 43.7858 32.5954 43.5347C31.6082 42.949 30.7561 42.7554 30.0391 42.9538C29.3423 43.1642 28.7558 43.6706 28.2797 44.473L26.3157 47.7831L26.2895 46.5877L29.9159 48.7394C30.3994 49.0262 30.7131 49.4158 30.8569 49.908C31.0007 50.4001 30.9297 50.887 30.6441 51.3684C30.3822 51.8098 29.9949 52.0953 29.4821 52.225C28.9812 52.3347 28.489 52.2461 28.0055 51.9592L24.923 50.1303L22.1913 54.7343L28.749 58.6252C29.3937 59.0077 29.8026 59.5351 29.9757 60.2075C30.1489 60.8798 30.045 61.5369 29.6641 62.1789C29.2951 62.8008 28.7741 63.1968 28.101 63.3671C27.428 63.5373 26.7691 63.4312 26.1244 63.0487L13.976 55.8407Z" fill="#8FB05A"/>
<path d="M38.4835 29.3192C37.3359 28.7824 36.4429 28.0678 35.8045 27.1753C35.1773 26.2881 34.8326 25.2954 34.7703 24.1973C34.7131 23.0884 34.963 21.9384 35.5201 20.7473C35.9405 19.8486 36.4529 19.105 37.0572 18.5167C37.6665 17.9175 38.3377 17.4793 39.0708 17.2019C39.8202 16.919 40.607 16.8053 41.4312 16.8609C42.2717 16.9109 43.1251 17.1385 43.9914 17.5437C45.1503 18.0858 46.0433 18.8004 46.6704 19.6876C47.3027 20.564 47.6499 21.5513 47.7122 22.6494C47.7745 23.7475 47.5271 24.8921 46.97 26.0832C46.5496 26.9819 46.0347 27.7308 45.4253 28.33C44.816 28.9292 44.1366 29.3702 43.3872 29.6532C42.649 29.9414 41.8597 30.0604 41.0192 30.0104C40.195 29.9548 39.3498 29.7244 38.4835 29.3192ZM39.3192 27.5326C40.0505 27.8747 40.7452 28.0017 41.4035 27.9137C42.073 27.8309 42.6871 27.5441 43.2458 27.0532C43.8158 26.5676 44.3008 25.897 44.7009 25.0416C45.3087 23.7423 45.4759 22.5932 45.2027 21.5943C44.9406 20.6008 44.2583 19.8461 43.1557 19.3304C42.4357 18.9936 41.7409 18.8665 41.0714 18.9493C40.407 19.0212 39.7898 19.3 39.2198 19.7856C38.6662 20.2657 38.1868 20.9389 37.7816 21.8051C37.1789 23.0936 37.0116 24.2427 37.2798 25.2524C37.548 26.2621 38.2278 27.0221 39.3192 27.5326Z" fill="white"/>
<path d="M47.4289 33.4639C47.1026 33.3113 46.89 33.1062 46.791 32.8488C46.7033 32.5966 46.7354 32.3081 46.8874 31.9832L51.4077 22.3192C51.5647 21.9835 51.7681 21.7685 52.0179 21.6742C52.284 21.5744 52.5577 21.5902 52.839 21.7218C53.0978 21.8428 53.2663 21.981 53.3444 22.1363C53.4389 22.2861 53.5255 22.5114 53.6043 22.8122L56.2921 33.9078L55.8533 33.7026L59.4468 26.0201C59.5937 25.7061 59.792 25.5019 60.0418 25.4076C60.3029 25.3186 60.5965 25.3504 60.9228 25.503C61.2491 25.6556 61.4561 25.858 61.5438 26.1102C61.6316 26.3624 61.602 26.6455 61.4551 26.9595L56.8968 36.7047C56.755 37.0079 56.5648 37.2093 56.3262 37.3088C56.0877 37.4084 55.8334 37.3951 55.5634 37.2688C55.3046 37.1477 55.1192 37.0016 55.0073 36.8305C54.9066 36.6646 54.8169 36.4313 54.7382 36.1306L52.0672 25.0428L52.4891 25.2401L48.8957 32.9226C48.7437 33.2474 48.5428 33.457 48.293 33.5513C48.0432 33.6456 47.7552 33.6165 47.4289 33.4639Z" fill="white"/>
<path d="M60.1985 39.2784C59.8497 39.1153 59.6227 38.897 59.5175 38.6234C59.4174 38.3391 59.4459 38.029 59.6029 37.6934L63.9865 28.3217C64.1486 27.9752 64.3601 27.7574 64.6212 27.6684C64.8985 27.5738 65.2116 27.608 65.5604 27.7712C65.9092 27.9343 66.1305 28.15 66.2244 28.4183C66.3347 28.681 66.3088 28.9856 66.1467 29.3321L62.0898 38.0054L66.9839 40.2946C67.2877 40.4367 67.4829 40.6204 67.5695 40.8457C67.6674 41.0762 67.6504 41.3322 67.5188 41.6138C67.3871 41.8953 67.1989 42.0778 66.9541 42.1613C66.7257 42.2392 66.4596 42.2071 66.1558 42.065L60.1985 39.2784Z" fill="white"/>
<path d="M70.4384 44.2265C70.0896 44.0634 69.8626 43.845 69.7575 43.5715C69.6686 43.2924 69.7052 42.9796 69.8673 42.6331L72.1768 37.6955L72.0475 39.1593L70.5558 31.7508C70.5007 31.4875 70.5294 31.2502 70.6419 31.0389C70.7708 30.822 70.9551 30.6772 71.1947 30.6046C71.4395 30.5211 71.7137 30.5504 72.0175 30.6925C72.2425 30.7978 72.4197 30.9466 72.5491 31.1391C72.6897 31.3369 72.7912 31.5889 72.8536 31.8952L73.9448 37.4337L73.4723 37.2127L78.4397 34.5081C78.7312 34.3541 78.984 34.2678 79.1984 34.2493C79.4178 34.22 79.6513 34.2632 79.8988 34.379C80.1913 34.5158 80.3809 34.6969 80.4675 34.9221C80.5704 35.1418 80.5712 35.36 80.4699 35.5765C80.3799 35.7983 80.1948 35.9889 79.9146 36.1482L73.3133 39.7513L74.337 38.7059L72.0275 43.6435C71.6881 44.369 71.1584 44.5633 70.4384 44.2265Z" fill="white"/>
<path d="M52.5663 57.2268C53.021 58.5943 53.4816 62.008 52.0837 64.9966C51.5723 66.0899 50.8283 67.1189 49.7423 67.9435C47.203 69.9096 43.3002 69.5499 39.9959 68.0043C36.1528 66.2067 33.0769 62.769 33.8812 59.4585C34.1108 58.4998 34.414 57.6644 34.7549 56.9354C36.5449 53.1087 39.7155 51.5711 41.7695 51.1105C42.4957 50.9616 43.152 50.8688 43.7742 50.8489C43.7553 50.7956 43.7194 50.7788 43.7005 50.7256C43.3609 49.7671 42.8484 47.3065 43.8372 45.1926C44.127 44.573 44.5245 44.0039 45.1017 43.5187C46.7972 42.0464 49.5938 42.244 51.9284 43.336C54.3348 44.4616 56.2261 46.5012 55.8596 48.5951C55.7341 49.4248 55.482 50.1509 55.1922 50.7705C54.1523 52.9937 52.4118 54.0007 51.1748 54.3993C51.7792 55.2595 52.2607 56.1954 52.5663 57.2268ZM48.0808 47.4441C47.8348 47.5956 47.6796 47.8339 47.5773 48.0525C47.2022 48.8544 47.3489 49.9446 47.9479 50.5357C48.0745 50.6394 48.1823 50.6898 48.29 50.7402C48.4337 50.8074 48.5414 50.8578 48.6662 50.8717C49.5039 50.9526 50.5218 50.2738 50.8968 49.472C51.0332 49.1804 51.0978 48.8553 51.0205 48.5526C50.9206 48.0173 50.5201 47.5634 49.9814 47.3114C49.4426 47.0594 48.6956 47.0654 48.0808 47.4441ZM45.8392 60.5654C46.2441 60.355 46.5393 60.0045 46.7439 59.5672C47.3065 58.3645 46.9675 56.5624 45.7463 55.9912C44.5251 55.42 42.6257 56.486 42.012 57.798C41.8586 58.126 41.7959 58.5409 41.8561 58.88C41.9784 59.6479 42.5433 60.312 43.2976 60.6648C44.0518 61.0176 44.9954 61.0591 45.8392 60.5654Z" fill="white"/>
<path d="M74.3792 58.457C74.4034 61.4 73.6618 64.2957 72.3662 67.0656C71.3433 69.2523 69.9802 71.3243 68.3467 73.2255C65.0269 77.0474 60.7698 77.6324 57.5373 76.1204C54.0893 74.5076 51.8024 70.5062 53.2095 65.3455C53.8391 63.0636 54.546 61.0844 55.3301 59.4079C57.3929 54.998 59.8683 52.5135 61.932 51.6576C64.7543 50.4902 67.4092 50.7104 69.4923 51.6848C72.4375 53.0624 74.3812 55.926 74.3792 58.457ZM64.9593 66.7104C65.5364 66.2252 66.0022 65.5103 66.3943 64.672C67.6558 61.975 67.88 58.1266 66.2278 57.3538C64.415 56.5502 61.8616 59.5758 60.6342 62.1999C60.4467 62.6008 60.3121 62.982 60.1776 63.3633C59.66 65.0312 59.9911 67.3182 61.3559 67.9566C62.182 68.343 63.3508 68.0902 64.9593 66.7104Z" fill="white"/>
<path d="M15.2456 53.1234C14.621 52.7528 14.2121 52.2254 14.0188 51.5411C13.8457 50.8688 13.9437 50.2217 14.3127 49.5998C14.6935 48.9579 15.2205 48.5518 15.8936 48.3815C16.5867 48.2232 17.2456 48.3293 17.8702 48.6999L18.9883 49.3633L17.4128 49.6084L21.1801 43.259L21.6898 44.7413L20.0277 43.7552C19.5643 43.4802 19.2607 43.0967 19.1169 42.6045C18.985 42.0923 19.05 41.6155 19.3119 41.1741C19.5976 40.6927 19.9908 40.3971 20.4917 40.2874C20.9926 40.1778 21.4747 40.2604 21.9381 40.5354L23.6002 41.5215L21.9835 41.9049L23.8761 38.7152C24.7093 37.3109 25.7234 36.2445 26.9184 35.516C28.1133 34.7874 29.4736 34.4689 30.9992 34.5604C32.5248 34.6518 34.174 35.2235 35.9469 36.2755C36.8535 36.8134 37.6905 37.4456 38.458 38.1722C39.2455 38.9107 39.8463 39.6198 40.2602 40.2994C40.6614 40.8628 40.8478 41.421 40.8194 41.9737C40.7911 42.5265 40.6157 43.0056 40.2934 43.4111C39.9711 43.8166 39.5678 44.1062 39.0834 44.2799C38.631 44.4455 38.1475 44.457 37.6329 44.3143C37.1301 44.1517 36.68 43.7626 36.2826 43.147C35.962 42.6313 35.5797 42.1739 35.1355 41.7748C34.7115 41.3876 34.288 41.0685 33.8649 40.8174C32.8777 40.2317 32.0256 40.0381 31.3086 40.2365C30.6118 40.4469 30.0253 40.9533 29.5492 41.7557L27.5852 45.0658L27.559 43.8704L31.1854 46.0221C31.6689 46.309 31.9826 46.6985 32.1264 47.1907C32.2702 47.6828 32.1993 48.1697 31.9136 48.6511C31.6517 49.0925 31.2644 49.378 30.7516 49.5077C30.2507 49.6174 29.7585 49.5288 29.275 49.2419L26.1926 47.413L23.4608 52.017L30.0186 55.9079C30.6633 56.2904 31.0722 56.8179 31.2453 57.4902C31.4184 58.1625 31.3145 58.8196 30.9336 59.4616C30.5646 60.0835 30.0436 60.4795 29.3706 60.6498C28.6975 60.8201 28.0387 60.7139 27.394 60.3314L15.2456 53.1234Z" fill="white"/>
</svg>
