<svg width="40" height="40" viewBox="0 0 40 40" fill="none" xmlns="http://www.w3.org/2000/svg">
<g clip-path="url(#clip0_129_376)">
<path d="M20 0C8.95437 0 0 8.95453 0 20C0 31.0462 8.95453 40 20 40C31.0464 40 40 31.0462 40 20C40 8.95531 31.0464 0.00109375 19.9997 0.00109375L19.9998 0.00015625L20 0ZM29.1717 28.8459C28.8134 29.4334 28.0444 29.6197 27.4569 29.2591C22.7611 26.3908 16.8498 25.7411 9.88813 27.3317C9.56575 27.4051 9.22743 27.3474 8.94756 27.1714C8.66768 26.9954 8.46916 26.7155 8.39563 26.3931C8.35898 26.2335 8.35418 26.0683 8.38148 25.9069C8.40879 25.7454 8.46767 25.591 8.55475 25.4523C8.64183 25.3137 8.75541 25.1936 8.88897 25.0989C9.02254 25.0042 9.17347 24.9368 9.33313 24.9005C16.9519 23.1598 23.4867 23.9092 28.7586 27.1311C29.3461 27.4917 29.5323 28.2584 29.1717 28.8459ZM31.6197 23.4002C31.1681 24.1338 30.2081 24.3655 29.475 23.9141C24.0991 20.6097 15.9042 19.6527 9.54562 21.5828C8.72094 21.8319 7.85 21.3672 7.59969 20.5439C7.35125 19.7192 7.81625 18.8498 8.63953 18.5992C15.9028 16.3952 24.9325 17.4628 31.1063 21.2566C31.8394 21.7081 32.0711 22.668 31.6197 23.4002ZM31.8298 17.7294C25.3839 13.9006 14.7491 13.5484 8.59484 15.4166C7.60656 15.7163 6.56141 15.1583 6.26203 14.17C5.9625 13.1813 6.51984 12.1369 7.50891 11.8364C14.5734 9.69172 26.3178 10.1062 33.7389 14.5119C34.6298 15.0394 34.9211 16.1875 34.3933 17.0752C33.868 17.9642 32.7167 18.2572 31.8308 17.7294H31.8298Z" fill="#1ED760"/>
</g>
<defs>
<clipPath id="clip0_129_376">
<rect width="40" height="40" fill="white"/>
</clipPath>
</defs>
</svg>
