<svg width="25" height="20" viewBox="0 0 25 20" fill="none" xmlns="http://www.w3.org/2000/svg">
<path d="M24.5 2.55705C23.617 2.94905 22.668 3.21305 21.672 3.33205C22.689 2.72305 23.47 1.75805 23.837 0.608047C22.886 1.17205 21.832 1.58205 20.71 1.80305C19.813 0.846047 18.532 0.248047 17.116 0.248047C13.937 0.248047 11.601 3.21405 12.319 6.29305C8.228 6.08805 4.6 4.12805 2.171 1.14905C0.881 3.36205 1.502 6.25705 3.694 7.72305C2.888 7.69705 2.128 7.47605 1.465 7.10705C1.411 9.38805 3.046 11.522 5.414 11.997C4.721 12.185 3.962 12.229 3.19 12.081C3.816 14.037 5.634 15.46 7.79 15.5C5.72 17.123 3.112 17.848 0.5 17.54C2.679 18.937 5.268 19.752 8.048 19.752C17.19 19.752 22.355 12.031 22.043 5.10605C23.005 4.41105 23.84 3.54405 24.5 2.55705Z" fill="white"/>
</svg>
