<svg width="471" height="162" viewBox="0 0 471 162" fill="none" xmlns="http://www.w3.org/2000/svg">
<path d="M160.248 52.9257V53.4057C160.248 59.8377 153.528 65.7897 146.904 65.7897C145.08 65.7897 143.256 65.3097 141.528 64.3497C137.4 61.8537 135.48 58.8777 135.48 54.4617C135.48 51.5817 136.344 47.9337 137.976 43.6137C138.168 43.1337 138.264 42.7497 138.264 42.2697C138.264 39.4857 134.904 37.6617 131.64 37.6617C129.336 37.6617 127.032 38.5257 125.88 40.6377C125.592 41.1177 125.496 41.5977 125.496 42.1737C125.496 45.4377 128.664 50.6217 128.664 55.5177C128.664 56.7657 128.376 58.0137 127.896 59.1657C126.264 63.1017 122.328 65.6937 117.624 65.6937C116.952 65.6937 116.184 65.5977 115.416 65.5017C115.416 65.5017 106.488 64.8297 106.488 54.3657C106.488 50.8137 107.448 46.3017 110.136 40.2537C121.656 13.8537 122.52 5.50168 128.76 1.85368C130.104 1.08568 131.736 0.60568 133.464 0.60568C137.592 0.60568 142.392 3.38968 145.176 11.2617C149.784 24.5097 159.672 42.7497 160.248 52.9257ZM130.296 27.7737C130.296 27.7737 131.064 27.9657 132.024 27.9657C133.56 27.9657 135.576 27.3897 135.576 24.6057V24.3177C135.48 21.0537 134.04 18.8457 132.504 18.8457C131.64 18.8457 130.872 19.4217 130.104 20.8617C129.144 22.7817 128.664 24.2217 128.664 25.3737C128.664 26.6217 129.24 27.3897 130.296 27.7737Z" fill="#3C2211"/>
<path d="M199.023 32.5737C202.191 34.1097 205.263 39.2937 205.551 50.1417C205.647 53.5017 206.799 56.9577 206.799 59.7417C206.799 63.2937 204.975 65.6937 196.911 65.6937H195.855C190.383 65.5017 187.119 64.0617 186.639 60.5097C186.543 60.1257 186.543 59.7417 186.543 59.2617C186.543 55.0377 189.039 50.5257 189.039 46.3017C189.039 45.4377 188.943 44.5737 188.655 43.7097C188.271 42.4617 186.735 41.5977 185.295 41.5977C183.855 41.5977 182.607 42.4617 182.607 44.7657C182.607 45.1497 182.607 45.6297 182.703 46.1097C183.567 51.0057 184.815 55.3257 184.815 58.5897C184.815 63.1977 182.607 65.8857 174.351 65.8857C164.271 65.8857 161.967 62.6217 161.967 58.4937C161.967 56.4777 162.447 54.2697 162.927 52.1577C163.791 48.4137 164.751 42.7497 164.751 36.0297C164.751 31.0377 164.271 25.4697 162.735 19.5177C162.255 17.5017 161.967 15.6777 161.967 14.0457C161.967 2.52568 173.775 0.413677 181.647 0.413677H183.663C192.207 0.797678 202.287 5.40568 202.287 16.7337C202.287 17.5017 202.191 18.2697 202.095 19.1337C200.943 29.2137 185.679 28.5417 185.679 32.5737C185.679 32.8617 185.775 33.1497 185.967 33.5337C186.063 33.7257 186.255 33.8217 186.543 33.8217C187.887 33.8217 190.767 31.3257 194.607 31.3257C195.951 31.3257 197.487 31.7097 199.023 32.5737ZM178.191 20.8617C178.671 21.0537 179.247 21.1497 179.823 21.1497C182.895 21.1497 187.311 18.6537 187.407 15.4857V15.3897C187.407 12.9897 184.047 11.7417 181.071 11.7417C179.343 11.7417 177.807 12.1257 176.943 12.8937C176.271 13.4697 175.695 15.0057 175.695 16.6377C175.695 18.2697 176.367 19.9977 178.191 20.8617Z" fill="#3C2211"/>
<path d="M218.257 49.2777C219.697 42.5577 221.137 34.9737 221.137 28.6377C221.137 23.9337 220.369 19.9977 218.257 17.5977C216.913 16.0617 215.473 15.5817 214.225 15.5817C212.497 15.5817 210.961 16.3497 209.809 16.7337C209.425 16.8297 209.041 16.9257 208.753 16.9257C206.449 16.9257 204.241 14.3337 204.241 10.8777C204.241 8.66968 205.201 6.17368 207.409 3.67768C209.713 1.18168 212.401 0.509682 215.473 0.509682C219.121 0.509682 223.345 1.37368 228.337 1.46968H229.393C234.289 1.46968 238.225 0.893677 241.297 0.893677C245.329 0.893677 248.113 1.75768 250.129 5.69368C251.089 7.51768 251.569 9.34168 251.569 10.9737C251.569 14.4297 249.553 17.0217 247.249 17.0217C246.673 17.0217 246.001 16.8297 245.425 16.5417C243.985 15.7737 242.641 15.3897 241.489 15.3897C239.281 15.3897 237.649 16.8297 236.785 19.9017C236.497 21.1497 236.305 22.7817 236.305 24.7017C236.305 30.7497 237.649 39.7737 239.857 48.7017C240.529 51.5817 240.913 53.9817 240.913 56.0937C240.913 63.0057 237.073 65.7897 228.721 65.7897C219.985 65.6937 217.297 62.0457 217.297 56.3817C217.297 54.2697 217.681 51.8697 218.257 49.2777Z" fill="#3C2211"/>
<path d="M250.085 47.4537C252.485 39.2937 254.597 34.4937 254.597 25.2777C254.597 22.8777 254.405 20.1897 254.117 17.0217C253.925 15.1977 253.829 13.4697 253.829 12.0297C253.829 1.37368 258.437 0.60568 263.621 0.60568C269.093 0.60568 272.645 0.893677 272.645 12.2217C272.645 13.2777 272.645 14.5257 272.549 15.7737C272.357 19.4217 272.261 22.4937 272.261 25.1817C272.261 33.8217 273.221 38.3337 275.141 43.8057C276.197 46.7817 277.157 50.5257 277.157 54.0777C277.157 60.2217 274.181 65.6937 262.757 65.6937H262.373C253.445 65.5017 249.029 60.7977 249.029 53.8857C249.029 51.8697 249.413 49.7577 250.085 47.4537Z" fill="#3C2211"/>
<path d="M281.871 54.8457C280.719 52.0617 280.239 49.2777 280.239 46.8777C280.239 41.8857 282.255 37.9497 285.039 36.4137C286.575 35.5497 288.015 35.1657 289.263 35.1657C292.335 35.1657 294.447 37.2777 294.447 38.4297C294.447 38.7177 294.255 38.9097 294.063 39.1017C293.007 39.7737 292.527 40.8297 292.527 41.8857C292.527 43.4217 293.679 45.0537 295.503 45.3417C295.887 45.4377 296.175 45.4377 296.463 45.4377C299.247 45.4377 300.879 43.2297 300.879 40.7337C300.879 39.8697 300.687 38.9097 300.207 38.0457C297.807 33.9177 288.015 29.6937 284.175 23.7417C282.639 21.3417 281.967 18.6537 281.967 16.0617C281.967 8.76568 287.535 1.56568 295.983 0.413677C296.847 0.317678 297.903 0.22168 298.959 0.22168C305.295 0.22168 314.799 2.52568 314.799 12.8937V13.3737C314.607 18.4617 311.439 20.4777 308.943 20.4777C307.215 20.4777 305.775 19.5177 305.775 17.8857V16.8297C305.775 14.3337 303.951 13.1817 302.127 13.1817C300.207 13.1817 298.191 14.4297 298.191 16.7337C298.191 17.3097 298.383 17.9817 298.671 18.7497C300.303 22.7817 307.599 26.6217 313.167 31.1337C318.639 35.5497 321.039 41.1177 321.039 46.4937C321.039 55.8057 313.743 64.4457 301.551 65.5017C300.783 65.5977 300.015 65.5977 299.343 65.5977C290.031 65.5977 284.271 60.5097 281.871 54.8457Z" fill="#3C2211"/>
<path d="M332.632 49.2777C334.072 42.5577 335.512 34.9737 335.512 28.6377C335.512 23.9337 334.744 19.9977 332.632 17.5977C331.288 16.0617 329.848 15.5817 328.6 15.5817C326.872 15.5817 325.336 16.3497 324.184 16.7337C323.8 16.8297 323.416 16.9257 323.128 16.9257C320.824 16.9257 318.616 14.3337 318.616 10.8777C318.616 8.66968 319.576 6.17368 321.784 3.67768C324.088 1.18168 326.776 0.509682 329.848 0.509682C333.496 0.509682 337.72 1.37368 342.712 1.46968H343.768C348.664 1.46968 352.6 0.893677 355.672 0.893677C359.704 0.893677 362.488 1.75768 364.504 5.69368C365.464 7.51768 365.944 9.34168 365.944 10.9737C365.944 14.4297 363.928 17.0217 361.624 17.0217C361.048 17.0217 360.376 16.8297 359.8 16.5417C358.36 15.7737 357.016 15.3897 355.864 15.3897C353.656 15.3897 352.024 16.8297 351.16 19.9017C350.872 21.1497 350.68 22.7817 350.68 24.7017C350.68 30.7497 352.024 39.7737 354.232 48.7017C354.904 51.5817 355.288 53.9817 355.288 56.0937C355.288 63.0057 351.448 65.7897 343.096 65.7897C334.36 65.6937 331.672 62.0457 331.672 56.3817C331.672 54.2697 332.056 51.8697 332.632 49.2777Z" fill="#3C2211"/>
<path d="M54.3577 148.926V149.406C54.3577 155.838 47.6377 161.79 41.0137 161.79C39.1897 161.79 37.3657 161.31 35.6377 160.35C31.5097 157.854 29.5897 154.878 29.5897 150.462C29.5897 147.582 30.4537 143.934 32.0857 139.614C32.2777 139.134 32.3737 138.75 32.3737 138.27C32.3737 135.486 29.0137 133.662 25.7497 133.662C23.4457 133.662 21.1417 134.526 19.9897 136.638C19.7017 137.118 19.6057 137.598 19.6057 138.174C19.6057 141.438 22.7737 146.622 22.7737 151.518C22.7737 152.766 22.4857 154.014 22.0057 155.166C20.3737 159.102 16.4377 161.694 11.7337 161.694C11.0617 161.694 10.2937 161.598 9.52566 161.502C9.52566 161.502 0.597656 160.83 0.597656 150.366C0.597656 146.814 1.55766 142.302 4.24566 136.254C15.7657 109.854 16.6297 101.502 22.8697 97.8537C24.2137 97.0857 25.8457 96.6057 27.5737 96.6057C31.7017 96.6057 36.5017 99.3897 39.2857 107.262C43.8937 120.51 53.7817 138.75 54.3577 148.926ZM24.4057 123.774C24.4057 123.774 25.1737 123.966 26.1337 123.966C27.6697 123.966 29.6857 123.39 29.6857 120.606V120.318C29.5897 117.054 28.1497 114.846 26.6137 114.846C25.7497 114.846 24.9817 115.422 24.2137 116.862C23.2537 118.782 22.7737 120.222 22.7737 121.374C22.7737 122.622 23.3497 123.39 24.4057 123.774Z" fill="#3C2211"/>
<path d="M73.5074 96.6057C76.3874 96.6057 95.2994 96.6057 95.2994 113.694V114.75C94.6274 130.782 76.7714 130.302 75.9074 136.446C75.9074 136.734 75.8114 137.022 75.8114 137.31C75.8114 140.574 77.6354 145.182 78.2114 146.718C79.0754 148.638 79.5554 150.654 79.5554 152.67C79.5554 157.374 76.5794 161.406 68.2274 161.79H67.0754C59.5874 161.79 56.8994 159.006 56.8994 153.534C56.8994 151.518 57.2834 149.022 57.9554 146.142C58.9154 142.014 59.2034 138.75 59.2034 135.582C59.2034 130.014 58.1474 125.022 56.9954 116.862C56.7074 114.942 56.6114 113.118 56.6114 111.486C56.6114 97.6617 66.3074 96.6057 73.5074 96.6057ZM79.0754 115.038C79.2674 114.462 79.4594 113.886 79.4594 113.406C79.4594 110.046 75.1394 107.55 72.4514 107.55H71.8754C69.7634 107.934 68.3234 110.526 68.3234 113.214C68.3234 114.75 68.8034 116.286 69.8594 117.438C70.4354 118.11 71.3954 118.398 72.5474 118.398C75.0434 118.398 78.2114 117.054 79.0754 115.038Z" fill="#3C2211"/>
<path d="M114.945 96.6057C117.825 96.6057 136.737 96.6057 136.737 113.694V114.75C136.065 130.782 118.209 130.302 117.345 136.446C117.345 136.734 117.249 137.022 117.249 137.31C117.249 140.574 119.073 145.182 119.649 146.718C120.513 148.638 120.993 150.654 120.993 152.67C120.993 157.374 118.017 161.406 109.665 161.79H108.513C101.025 161.79 98.3369 159.006 98.3369 153.534C98.3369 151.518 98.7209 149.022 99.3929 146.142C100.353 142.014 100.641 138.75 100.641 135.582C100.641 130.014 99.5849 125.022 98.4329 116.862C98.1449 114.942 98.0489 113.118 98.0489 111.486C98.0489 97.6617 107.745 96.6057 114.945 96.6057ZM120.513 115.038C120.705 114.462 120.897 113.886 120.897 113.406C120.897 110.046 116.577 107.55 113.889 107.55H113.313C111.201 107.934 109.761 110.526 109.761 113.214C109.761 114.75 110.241 116.286 111.297 117.438C111.873 118.11 112.833 118.398 113.985 118.398C116.481 118.398 119.649 117.054 120.513 115.038Z" fill="#3C2211"/>
<path d="M139.096 143.262C139.48 136.542 139.96 131.454 139.96 125.598C139.96 121.086 139.672 116.094 138.808 109.662C138.616 108.318 138.52 107.07 138.52 106.014C138.52 98.8137 142.264 96.7977 147.736 96.6057H148.408C153.4 96.6057 156.952 99.1017 156.952 105.822C156.952 107.166 156.76 108.798 156.472 110.526C155.704 114.654 154.744 120.222 154.744 125.406C154.744 130.302 155.608 134.718 158.2 137.406C159.352 138.462 160.888 139.038 162.52 139.038C164.824 139.038 167.32 137.886 168.952 135.39C169.624 134.334 171.16 133.47 172.792 133.47C175.096 133.47 177.4 135.39 177.4 141.534C177.4 142.974 177.304 144.606 177.016 146.526C175.096 159.39 163.96 161.79 156.376 161.79C151.48 161.79 139 161.502 139 145.278C139 144.606 139.096 143.934 139.096 143.262Z" fill="#3C2211"/>
<path d="M180.663 143.454C183.063 135.294 185.175 130.494 185.175 121.278C185.175 118.878 184.983 116.19 184.695 113.022C184.503 111.198 184.407 109.47 184.407 108.03C184.407 97.3737 189.015 96.6057 194.199 96.6057C199.671 96.6057 203.223 96.8937 203.223 108.222C203.223 109.278 203.223 110.526 203.127 111.774C202.935 115.422 202.839 118.494 202.839 121.182C202.839 129.822 203.799 134.334 205.719 139.806C206.775 142.782 207.735 146.526 207.735 150.078C207.735 156.222 204.759 161.694 193.335 161.694H192.951C184.023 161.502 179.607 156.798 179.607 149.886C179.607 147.87 179.991 145.758 180.663 143.454Z" fill="#3C2211"/>
<path d="M237.92 115.326C236.384 114.27 235.04 113.79 233.888 113.79C230.336 113.79 228.896 118.398 228.896 122.91C228.896 124.446 229.088 126.078 229.376 127.422C229.76 129.246 230.624 129.918 231.872 129.918C234.656 129.918 239.072 126.558 243.776 126.558C244.64 126.558 245.408 126.654 246.176 126.846C249.44 127.71 252.512 134.334 252.512 141.534C252.512 149.118 249.152 157.278 239.456 160.254C236.192 161.214 233.312 161.694 230.624 161.694C216.512 161.694 209.504 149.118 208.64 133.662C208.544 132.702 208.544 131.742 208.544 130.782C208.544 115.518 214.784 96.6057 230.912 96.6057C231.392 96.6057 231.968 96.7017 232.544 96.7017C243.488 97.5657 246.368 102.942 246.368 107.838C246.368 110.91 245.216 113.886 244.16 115.326C243.296 116.574 242.336 117.054 241.472 117.054C240.032 117.054 238.784 115.902 237.92 115.326Z" fill="#3C2211"/>
<path d="M307.483 148.926V149.406C307.483 155.838 300.763 161.79 294.139 161.79C292.315 161.79 290.491 161.31 288.763 160.35C284.635 157.854 282.715 154.878 282.715 150.462C282.715 147.582 283.579 143.934 285.211 139.614C285.403 139.134 285.499 138.75 285.499 138.27C285.499 135.486 282.139 133.662 278.875 133.662C276.571 133.662 274.267 134.526 273.115 136.638C272.827 137.118 272.731 137.598 272.731 138.174C272.731 141.438 275.899 146.622 275.899 151.518C275.899 152.766 275.611 154.014 275.131 155.166C273.499 159.102 269.563 161.694 264.859 161.694C264.187 161.694 263.419 161.598 262.651 161.502C262.651 161.502 253.723 160.83 253.723 150.366C253.723 146.814 254.683 142.302 257.371 136.254C268.891 109.854 269.755 101.502 275.995 97.8537C277.339 97.0857 278.971 96.6057 280.699 96.6057C284.827 96.6057 289.627 99.3897 292.411 107.262C297.019 120.51 306.907 138.75 307.483 148.926ZM277.531 123.774C277.531 123.774 278.299 123.966 279.259 123.966C280.795 123.966 282.811 123.39 282.811 120.606V120.318C282.715 117.054 281.275 114.846 279.739 114.846C278.875 114.846 278.107 115.422 277.339 116.862C276.379 118.782 275.899 120.222 275.899 121.374C275.899 122.622 276.475 123.39 277.531 123.774Z" fill="#3C2211"/>
<path d="M312.054 145.278C313.494 138.558 314.934 130.974 314.934 124.638C314.934 119.934 314.166 115.998 312.054 113.598C310.71 112.062 309.27 111.582 308.022 111.582C306.294 111.582 304.758 112.35 303.606 112.734C303.222 112.83 302.838 112.926 302.55 112.926C300.246 112.926 298.038 110.334 298.038 106.878C298.038 104.67 298.998 102.174 301.206 99.6777C303.51 97.1817 306.198 96.5097 309.27 96.5097C312.918 96.5097 317.142 97.3737 322.134 97.4697H323.19C328.086 97.4697 332.022 96.8937 335.094 96.8937C339.126 96.8937 341.91 97.7577 343.926 101.694C344.886 103.518 345.366 105.342 345.366 106.974C345.366 110.43 343.35 113.022 341.046 113.022C340.47 113.022 339.798 112.83 339.222 112.542C337.782 111.774 336.438 111.39 335.286 111.39C333.078 111.39 331.446 112.83 330.582 115.902C330.294 117.15 330.102 118.782 330.102 120.702C330.102 126.75 331.446 135.774 333.654 144.702C334.326 147.582 334.71 149.982 334.71 152.094C334.71 159.006 330.87 161.79 322.518 161.79C313.782 161.694 311.094 158.046 311.094 152.382C311.094 150.27 311.478 147.87 312.054 145.278Z" fill="#3C2211"/>
<path d="M343.882 143.454C346.282 135.294 348.394 130.494 348.394 121.278C348.394 118.878 348.202 116.19 347.914 113.022C347.722 111.198 347.626 109.47 347.626 108.03C347.626 97.3737 352.234 96.6057 357.418 96.6057C362.89 96.6057 366.442 96.8937 366.442 108.222C366.442 109.278 366.442 110.526 366.346 111.774C366.154 115.422 366.058 118.494 366.058 121.182C366.058 129.822 367.018 134.334 368.938 139.806C369.994 142.782 370.954 146.526 370.954 150.078C370.954 156.222 367.978 161.694 356.554 161.694H356.17C347.242 161.502 342.826 156.798 342.826 149.886C342.826 147.87 343.21 145.758 343.882 143.454Z" fill="#3C2211"/>
<path d="M413.657 107.166C416.345 111.006 421.625 121.662 421.625 133.758C421.625 137.79 421.049 142.014 419.609 146.142C415.865 156.702 405.977 161.79 396.185 161.79C385.433 161.79 374.777 155.646 372.857 144.03C372.185 140.19 371.897 136.638 371.897 133.374C371.897 118.878 377.369 109.182 381.497 104.574C386.681 98.9097 391.865 96.6057 396.761 96.6057C403.385 96.6057 409.337 100.926 413.657 107.166ZM403.481 129.918C404.249 128.286 404.633 126.27 404.633 124.35C404.633 118.014 400.889 111.198 396.473 111.198H396.377C391.961 111.294 388.025 119.262 388.025 125.79C388.025 127.71 388.409 129.534 389.177 130.974C390.713 133.758 393.209 135.294 395.897 135.294C398.681 135.294 401.657 133.566 403.481 129.918Z" fill="#3C2211"/>
<path d="M423.085 145.95C423.757 141.246 424.141 136.254 424.141 130.782C424.141 125.406 423.757 119.55 422.893 113.118C422.605 110.91 422.413 108.894 422.413 107.166C422.413 100.446 424.909 97.9497 430.573 97.9497C431.917 97.9497 433.453 98.0457 435.085 98.3337C444.013 99.5817 446.701 117.822 451.405 122.238C451.693 122.526 451.885 122.622 452.173 122.622C452.749 122.622 453.133 121.47 453.133 119.646C453.133 116.862 452.365 112.35 450.925 108.222C450.637 107.358 450.061 105.726 450.061 104.094C450.061 100.734 452.077 96.8937 461.581 96.6057H462.157C467.725 96.6057 470.893 98.7177 470.893 105.438C470.893 107.07 470.701 108.99 470.317 111.294C469.069 117.726 468.589 125.79 468.589 132.51C468.589 137.598 468.877 141.918 469.357 144.222C470.029 147.486 470.989 150.942 470.989 153.822C470.989 158.142 468.877 161.502 460.525 161.694H459.469C450.829 161.694 449.965 158.046 449.965 151.71V144.126C449.581 130.59 440.653 123.678 438.829 123.678C438.637 123.678 438.541 123.774 438.541 123.87V124.35C438.541 127.23 440.941 141.63 442.381 146.334C443.149 149.022 443.725 151.518 443.725 153.63C443.725 158.43 441.037 161.598 432.109 161.694H431.821C424.141 161.694 422.317 158.622 422.317 153.822C422.317 151.518 422.701 148.83 423.085 145.95Z" fill="#3C2211"/>
<path d="M393.454 45.0099C393.489 44.9 393.531 44.8409 393.566 44.7309C395.77 38.9469 392.415 33.011 386.937 30.7577C385.204 30.0439 383.607 29.2037 382.207 27.9664C381.17 27.0364 380.473 25.9474 379.538 25.001C377.896 23.2283 375.254 24.3313 375.383 26.7645C375.505 29.1468 376.159 31.6001 376.535 33.9416C377.254 38.4209 377.982 42.9512 378.701 47.4305C379.077 49.772 379.444 52.0625 379.82 54.404C375.362 52.9789 370.038 54.6167 366.747 57.8601C363.908 60.6655 362.406 65.2925 365.387 68.5734C371.432 75.3306 386.71 68.7009 384.926 59.5367C384.917 59.4858 384.901 59.384 384.893 59.3331C384.084 54.2939 383.283 49.3055 382.474 44.2663C382.368 43.6046 382.211 42.951 382.156 42.2811C381.993 39.6443 384.556 37.7187 386.988 39.208C388.263 39.9954 388.958 41.398 389.34 42.7987C389.513 43.554 389.465 44.5539 389.935 45.2093C390.834 46.5792 392.616 46.2932 393.47 45.1117C393.411 45.069 393.403 45.0181 393.454 45.0099Z" fill="#FFD7E9"/>
<path d="M396.142 0.940648C394.102 -1.06096 391.421 1.45021 392.953 3.72235C395.6 7.74065 399.023 11.4096 402.026 15.2128C404.838 18.7732 407.617 22.2931 410.429 25.8535C407.073 26.9273 404.341 29.8729 403.394 33.2485C402.553 36.343 403.318 40.1401 406.627 41.3365C413.6 43.8444 420.974 33.8831 417.285 27.7971C417.261 27.6842 417.197 27.6033 417.165 27.5628C410.903 19.6328 404.609 11.6623 398.347 3.73233C397.612 2.80177 396.967 1.7349 396.142 0.940648Z" fill="#FFB884"/>
<path d="M95.3102 37.3333C95.2563 37.2454 95.1756 37.1135 95.0777 37.0525C95.4789 37.4114 95.0239 36.9646 94.9601 36.7618C94.6639 36.2783 94.3408 35.7507 94.0445 35.2672C93.102 33.7285 92.1595 32.1899 91.217 30.6513C88.9819 27.0025 86.7468 23.3538 84.5117 19.705C83.3268 17.7707 82.1419 15.8365 80.984 13.9462C79.3952 11.3525 77.4634 8.00154 74.0741 10.5614C68.0229 14.9936 62.285 19.8385 56.4393 24.5076C54.7716 25.8315 51.6135 27.5846 51.5208 29.9993C51.4736 31.6 52.7876 33.1529 53.5955 34.4718C54.2956 35.6148 54.9688 36.7138 55.669 37.8568C59.089 43.4398 62.5089 49.0228 65.9289 54.6059C61.0497 55.7205 56.4092 60.6791 57.5975 65.876C58.9502 71.6371 66.0923 70.4663 69.557 67.4371C71.5566 65.6681 73.1424 63.1248 73.2764 60.3827C73.3192 59.2682 73.1054 58.1296 72.5838 57.1795C72.3684 56.8278 72.109 56.5031 71.8496 56.1783C71.8496 56.1783 71.7688 56.0464 71.7419 56.0025C70.0382 53.4187 68.5104 50.7272 66.8947 48.0895C64.9289 44.8804 62.963 41.6712 61.0242 38.506C60.4317 37.5389 59.6904 36.7234 60.4393 35.4787C60.8223 34.8209 62.0191 34.2087 62.6247 33.7168C65.7844 31.1768 68.927 28.7076 72.0866 26.1675C74.1671 24.5304 76.2348 22.4778 78.4769 21.1044C80.1913 20.0542 80.853 21.8253 81.5532 22.9683C82.6303 24.7267 83.7344 26.5291 84.8116 28.2875C86.3196 30.7493 87.8007 33.1672 89.3087 35.629C85.6901 36.3342 82.5503 39.104 81.3003 42.5902C80.2063 45.7391 81.0192 49.5335 84.4786 50.7396C91.3264 53.1346 100.026 43.4526 95.3102 37.3333Z" fill="#E78542"/>
</svg>
