<svg width="80" height="80" viewBox="0 0 80 80" fill="none" xmlns="http://www.w3.org/2000/svg">
<g clip-path="url(#clip0_303_1030)">
<path d="M27.9572 33.4371C27.9572 33.4371 23.3905 37.2569 22.0857 40.9449C20.8136 44.6 22.4119 48.9137 25.8043 51.087C29.1967 53.2603 34.4809 54.0506 34.9376 57.3435C35.3943 60.6364 35.329 68.6711 41.4614 75.3227C47.5938 81.9744 60.9349 82.0073 70.7206 72.3262C80.5063 62.6451 82.1046 50.2309 76.2332 44.1061C70.3292 38.0142 59.4997 37.3557 56.9554 36.3678C54.3785 35.347 53.139 32.8444 52.2257 30.3418C51.3123 27.8392 49.9097 24.3816 46.55 25.2707C43.2228 26.1269 43.8752 30.0125 42.2116 32.2846C40.0588 35.2482 36.4055 33.6018 33.6981 30.5394L27.9572 33.4371Z" fill="#490115"/>
<path d="M51.5517 41.0766C54.4874 44.0402 54.52 48.8808 51.5517 51.8773C48.616 54.8409 43.821 54.8739 40.8527 51.8773C37.917 48.9137 37.8844 44.0732 40.8527 41.0766C43.821 38.0801 48.5834 38.0801 51.5517 41.0766Z" fill="#FD9852"/>
<path d="M49.8247 42.8218C51.8145 44.8305 51.8145 48.0575 49.8247 50.0662C47.835 52.0749 44.6383 52.0749 42.6486 50.0662C40.6588 48.0575 40.6588 44.8305 42.6486 42.8218C44.6057 40.8461 47.835 40.8131 49.8247 42.8218Z" fill="#490115"/>
<path d="M44.4421 39.035C43.1374 39.3642 41.8979 40.0228 40.8541 41.0766C39.8103 42.1303 39.1579 43.3816 38.8643 44.7317L9.47461 13.4162L13.2258 9.62939L44.4421 39.035Z" fill="#E78542"/>
<path d="M3.43884 0.0801162C2.8517 0.211832 2.36241 0.508193 1.97099 0.90334L0.894561 1.99C0.503133 2.38514 0.176943 2.91201 0.0790866 3.4718C-0.181865 4.65724 0.209562 5.84268 1.15551 6.60005C3.56932 8.57579 7.05955 12.6919 8.59264 14.503C9.11454 15.0957 9.76692 15.4909 10.5172 15.5897L11.7893 15.7543L12.4417 16.4129L16.2907 12.5273L15.6383 11.8687L15.4752 10.5845C15.3774 9.82709 14.986 9.10265 14.3988 8.64165C12.5722 7.12691 8.5274 3.57059 6.57026 1.13384C5.78741 0.211832 4.61312 -0.183315 3.43884 0.0801162Z" fill="#FD9852"/>
<path d="M18.25 79.7588C28.3292 79.7588 36.5 71.6496 36.5 61.6463C36.5 51.6431 28.3292 43.5339 18.25 43.5339C8.1708 43.5339 0 51.6431 0 61.6463C0 71.6496 8.1708 79.7588 18.25 79.7588Z" fill="#E78542"/>
<path d="M18.2503 77.3167C26.9705 77.3167 34.0396 70.3008 34.0396 61.6464C34.0396 52.9919 26.9705 45.9761 18.2503 45.9761C9.53006 45.9761 2.46094 52.9919 2.46094 61.6464C2.46094 70.3008 9.53006 77.3167 18.2503 77.3167Z" fill="white"/>
<path d="M18.2505 50.6975C18.0249 50.6975 17.8404 50.5144 17.8404 50.2905V48.4589C17.8404 48.235 18.0249 48.0519 18.2505 48.0519C18.476 48.0519 18.6606 48.235 18.6606 48.4589V50.2905C18.6606 50.5347 18.476 50.6975 18.2505 50.6975Z" fill="#DFC1AD"/>
<path d="M18.2505 75.2409C18.0249 75.2409 17.8404 75.0577 17.8404 74.8338V73.0022C17.8404 72.7784 18.0249 72.5952 18.2505 72.5952C18.476 72.5952 18.6606 72.7784 18.6606 73.0022V74.8338C18.6606 75.0577 18.476 75.2409 18.2505 75.2409Z" fill="#DFC1AD"/>
<path d="M29.262 61.6464C29.262 61.4225 29.4466 61.2393 29.6721 61.2393H31.5176C31.7432 61.2393 31.9277 61.4225 31.9277 61.6464C31.9277 61.8702 31.7432 62.0534 31.5176 62.0534H29.6721C29.4466 62.0534 29.262 61.8702 29.262 61.6464Z" fill="#DFC1AD"/>
<path d="M4.55273 61.6464C4.55273 61.4225 4.73728 61.2393 4.96285 61.2393H6.80835C7.03391 61.2393 7.21846 61.4225 7.21846 61.6464C7.21846 61.8702 7.03391 62.0534 6.80835 62.0534H4.96285C4.73728 62.0534 4.55273 61.8702 4.55273 61.6464Z" fill="#DFC1AD"/>
<path d="M12.7345 52.1831C12.5294 52.3052 12.2834 52.2238 12.1808 52.0407L11.2581 50.4533C11.135 50.2498 11.2171 50.0056 11.4016 49.9038C11.6067 49.7817 11.8527 49.8631 11.9553 50.0463L12.878 51.6337C13.001 51.8168 12.9395 52.061 12.7345 52.1831Z" fill="#DFC1AD"/>
<path d="M25.0994 73.4093C24.8943 73.5314 24.6482 73.45 24.5457 73.2668L23.623 71.6794C23.4999 71.4759 23.5819 71.2317 23.7665 71.1299C23.9715 71.0078 24.2176 71.0892 24.3201 71.2724L25.2429 72.8598C25.3454 73.0429 25.2839 73.3075 25.0994 73.4093Z" fill="#DFC1AD"/>
<path d="M27.7856 56.1719C27.6626 55.9684 27.7446 55.7242 27.9291 55.6225L29.5286 54.7067C29.7336 54.5846 29.9797 54.666 30.0822 54.8491C30.2053 55.0526 30.1232 55.2968 29.9387 55.3986L28.3393 56.3144C28.1547 56.4365 27.9086 56.3754 27.7856 56.1719Z" fill="#DFC1AD"/>
<path d="M6.39824 68.4436C6.2752 68.2401 6.35722 67.9959 6.54177 67.8941L8.14122 66.9783C8.34627 66.8562 8.59234 66.9376 8.69486 67.1208C8.8179 67.3243 8.73588 67.5685 8.55133 67.6703L6.95189 68.5861C6.74683 68.7082 6.50077 68.6268 6.39824 68.4436Z" fill="#DFC1AD"/>
<path d="M8.69486 56.1719C8.57183 56.3754 8.32577 56.4365 8.14122 56.3144L6.54177 55.3986C6.33672 55.2765 6.27521 55.0323 6.39824 54.8491C6.52127 54.6456 6.76734 54.5846 6.95189 54.7067L8.55133 55.6225C8.75638 55.7242 8.8179 55.9888 8.69486 56.1719Z" fill="#DFC1AD"/>
<path d="M30.1027 68.4436C29.9797 68.6471 29.7336 68.7082 29.5491 68.5861L27.9496 67.6703C27.7446 67.5482 27.6831 67.304 27.8061 67.1208C27.9291 66.9173 28.1752 66.8562 28.3597 66.9783L29.9592 67.8941C30.1437 67.9959 30.2053 68.2401 30.1027 68.4436Z" fill="#DFC1AD"/>
<path d="M23.7665 52.1831C23.5614 52.061 23.4999 51.8168 23.623 51.6337L24.5457 50.0463C24.6687 49.8428 24.9148 49.7817 25.0994 49.9038C25.3044 50.0259 25.3659 50.2701 25.2429 50.4533L24.3201 52.0407C24.1971 52.2238 23.951 52.2849 23.7665 52.1831Z" fill="#DFC1AD"/>
<path d="M11.4016 73.4093C11.1965 73.2872 11.135 73.0429 11.2581 72.8598L12.1808 71.2724C12.3039 71.0689 12.5499 71.0078 12.7345 71.1299C12.9395 71.2521 13.001 71.4963 12.878 71.6794L11.9553 73.2668C11.8527 73.45 11.6067 73.5314 11.4016 73.4093Z" fill="#DFC1AD"/>
<path d="M18.2496 62.5826C17.696 62.5826 17.2654 62.1145 17.2859 61.565L18.2496 47.5228L19.2134 61.565C19.2339 62.1145 18.8033 62.5826 18.2496 62.5826Z" fill="#3C2211"/>
<path d="M17.7985 60.9545C18.2701 60.6696 18.8853 60.8324 19.1314 61.3208L23.6221 70.2956L17.5524 62.2977C17.2038 61.8703 17.3269 61.2394 17.7985 60.9545Z" fill="#3C2211"/>
<path d="M66.9046 6.01828C66.9111 5.98172 66.9223 5.96107 66.9287 5.92451C67.3921 3.98549 66.0737 2.22925 64.2302 1.73753C63.6469 1.58166 63.1019 1.37978 62.6035 1.04284C62.2336 0.788949 61.9657 0.470131 61.6277 0.206787C61.0295 -0.291059 60.2314 0.171152 60.374 0.942889C60.5119 1.69871 60.8231 2.455 61.0406 3.18719C61.4566 4.58788 61.8774 6.0045 62.2934 7.4052C62.5109 8.13738 62.7236 8.85364 62.9411 9.58582C61.458 9.31616 59.8258 10.0608 58.9097 11.2336C58.1196 12.2477 57.8323 13.788 58.9208 14.7118C61.1326 16.6184 65.7364 13.8653 64.7852 11.0127C64.7805 10.9968 64.771 10.965 64.7663 10.949C64.2983 9.37325 63.835 7.81339 63.367 6.2376C63.3055 6.03068 63.2281 5.82849 63.1826 5.61684C63.0211 4.78143 63.7594 4.05982 64.5981 4.43428C65.0381 4.63269 65.3185 5.05174 65.4986 5.48323C65.5854 5.71726 65.6116 6.03859 65.7892 6.22834C66.1332 6.62847 66.6903 6.46301 66.9141 6.05011C66.8934 6.03892 66.8887 6.02301 66.9046 6.01828Z" fill="#FFD7E9"/>
<path d="M79.3463 13.2052C79.4131 12.287 78.2378 12.1514 77.9985 13.0009C77.5628 14.4883 77.3743 16.0933 77.0655 17.6233C76.7763 19.0556 76.4905 20.4716 76.2014 21.9039C75.2386 21.303 73.9459 21.2453 72.9193 21.7156C71.9839 22.1536 71.2104 23.1323 71.6058 24.1946C72.4419 26.43 76.425 26.1668 77.1518 23.9929C77.1746 23.9636 77.1812 23.9311 77.1845 23.9148C77.8284 20.7247 78.4757 17.5183 79.1196 14.3283C79.1952 13.9539 79.3229 13.5731 79.3463 13.2052Z" fill="#FFB884"/>
<path d="M49.1126 14.2569C49.101 14.2258 49.0837 14.1791 49.0566 14.1537C49.161 14.2921 49.045 14.1226 49.0375 14.0546C48.9739 13.8833 48.9046 13.6965 48.8411 13.5253C48.639 12.9804 48.4368 12.4356 48.2347 11.8907C47.7553 10.5986 47.2759 9.30652 46.7965 8.01442C46.5424 7.32946 46.2883 6.64449 46.0399 5.9751C45.6992 5.05662 45.2971 3.87752 44.0668 4.47566C41.8788 5.49993 39.7642 6.67411 37.6265 7.78601C37.0171 8.10065 35.91 8.45824 35.7305 9.21554C35.6161 9.71847 35.9347 10.2909 36.108 10.758C36.2581 11.1627 36.4025 11.5519 36.5527 11.9567C37.2862 13.9337 38.0197 15.9108 38.7532 17.8878C37.142 17.9366 35.3671 19.215 35.4194 20.9312C35.4885 22.8359 37.8183 22.9102 39.1016 22.1684C39.8436 21.7337 40.5029 21.0287 40.7158 20.1704C40.7987 19.8209 40.8019 19.4478 40.6962 19.1151C40.65 18.9905 40.5882 18.8718 40.5264 18.753C40.5264 18.753 40.5091 18.7063 40.5033 18.6908C40.1257 17.7683 39.8103 16.8227 39.4637 15.8886C39.0421 14.7522 38.6205 13.6158 38.2046 12.4949C38.0776 12.1525 37.894 11.8486 38.2081 11.5019C38.3701 11.3178 38.7864 11.1988 39.0083 11.081C40.1648 10.4748 41.3115 9.89001 42.468 9.28384C43.2273 8.89588 44.0084 8.37584 44.8024 8.08129C45.4095 7.85604 45.5085 8.45689 45.6586 8.86164C45.8896 9.48434 46.1264 10.1226 46.3575 10.7453C46.6809 11.6171 46.9986 12.4733 47.322 13.345C46.1346 13.3428 44.9701 14.0228 44.3582 15.0468C43.8166 15.9738 43.8375 17.2235 44.8557 17.8198C46.8707 19.0026 50.2222 16.4841 49.1126 14.2569Z" fill="#E78542"/>
</g>
<defs>
<clipPath id="clip0_303_1030">
<rect width="80" height="80" fill="white"/>
</clipPath>
</defs>
</svg>
