<svg width="80" height="80" viewBox="0 0 80 80" fill="none" xmlns="http://www.w3.org/2000/svg">
<path fill-rule="evenodd" clip-rule="evenodd" d="M53.4373 33.9816C58.0117 37.8021 60.1479 43.5965 61.2196 49.726C62.2323 55.5184 62.2454 61.6682 59.1999 66.9415C56.14 72.2396 50.9639 76.1593 45.2462 77.3838C39.9142 78.5257 35.1491 75.7307 30.6075 73.0647C26.0789 70.4064 21.5941 67.4987 19.7375 62.4098C17.6189 56.6028 17.5676 50.0549 20.0248 44.0579C22.9248 36.9801 27.1292 29.2754 34.1857 27.1473C41.2312 25.0226 48.007 29.4462 53.4373 33.9816Z" fill="#A6CB6A"/>
<g clip-path="url(#clip0_303_1107)">
<path d="M34.9948 49.6045C35.9504 50.8298 37.2418 51.7326 38.2749 53.0224C40.5994 51.0877 42.5365 48.6371 44.5382 46.509C44.8869 46.1608 45.171 45.877 45.3776 45.6707C45.5842 45.4643 45.7004 45.3482 45.7004 45.3482C45.9329 45.1161 46.2428 45 46.5398 45C48.0895 45.9286 50.6723 47.7343 49.8329 49.4755C49.8329 49.4755 49.6004 49.7077 49.2259 50.0817C48.8514 50.4557 48.2961 51.0103 47.6633 51.6423C47.4567 51.8487 47.2372 52.0808 47.0047 52.3001C45.1322 54.4282 42.9369 56.3629 40.8319 58.4781C40.1862 59.123 39.7729 59.5228 39.7729 59.5228C39.5663 59.7291 39.3339 59.8839 39.0756 59.9871C35.8342 60.2451 34.2845 56.1178 31.7921 54.5185C31.2369 53.9639 30.8623 53.5899 30.8623 53.5899C30.3974 53.1255 30.3974 52.3775 30.8623 51.9132C30.8623 51.9132 31.0173 51.7584 31.2498 51.5262C31.4822 51.2941 31.7921 50.9845 32.0892 50.6879C32.7349 50.172 33.2514 49.3981 34.1683 49.1788C34.4524 49.2046 34.7623 49.3465 34.9948 49.6045Z" fill="white"/>
</g>
<g clip-path="url(#clip1_303_1107)">
<path d="M18.5 68H15.5C14.65 68 14 67.35 14 66.5V37.5C14 36.65 14.65 36 15.5 36H18.5C19.35 36 20 36.65 20 37.5V66.5C20 67.35 19.35 68 18.5 68Z" fill="#E78542"/>
<path d="M14 38V66H10C7.8 66 6 64.2 6 62V42C6 40.4 6.95 39 8.3 38.4C8.8 38.15 9.4 38 10 38H14Z" fill="#3C2211"/>
<path d="M6 60C3.8 60 2 58.2 2 56V48C2 45.8 3.8 44 6 44V60Z" fill="#E78542"/>
<path d="M61.5 68H64.5C65.35 68 66 67.35 66 66.5V37.5C66 36.65 65.35 36 64.5 36H61.5C60.65 36 60 36.65 60 37.5V66.5C60 67.35 60.65 68 61.5 68Z" fill="#E78542"/>
<path d="M74 42V62C74 64.2 72.2 66 70 66H66V38H70C70.6 38 71.2 38.15 71.7 38.4C73.05 39 74 40.4 74 42Z" fill="#3C2211"/>
<path d="M74 60C76.2 60 78 58.2 78 56V48C78 45.8 76.2 44 74 44V60Z" fill="#E78542"/>
<path d="M40 2C22.35 2 8 16.3 8 34C8 35.5 8.1 36.95 8.3 38.4C9 43.65 11.05 48.55 14 52.65V44.4C13.2 42.35 12.6 40.2 12.3 38C12.1 36.7 12 35.35 12 34C12 18.55 24.55 6 40 6C55.45 6 68 18.55 68 34C68 35.35 67.9 36.7 67.7 38C67.4 40.25 66.8 42.4 66 44.4V52.65C68.95 48.5 71 43.65 71.7 38.35C71.9 36.9 72 35.45 72 33.95C72 16.3 57.65 2 40 2Z" fill="#3C2211"/>
<path d="M40 6C31.75 6 24.35 9.55 19.25 15.25C20.75 16.75 23.1 16.85 24.75 15.5C28.9 12.05 34.2 10 40.05 10C45.9 10 51.2 12.05 55.35 15.5C57 16.85 59.35 16.75 60.85 15.25C55.65 9.55 48.25 6 40 6Z" fill="#E78542"/>
</g>
<defs>
<clipPath id="clip0_303_1107">
<rect width="19.5" height="15" fill="white" transform="translate(30.5 45)"/>
</clipPath>
<clipPath id="clip1_303_1107">
<rect width="76" height="66" fill="white" transform="translate(2 2)"/>
</clipPath>
</defs>
</svg>
