<svg width="80" height="80" viewBox="0 0 80 80" fill="none" xmlns="http://www.w3.org/2000/svg">
<path d="M71.0292 67.0252H4.11685C1.83371 67.0252 0 65.1875 0 62.9394V24.7218C0 22.4737 1.83371 20.636 4.11685 20.636H71.0472C73.3124 20.636 75.164 22.4559 75.164 24.7218V62.9572C75.1461 65.1875 73.3124 67.0252 71.0292 67.0252Z" fill="#3C2211"/>
<mask id="mask0_303_944" style="mask-type:alpha" maskUnits="userSpaceOnUse" x="0" y="20" width="76" height="48">
<path d="M71.0292 67.0252H4.11685C1.83371 67.0252 0 65.1875 0 62.9394V24.7218C0 22.4737 1.83371 20.636 4.11685 20.636H71.0472C73.3124 20.636 75.164 22.4559 75.164 24.7218V62.9572C75.1461 65.1875 73.3124 67.0252 71.0292 67.0252Z" fill="#3C2211"/>
</mask>
<g mask="url(#mask0_303_944)">
<path d="M28.7664 8.77836C37.007 5.74802 31.4625 -10.5617 27.6602 -18.3378L94.4169 48.4189C73.8006 37.5564 60.7965 51.646 54.8359 57.6066C48.8753 63.5672 34.2301 59.7594 34.7641 49.456C35.2982 39.1526 31.4974 33.1843 23.8999 26.6705C16.3024 20.1568 18.4656 12.5663 28.7664 8.77836Z" fill="#E78542"/>
<path d="M34.2074 11.145C41.4749 8.47404 34.9764 -7.51695 31.6211 -14.3762L89.3183 43.321C71.1325 33.7358 59.6661 46.1598 54.4102 51.4157C49.1543 56.6716 40.2992 54.2466 40.7681 45.1592C41.2369 36.0718 35.0168 31.0667 28.3144 25.32C21.6121 19.5732 25.1231 14.4836 34.2074 11.145Z" fill="#FD9852"/>
<path d="M40.3539 11.8693C45.9063 9.83267 40.9299 -2.3922 38.3613 -7.63635L82.4914 36.4937C68.5873 29.157 59.8321 38.6446 55.8187 42.6581C51.8052 46.6715 45.0364 44.8127 45.389 37.8681C45.7416 30.9236 40.9849 27.0946 35.8592 22.6986C30.7334 18.3026 33.4134 14.4151 40.3539 11.8693Z" fill="#FFC1DD"/>
<path d="M43.4182 12.2608C48.1228 10.5349 43.9067 0.176948 41.7305 -4.26636L79.1206 33.1238C67.3399 26.9078 59.9214 34.947 56.5207 38.3476C53.12 41.7483 47.3848 40.1735 47.6838 34.2894C47.9827 28.4053 43.9524 25.1611 39.6095 21.4365C35.2666 17.7119 37.5375 14.418 43.4182 12.2608Z" fill="#FFD7E9"/>
<path d="M49.2512 13.0126C52.3437 11.8761 49.5782 5.07143 48.1504 2.15259L72.7027 26.7049C64.9641 22.626 60.0849 27.9127 57.8484 30.1492C55.6119 32.3856 51.8438 31.3536 52.0432 27.4867C52.2427 23.6198 49.5958 21.4899 46.7437 19.0444C43.8916 16.599 45.3856 14.4332 49.2512 13.0126Z" fill="#FFF2E9"/>
</g>
<path d="M18.3376 43.4738V48.4517C18.3376 49.3795 17.5825 50.1467 16.6297 50.1467H8.71958C7.78475 50.1467 7.01172 49.3973 7.01172 48.4517V43.4738C7.01172 42.546 7.76677 41.7788 8.71958 41.7788H16.6477C17.5825 41.7967 18.3376 42.546 18.3376 43.4738Z" fill="#FFF2E9"/>
<path d="M14.8322 44.4372C14.7423 44.0804 14.4187 43.8127 14.0412 43.8127H11.3266C10.949 43.8127 10.6075 44.0804 10.5356 44.4372C10.5176 44.4907 10.5176 44.5621 10.5176 44.6335V47.3276C10.5176 47.399 10.5176 47.4525 10.5356 47.5239C10.6254 47.8807 10.949 48.1483 11.3266 48.1483H14.0232C14.4007 48.1483 14.7423 47.8807 14.8142 47.5239C14.8322 47.4704 14.8322 47.399 14.8322 47.3276V44.6156C14.8502 44.5621 14.8502 44.4907 14.8322 44.4372ZM14.2749 47.3098C14.2749 47.4347 14.167 47.5417 14.0412 47.5417H11.3266C11.2007 47.5417 11.0929 47.4347 11.0929 47.3098V44.6156C11.0929 44.4907 11.2007 44.3837 11.3266 44.3837H14.0232C14.149 44.3837 14.2569 44.4907 14.2569 44.6156V47.3098H14.2749Z" fill="#DFC1AD"/>
<path d="M10.5173 44.4373C10.4274 44.4016 10.3376 44.3838 10.2477 44.3838H7.01172V44.9547H10.2477C10.3735 44.9547 10.4814 45.0618 10.4814 45.1867V46.7211C10.4814 46.846 10.3735 46.953 10.2477 46.953H7.01172V47.524H10.2477C10.3376 47.524 10.4274 47.5061 10.5173 47.4705C10.8409 47.3634 11.0746 47.0601 11.0746 46.7032V45.1688C11.0746 44.8477 10.8409 44.5444 10.5173 44.4373Z" fill="#DFC1AD"/>
<path d="M15.1024 44.9547H18.3383V44.3838H15.1024C15.0125 44.3838 14.9226 44.4016 14.8327 44.4373C14.5091 44.5444 14.2754 44.8477 14.2754 45.2045V46.7389C14.2754 47.0958 14.5091 47.3991 14.8327 47.5061C14.9226 47.5418 15.0125 47.5597 15.1024 47.5597H18.3383V46.9887H15.1024C14.9765 46.9887 14.8686 46.8817 14.8686 46.7568V45.2224C14.8507 45.0618 14.9585 44.9547 15.1024 44.9547Z" fill="#DFC1AD"/>
<path d="M16.8994 55.7847H7.9106C7.40722 55.7847 7.01172 55.3922 7.01172 54.8926C7.01172 54.393 7.40722 54.0005 7.9106 54.0005H16.8994C17.4027 54.0005 17.7982 54.393 17.7982 54.8926C17.7982 55.3743 17.4027 55.7847 16.8994 55.7847Z" fill="#FFF2E9"/>
<path d="M29.4833 55.7847H20.4946C19.9912 55.7847 19.5957 55.3922 19.5957 54.8926C19.5957 54.393 19.9912 54.0005 20.4946 54.0005H29.4833C29.9867 54.0005 30.3822 54.393 30.3822 54.8926C30.3822 55.3743 29.9867 55.7847 29.4833 55.7847Z" fill="#FFF2E9"/>
<path d="M20.2971 60.2453H7.9106C7.40722 60.2453 7.01172 59.8527 7.01172 59.3532C7.01172 58.8536 7.40722 58.4611 7.9106 58.4611H20.2971C20.8005 58.4611 21.196 58.8536 21.196 59.3532C21.196 59.8349 20.8005 60.2453 20.2971 60.2453Z" fill="#FFF2E9"/>
<path d="M36.8538 60.2453H24.4672C23.9639 60.2453 23.5684 59.8527 23.5684 59.3532C23.5684 58.8536 23.9639 58.4611 24.4672 58.4611H36.8538C37.3571 58.4611 37.7526 58.8536 37.7526 59.3532C37.7526 59.8349 37.3571 60.2453 36.8538 60.2453Z" fill="#FFF2E9"/>
<path d="M42.1025 55.7847H33.1137C32.6103 55.7847 32.2148 55.3922 32.2148 54.8926C32.2148 54.393 32.6103 54.0005 33.1137 54.0005H42.1025C42.6059 54.0005 43.0014 54.393 43.0014 54.8926C43.0014 55.3743 42.6059 55.7847 42.1025 55.7847Z" fill="#FFF2E9"/>
<path d="M54.6884 55.7847H45.6997C45.1963 55.7847 44.8008 55.3922 44.8008 54.8926C44.8008 54.393 45.1963 54.0005 45.6997 54.0005H54.6884C55.1918 54.0005 55.5873 54.393 55.5873 54.8926C55.5873 55.3743 55.1918 55.7847 54.6884 55.7847Z" fill="#FFF2E9"/>
<path d="M64 44.2587C72.8366 44.2587 80 37.1493 80 28.3794C80 19.6094 72.8366 12.5 64 12.5C55.1634 12.5 48 19.6094 48 28.3794C48 37.1493 55.1634 44.2587 64 44.2587Z" fill="#E78542"/>
<path d="M64.0009 42.1177C71.646 42.1177 77.8436 35.9668 77.8436 28.3793C77.8436 20.7919 71.646 14.641 64.0009 14.641C56.3558 14.641 50.1582 20.7919 50.1582 28.3793C50.1582 35.9668 56.3558 42.1177 64.0009 42.1177Z" fill="white"/>
<path d="M63.9992 18.7804C63.8015 18.7804 63.6397 18.6198 63.6397 18.4236V16.8178C63.6397 16.6215 63.8015 16.4609 63.9992 16.4609C64.197 16.4609 64.3588 16.6215 64.3588 16.8178V18.4236C64.3588 18.6377 64.197 18.7804 63.9992 18.7804Z" fill="#DFC1AD"/>
<path d="M63.9992 40.2978C63.8015 40.2978 63.6397 40.1373 63.6397 39.941V38.3352C63.6397 38.139 63.8015 37.9784 63.9992 37.9784C64.197 37.9784 64.3588 38.139 64.3588 38.3352V39.941C64.3588 40.1373 64.197 40.2978 63.9992 40.2978Z" fill="#DFC1AD"/>
<path d="M73.6532 28.3794C73.6532 28.1831 73.815 28.0226 74.0127 28.0226H75.6307C75.8284 28.0226 75.9902 28.1831 75.9902 28.3794C75.9902 28.5757 75.8284 28.7362 75.6307 28.7362H74.0127C73.815 28.7362 73.6532 28.5757 73.6532 28.3794Z" fill="#DFC1AD"/>
<path d="M51.9902 28.3794C51.9902 28.1831 52.152 28.0226 52.3498 28.0226H53.9678C54.1655 28.0226 54.3273 28.1831 54.3273 28.3794C54.3273 28.5757 54.1655 28.7362 53.9678 28.7362H52.3498C52.152 28.7362 51.9902 28.5757 51.9902 28.3794Z" fill="#DFC1AD"/>
<path d="M59.1633 20.0829C58.9835 20.1899 58.7678 20.1185 58.6779 19.958L57.8689 18.5663C57.761 18.3879 57.8329 18.1738 57.9947 18.0846C58.1745 17.9775 58.3902 18.0489 58.4801 18.2095L59.2891 19.6011C59.397 19.7617 59.343 19.9758 59.1633 20.0829Z" fill="#DFC1AD"/>
<path d="M70.0037 38.6921C69.8239 38.7991 69.6082 38.7277 69.5183 38.5672L68.7093 37.1755C68.6015 36.9971 68.6734 36.783 68.8352 36.6938C69.0149 36.5867 69.2307 36.6581 69.3206 36.8187L70.1296 38.2103C70.2194 38.3709 70.1655 38.6029 70.0037 38.6921Z" fill="#DFC1AD"/>
<path d="M72.3588 23.5799C72.2509 23.4015 72.3228 23.1874 72.4846 23.0982L73.8869 22.2953C74.0666 22.1882 74.2824 22.2596 74.3723 22.4202C74.4801 22.5986 74.4082 22.8127 74.2464 22.9019L72.8442 23.7048C72.6824 23.8118 72.4666 23.7583 72.3588 23.5799Z" fill="#DFC1AD"/>
<path d="M53.6082 34.3386C53.5003 34.1602 53.5723 33.9461 53.7341 33.8569L55.1363 33.054C55.3161 32.9469 55.5318 33.0183 55.6217 33.1789C55.7296 33.3573 55.6576 33.5714 55.4959 33.6606L54.0936 34.4635C53.9138 34.5706 53.6981 34.4992 53.6082 34.3386Z" fill="#DFC1AD"/>
<path d="M55.6217 23.5799C55.5138 23.7583 55.2981 23.8118 55.1363 23.7048L53.7341 22.9019C53.5543 22.7948 53.5003 22.5807 53.6082 22.4202C53.7161 22.2417 53.9318 22.1882 54.0936 22.2953L55.4959 23.0982C55.6756 23.1874 55.7296 23.4193 55.6217 23.5799Z" fill="#DFC1AD"/>
<path d="M74.3902 34.3386C74.2824 34.517 74.0666 34.5706 73.9048 34.4635L72.5026 33.6606C72.3228 33.5536 72.2689 33.3395 72.3767 33.1789C72.4846 33.0005 72.7003 32.9469 72.8621 33.054L74.2644 33.8569C74.4262 33.9461 74.4801 34.1602 74.3902 34.3386Z" fill="#DFC1AD"/>
<path d="M68.8352 20.0829C68.6554 19.9758 68.6015 19.7617 68.7093 19.6011L69.5183 18.2095C69.6262 18.031 69.8419 17.9775 70.0037 18.0846C70.1835 18.1916 70.2374 18.4057 70.1296 18.5663L69.3206 19.958C69.2127 20.1185 68.997 20.1721 68.8352 20.0829Z" fill="#DFC1AD"/>
<path d="M57.9947 38.6921C57.8149 38.585 57.761 38.3709 57.8689 38.2103L58.6779 36.8187C58.7857 36.6402 59.0015 36.5867 59.1633 36.6938C59.343 36.8008 59.397 37.0149 59.2891 37.1755L58.4801 38.5672C58.3902 38.7277 58.1745 38.7991 57.9947 38.6921Z" fill="#DFC1AD"/>
<path d="M63.9999 29.2001C63.5145 29.2001 63.1369 28.7898 63.1549 28.308L63.9999 15.9971L64.8448 28.308C64.8628 28.7898 64.4853 29.2001 63.9999 29.2001Z" fill="#3C2211"/>
<path d="M63.6044 27.7728C64.0178 27.523 64.5572 27.6657 64.7729 28.0939L68.71 35.9623L63.3886 28.9504C63.083 28.5757 63.1909 28.0226 63.6044 27.7728Z" fill="#3C2211"/>
</svg>
