<svg width="160" height="160" viewBox="0 0 160 160" fill="none" xmlns="http://www.w3.org/2000/svg">
<g clip-path="url(#clip0_157_3659)">
<path d="M55.9143 66.8742C55.9143 66.8742 46.781 74.5137 44.1715 81.8898C41.6272 89.2001 44.8239 97.8274 51.6086 102.174C58.3934 106.521 68.9619 108.101 69.8752 114.687C70.7886 121.273 70.6581 137.342 82.9228 150.645C95.1876 163.949 121.87 164.015 141.441 144.652C161.013 125.29 164.209 100.462 152.466 88.2122C140.658 76.0285 118.999 74.7113 113.911 72.7356C108.757 70.694 106.278 65.6888 104.451 60.6836C102.625 55.6784 99.8195 48.7633 93.0999 50.5414C86.4457 52.2538 87.7504 60.025 84.4233 64.5692C80.1176 70.4964 72.8109 67.2035 67.3962 61.0787L55.9143 66.8742Z" fill="#490115"/>
<path d="M103.103 82.1533C108.975 88.0805 109.04 97.7616 103.103 103.755C97.232 109.682 87.6421 109.748 81.7054 103.755C75.834 97.8274 75.7687 88.1463 81.7054 82.1532C87.6421 76.1602 97.1668 76.1602 103.103 82.1533Z" fill="#FD9852"/>
<path d="M99.6495 85.6436C103.629 89.661 103.629 96.115 99.6495 100.132C95.67 104.15 89.2766 104.15 85.2971 100.132C81.3176 96.115 81.3176 89.661 85.2971 85.6436C89.2114 81.6922 95.67 81.6263 99.6495 85.6436Z" fill="#490115"/>
<path d="M88.8843 78.0699C86.2748 78.7285 83.7957 80.0457 81.7081 82.1531C79.6205 84.2606 78.3158 86.7632 77.7286 89.4633L18.9492 26.8324L26.4516 19.2588L88.8843 78.0699Z" fill="#E78542"/>
<path d="M6.87768 0.160232C5.7034 0.423664 4.72483 1.01639 3.94197 1.80668L1.78912 3.97999C1.00627 4.77029 0.353887 5.82401 0.158173 6.9436C-0.36373 9.31448 0.419124 11.6854 2.31102 13.2001C7.13863 17.1516 14.1191 25.3838 17.1853 29.006C18.2291 30.1914 19.5338 30.9817 21.0343 31.1793L23.5786 31.5086L24.8834 32.8258L32.5814 25.0545L31.2767 23.7374L30.9505 21.1689C30.7548 19.6542 29.9719 18.2053 28.7976 17.2833C25.1443 14.2538 17.0548 7.14117 13.1405 2.26768C11.5748 0.423663 9.22624 -0.366631 6.87768 0.160232Z" fill="#FD9852"/>
<path d="M36.5 159.518C56.6584 159.518 73 143.299 73 123.293C73 103.286 56.6584 87.0679 36.5 87.0679C16.3416 87.0679 0 103.286 0 123.293C0 143.299 16.3416 159.518 36.5 159.518Z" fill="#E78542"/>
<path d="M36.5005 154.633C53.9409 154.633 68.0792 140.602 68.0792 123.293C68.0792 105.984 53.9409 91.9521 36.5005 91.9521C19.0601 91.9521 4.92188 105.984 4.92188 123.293C4.92188 140.602 19.0601 154.633 36.5005 154.633Z" fill="white"/>
<path d="M36.501 101.395C36.0498 101.395 35.6807 101.029 35.6807 100.581V96.9178C35.6807 96.4701 36.0498 96.1038 36.501 96.1038C36.9521 96.1038 37.3212 96.4701 37.3212 96.9178V100.581C37.3212 101.069 36.9521 101.395 36.501 101.395Z" fill="#DFC1AD"/>
<path d="M36.501 150.482C36.0498 150.482 35.6807 150.115 35.6807 149.668V146.004C35.6807 145.557 36.0498 145.19 36.501 145.19C36.9521 145.19 37.3212 145.557 37.3212 146.004V149.668C37.3212 150.115 36.9521 150.482 36.501 150.482Z" fill="#DFC1AD"/>
<path d="M58.524 123.293C58.524 122.845 58.8931 122.479 59.3442 122.479H63.0352C63.4864 122.479 63.8555 122.845 63.8555 123.293C63.8555 123.74 63.4864 124.107 63.0352 124.107H59.3442C58.8931 124.107 58.524 123.74 58.524 123.293Z" fill="#DFC1AD"/>
<path d="M9.10547 123.293C9.10547 122.845 9.47457 122.479 9.92569 122.479H13.6167C14.0678 122.479 14.4369 122.845 14.4369 123.293C14.4369 123.74 14.0678 124.107 13.6167 124.107H9.92569C9.47457 124.107 9.10547 123.74 9.10547 123.293Z" fill="#DFC1AD"/>
<path d="M25.469 104.366C25.0588 104.61 24.5667 104.448 24.3616 104.081L22.5161 100.907C22.2701 100.5 22.4341 100.011 22.8032 99.8076C23.2133 99.5634 23.7055 99.7262 23.9105 100.093L25.756 103.267C26.0021 103.634 25.8791 104.122 25.469 104.366Z" fill="#DFC1AD"/>
<path d="M50.1987 146.819C49.7886 147.063 49.2965 146.9 49.0914 146.534L47.2459 143.359C46.9998 142.952 47.1639 142.463 47.533 142.26C47.9431 142.016 48.4352 142.178 48.6403 142.545L50.4858 145.72C50.6909 146.086 50.5678 146.615 50.1987 146.819Z" fill="#DFC1AD"/>
<path d="M55.5712 112.344C55.3251 111.937 55.4892 111.448 55.8583 111.245L59.0572 109.413C59.4673 109.169 59.9594 109.332 60.1645 109.698C60.4105 110.105 60.2465 110.594 59.8774 110.797L56.6785 112.629C56.3094 112.873 55.8173 112.751 55.5712 112.344Z" fill="#DFC1AD"/>
<path d="M12.7965 136.887C12.5504 136.48 12.7144 135.992 13.0835 135.788L16.2824 133.957C16.6925 133.712 17.1847 133.875 17.3897 134.242C17.6358 134.649 17.4718 135.137 17.1027 135.341L13.9038 137.172C13.4937 137.416 13.0015 137.254 12.7965 136.887Z" fill="#DFC1AD"/>
<path d="M17.3897 112.344C17.1437 112.751 16.6515 112.873 16.2824 112.629L13.0835 110.797C12.6734 110.553 12.5504 110.065 12.7965 109.698C13.0425 109.291 13.5347 109.169 13.9038 109.413L17.1027 111.245C17.5128 111.448 17.6358 111.978 17.3897 112.344Z" fill="#DFC1AD"/>
<path d="M60.2055 136.887C59.9594 137.294 59.4673 137.416 59.0982 137.172L55.8993 135.341C55.4892 135.096 55.3661 134.608 55.6122 134.242C55.8583 133.835 56.3504 133.712 56.7195 133.957L59.9184 135.788C60.2875 135.992 60.4105 136.48 60.2055 136.887Z" fill="#DFC1AD"/>
<path d="M47.533 104.366C47.1229 104.122 46.9998 103.634 47.2459 103.267L49.0914 100.093C49.3375 99.6855 49.8296 99.5634 50.1987 99.8076C50.6088 100.052 50.7319 100.54 50.4858 100.907L48.6403 104.081C48.3942 104.448 47.9021 104.57 47.533 104.366Z" fill="#DFC1AD"/>
<path d="M22.8032 146.819C22.3931 146.574 22.2701 146.086 22.5161 145.72L24.3616 142.545C24.6077 142.138 25.0998 142.016 25.4689 142.26C25.8791 142.504 26.0021 142.993 25.756 143.359L23.9105 146.534C23.7055 146.9 23.2133 147.063 22.8032 146.819Z" fill="#DFC1AD"/>
<path d="M36.4993 125.165C35.3919 125.165 34.5307 124.229 34.5717 123.13L36.4993 95.0457L38.4268 123.13C38.4678 124.229 37.6066 125.165 36.4993 125.165Z" fill="#3C2211"/>
<path d="M35.597 121.909C36.5403 121.339 37.7706 121.665 38.2627 122.642L47.2442 140.591L35.1049 124.595C34.4077 123.741 34.6537 122.479 35.597 121.909Z" fill="#3C2211"/>
<path d="M133.809 12.0366C133.822 11.9634 133.845 11.9221 133.857 11.849C134.784 7.97098 132.147 4.4585 128.46 3.47506C127.294 3.16333 126.204 2.75956 125.207 2.08567C124.467 1.5779 123.931 0.940262 123.255 0.413575C122.059 -0.582118 120.463 0.342304 120.748 1.88578C121.024 3.39742 121.646 4.91001 122.081 6.37437C122.913 9.17577 123.755 12.009 124.587 14.8104C125.022 16.2748 125.447 17.7073 125.882 19.1717C122.916 18.6323 119.652 20.1215 117.819 22.4671C116.239 24.4953 115.665 27.576 117.842 29.4236C122.265 33.2368 131.473 27.7306 129.57 22.0254C129.561 21.9936 129.542 21.9299 129.533 21.8981C128.597 18.7465 127.67 15.6268 126.734 12.4752C126.611 12.0614 126.456 11.657 126.365 11.2337C126.042 9.56287 127.519 8.11965 129.196 8.86855C130.076 9.26539 130.637 10.1035 130.997 10.9665C131.171 11.4345 131.223 12.0772 131.578 12.4567C132.266 13.2569 133.381 12.926 133.828 12.1002C133.787 12.0778 133.777 12.046 133.809 12.0366Z" fill="#FFD7E9"/>
<path d="M158.693 26.4104C158.826 24.5741 156.476 24.3028 155.997 26.0018C155.126 28.9766 154.749 32.1867 154.131 35.2466C153.553 38.1111 152.981 40.9431 152.403 43.8077C150.477 42.6059 147.892 42.4906 145.839 43.4313C143.968 44.3071 142.421 46.2647 143.212 48.3893C144.884 52.86 152.85 52.3337 154.304 47.9858C154.349 47.9272 154.362 47.8621 154.369 47.8296C155.657 41.4494 156.951 35.0367 158.239 28.6565C158.39 27.9078 158.646 27.1463 158.693 26.4104Z" fill="#FFB884"/>
<path d="M98.2251 28.5139C98.202 28.4516 98.1674 28.3582 98.1131 28.3075C98.322 28.5842 98.09 28.2452 98.075 28.1091C97.9479 27.7666 97.8093 27.393 97.6822 27.0505C97.2779 25.9608 96.8736 24.8711 96.4693 23.7814C95.5106 21.1972 94.5518 18.613 93.5931 16.0288C93.0848 14.6589 92.5766 13.289 92.0798 11.9502C91.3983 10.1132 90.5942 7.75503 88.1336 8.95132C83.7577 10.9999 79.5284 13.3482 75.2529 15.572C74.0342 16.2013 71.8201 16.9165 71.4611 18.4311C71.2321 19.4369 71.8694 20.5819 72.216 21.5159C72.5163 22.3254 72.8051 23.1038 73.1054 23.9133C74.5724 27.8674 76.0394 31.8215 77.5064 35.7757C74.2839 35.8732 70.7341 38.4299 70.8387 41.8623C70.9769 45.6719 75.6367 45.8203 78.2033 44.3368C79.6872 43.4675 81.0059 42.0573 81.4316 40.3408C81.5973 39.6418 81.6038 38.8956 81.3924 38.2302C81.3 37.9811 81.1764 37.7436 81.0529 37.506C81.0529 37.506 81.0182 37.4126 81.0067 37.3815C80.2513 35.5365 79.6205 33.6453 78.9275 31.7772C78.0842 29.5044 77.241 27.2316 76.4093 24.9899C76.1552 24.3049 75.788 23.6973 76.4162 23.0037C76.7401 22.6356 77.5727 22.3976 78.0167 22.162C80.3297 20.9497 82.6231 19.78 84.9361 18.5677C86.4546 17.7918 88.0169 16.7517 89.6048 16.1626C90.819 15.7121 91.0169 16.9138 91.3172 17.7233C91.7793 18.9687 92.2529 20.2452 92.7149 21.4906C93.3618 23.2341 93.9971 24.9465 94.644 26.6901C92.2692 26.6857 89.9401 28.0456 88.7164 30.0936C87.6333 31.9477 87.675 34.447 89.7114 35.6396C93.7415 38.0053 100.444 32.9681 98.2251 28.5139Z" fill="#E78542"/>
</g>
<defs>
<clipPath id="clip0_157_3659">
<rect width="160" height="160" fill="white"/>
</clipPath>
</defs>
</svg>
