<svg width="80" height="80" viewBox="0 0 80 80" fill="none" xmlns="http://www.w3.org/2000/svg">
<path fill-rule="evenodd" clip-rule="evenodd" d="M78.7195 42.4336C76.9949 52.6543 70.1673 60.945 61.9028 67.9311C54.0926 74.533 44.8689 79.9472 34.2786 79.9995C23.6383 80.0521 13.2116 75.7174 6.3573 68.2053C-0.0346935 61.1999 -0.0174736 51.5925 0.00214963 42.4336C0.0217118 33.3012 0.454047 24.0157 6.46751 16.7636C13.3295 8.48824 23.1173 2.66754 34.2786 1.09693C47.4512 -0.756728 62.7093 -1.20163 72.0951 7.5285C81.466 16.2448 80.7668 30.3003 78.7195 42.4336Z" fill="#FFD7E9"/>
<path fill-rule="evenodd" clip-rule="evenodd" d="M42.4336 1.28051C52.6543 3.00514 60.945 9.83268 67.9311 18.0972C74.533 25.9074 79.9472 35.1311 79.9995 45.7214C80.0521 56.3617 75.7174 66.7884 68.2053 73.6427C61.1999 80.0347 51.5925 80.0175 42.4336 79.9978C33.3012 79.9783 24.0157 79.546 16.7636 73.5325C8.48825 66.6705 2.66754 56.8827 1.09693 45.7214C-0.756726 32.5488 -1.20163 17.2907 7.5285 7.90494C16.2448 -1.46596 30.3003 -0.766851 42.4336 1.28051Z" fill="#E78542"/>
</svg>
