<svg width="945" height="649" viewBox="0 0 945 649" fill="none" xmlns="http://www.w3.org/2000/svg">
<path d="M311 334C128.6 311.6 8.66667 105.333 2 0V622C192.5 420.5 372 579 499.5 630C627 681 708.5 625 706 505C703.5 385 818.5 341.5 874 327.5C929.5 313.5 1000.02 257.034 874 245C685.5 227 539 362 311 334Z" fill="#E78542"/>
<path d="M300.518 353.423C130.208 332.537 8.22488 152.713 2.00012 54.5L2 586.541C179.873 398.661 347.474 536.447 466.523 584C585.572 631.553 671.669 624.753 669.335 512.865C667.001 400.976 774.378 330.416 826.199 317.363C890 301.291 944.054 261.392 826.199 270.439C623.5 286 513.405 379.531 300.518 353.423Z" fill="#FD9852"/>
<path d="M300.518 383.423C130.208 362.537 8.22488 193.213 2.00012 95L2 568C179.873 380.12 331.474 506.447 450.523 554C569.572 601.553 655.669 594.753 653.335 482.865C651.001 370.976 744.686 318.658 797.5 310.5C859 301 914.531 269.98 797.5 286.577C586.5 316.5 513.405 409.531 300.518 383.423Z" fill="#FFD7E9"/>
<path d="M302 402C138.537 380.093 32 259.333 0 192V530C158 378 342 466 474 516C606 566 622.197 533.847 606 448C586 342 496 428 302 402Z" fill="#FFF2E9"/>
<path d="M665.897 292.197C676.708 292.131 681.357 284.724 680.394 278.429C679.448 272.124 672.804 266.366 662.437 269.375C659.048 270.358 655.688 272.226 652.709 274.293C655.116 271.586 657.359 268.501 658.73 265.265C662.959 255.395 657.949 248.196 651.749 246.535C645.55 244.874 637.625 248.607 636.313 259.259C635.883 262.746 636.282 266.539 637.014 270.088C635.467 266.808 633.491 263.51 631.048 260.964C623.587 253.178 614.968 254.847 610.996 259.834C607.011 264.817 607.337 273.542 616.667 279.005C620.435 281.211 625.131 282.47 629.444 283.166C625.357 283.824 621.009 284.982 617.456 286.993C608.07 292.309 607.679 301.038 611.612 306.084C615.545 311.13 624.158 312.937 631.693 305.274C635.24 301.662 637.825 296.513 639.577 292.016C638.846 296.786 638.497 302.535 639.776 307.44C642.469 317.844 650.832 320.585 656.761 318.182C662.69 315.778 666.703 308.02 661.242 298.739C659.171 295.221 655.971 292.041 652.774 289.431C656.835 290.965 661.53 292.223 665.897 292.197Z" fill="#3C2211"/>
<path d="M659.435 288.923C667.239 288.875 670.594 283.529 669.899 278.985C669.216 274.434 664.421 270.277 656.938 272.449C654.491 273.159 652.065 274.507 649.915 276C651.653 274.045 653.272 271.818 654.262 269.483C657.314 262.358 653.698 257.162 649.223 255.963C644.748 254.764 639.027 257.458 638.08 265.147C637.77 267.665 638.058 270.403 638.586 272.964C637.47 270.596 636.043 268.216 634.279 266.378C628.894 260.758 622.672 261.962 619.805 265.562C616.929 269.159 617.164 275.458 623.899 279.401C626.619 280.993 630.008 281.902 633.122 282.405C630.171 282.879 627.033 283.715 624.469 285.167C617.693 289.004 617.411 295.305 620.25 298.947C623.089 302.59 629.306 303.894 634.745 298.363C637.306 295.756 639.172 292.038 640.436 288.792C639.908 292.236 639.656 296.385 640.58 299.926C642.524 307.436 648.561 309.415 652.84 307.68C657.12 305.945 660.017 300.345 656.075 293.646C654.579 291.106 652.27 288.811 649.962 286.927C652.893 288.034 656.283 288.942 659.435 288.923Z" fill="#644A39"/>
<path d="M639.823 290.922C645.457 292.432 651.239 289.123 652.737 283.532C654.235 277.941 650.882 272.185 645.248 270.675C639.613 269.166 633.831 272.474 632.333 278.065C630.835 283.656 634.188 289.412 639.823 290.922Z" fill="white"/>
</svg>
